<svg xmlns="http://www.w3.org/2000/svg" xmlns:xlink="http://www.w3.org/1999/xlink" width="800" zoomAndPan="magnify" viewBox="0 0 600 599.999999" height="800" preserveAspectRatio="xMidYMid meet" version="1.0"><defs><g/><clipPath id="c73c54bc36"><path d="M 3.359375 233.914062 L 596.449219 233.914062 L 596.449219 365.484375 L 3.359375 365.484375 Z M 3.359375 233.914062 " clip-rule="nonzero"/></clipPath><clipPath id="33104912f9"><path d="M 33.960938 233.914062 L 565.558594 233.914062 C 573.675781 233.914062 581.457031 237.140625 587.199219 242.878906 C 592.9375 248.617188 596.160156 256.398438 596.160156 264.515625 L 596.160156 334.882812 C 596.160156 343 592.9375 350.785156 587.199219 356.523438 C 581.457031 362.261719 573.675781 365.484375 565.558594 365.484375 L 33.960938 365.484375 C 25.84375 365.484375 18.0625 362.261719 12.324219 356.523438 C 6.582031 350.785156 3.359375 343 3.359375 334.882812 L 3.359375 264.515625 C 3.359375 256.398438 6.582031 248.617188 12.324219 242.878906 C 18.0625 237.140625 25.84375 233.914062 33.960938 233.914062 Z M 33.960938 233.914062 " clip-rule="nonzero"/></clipPath><clipPath id="57bc4f2bd7"><path d="M 0.359375 0.914062 L 592.933594 0.914062 L 592.933594 132.484375 L 0.359375 132.484375 Z M 0.359375 0.914062 " clip-rule="nonzero"/></clipPath><clipPath id="5089fac023"><path d="M 30.960938 0.914062 L 562.558594 0.914062 C 570.675781 0.914062 578.457031 4.140625 584.199219 9.878906 C 589.9375 15.617188 593.160156 23.398438 593.160156 31.515625 L 593.160156 101.882812 C 593.160156 110 589.9375 117.785156 584.199219 123.523438 C 578.457031 129.261719 570.675781 132.484375 562.558594 132.484375 L 30.960938 132.484375 C 22.84375 132.484375 15.0625 129.261719 9.324219 123.523438 C 3.582031 117.785156 0.359375 110 0.359375 101.882812 L 0.359375 31.515625 C 0.359375 23.398438 3.582031 15.617188 9.324219 9.878906 C 15.0625 4.140625 22.84375 0.914062 30.960938 0.914062 Z M 30.960938 0.914062 " clip-rule="nonzero"/></clipPath><linearGradient x1="224.360528" gradientTransform="matrix(0.513941, 0, 0, 0.513941, 0.359624, 0.915635)" y1="-224.359472" x2="928.859682" gradientUnits="userSpaceOnUse" y2="480.140691" id="ec075db9ef"><stop stop-opacity="1" stop-color="rgb(100%, 39.99939%, 76.858521%)" offset="0"/><stop stop-opacity="1" stop-color="rgb(100%, 40.182495%, 76.695251%)" offset="0.0078125"/><stop stop-opacity="1" stop-color="rgb(100%, 40.550232%, 76.367188%)" offset="0.015625"/><stop stop-opacity="1" stop-color="rgb(100%, 40.917969%, 76.039124%)" offset="0.0234375"/><stop stop-opacity="1" stop-color="rgb(100%, 41.285706%, 75.71106%)" offset="0.03125"/><stop stop-opacity="1" stop-color="rgb(100%, 41.651917%, 75.384521%)" offset="0.0390625"/><stop stop-opacity="1" stop-color="rgb(100%, 42.019653%, 75.056458%)" offset="0.046875"/><stop stop-opacity="1" stop-color="rgb(100%, 42.38739%, 74.728394%)" offset="0.0546875"/><stop stop-opacity="1" stop-color="rgb(100%, 42.755127%, 74.40033%)" offset="0.0625"/><stop stop-opacity="1" stop-color="rgb(100%, 43.122864%, 74.073792%)" offset="0.0703125"/><stop stop-opacity="1" stop-color="rgb(100%, 43.490601%, 73.745728%)" offset="0.078125"/><stop stop-opacity="1" stop-color="rgb(100%, 43.858337%, 73.417664%)" offset="0.0859375"/><stop stop-opacity="1" stop-color="rgb(100%, 44.226074%, 73.0896%)" offset="0.09375"/><stop stop-opacity="1" stop-color="rgb(100%, 44.592285%, 72.761536%)" offset="0.101562"/><stop stop-opacity="1" stop-color="rgb(100%, 44.960022%, 72.434998%)" offset="0.109375"/><stop stop-opacity="1" stop-color="rgb(100%, 45.327759%, 72.106934%)" offset="0.117188"/><stop stop-opacity="1" stop-color="rgb(100%, 45.695496%, 71.77887%)" offset="0.125"/><stop stop-opacity="1" stop-color="rgb(100%, 46.063232%, 71.450806%)" offset="0.132812"/><stop stop-opacity="1" stop-color="rgb(100%, 46.430969%, 71.124268%)" offset="0.140625"/><stop stop-opacity="1" stop-color="rgb(100%, 46.798706%, 70.796204%)" offset="0.148438"/><stop stop-opacity="1" stop-color="rgb(100%, 47.164917%, 70.46814%)" offset="0.15625"/><stop stop-opacity="1" stop-color="rgb(100%, 47.532654%, 70.140076%)" offset="0.164062"/><stop stop-opacity="1" stop-color="rgb(100%, 47.900391%, 69.813538%)" offset="0.171875"/><stop stop-opacity="1" stop-color="rgb(100%, 48.268127%, 69.485474%)" offset="0.179688"/><stop stop-opacity="1" stop-color="rgb(100%, 48.635864%, 69.15741%)" offset="0.181689"/><stop stop-opacity="1" stop-color="rgb(100%, 48.820496%, 68.994141%)" offset="0.1875"/><stop stop-opacity="1" stop-color="rgb(100%, 49.003601%, 68.829346%)" offset="0.195312"/><stop stop-opacity="1" stop-color="rgb(100%, 49.371338%, 68.501282%)" offset="0.203125"/><stop stop-opacity="1" stop-color="rgb(100%, 49.739075%, 68.174744%)" offset="0.210938"/><stop stop-opacity="1" stop-color="rgb(100%, 50.105286%, 67.84668%)" offset="0.21875"/><stop stop-opacity="1" stop-color="rgb(100%, 50.473022%, 67.518616%)" offset="0.226562"/><stop stop-opacity="1" stop-color="rgb(100%, 50.840759%, 67.190552%)" offset="0.234375"/><stop stop-opacity="1" stop-color="rgb(100%, 51.208496%, 66.864014%)" offset="0.242188"/><stop stop-opacity="1" stop-color="rgb(100%, 51.576233%, 66.53595%)" offset="0.25"/><stop stop-opacity="1" stop-color="rgb(100%, 51.94397%, 66.207886%)" offset="0.257812"/><stop stop-opacity="1" stop-color="rgb(100%, 52.311707%, 65.879822%)" offset="0.265625"/><stop stop-opacity="1" stop-color="rgb(100%, 52.679443%, 65.553284%)" offset="0.273438"/><stop stop-opacity="1" stop-color="rgb(100%, 53.045654%, 65.22522%)" offset="0.28125"/><stop stop-opacity="1" stop-color="rgb(100%, 53.413391%, 64.897156%)" offset="0.289063"/><stop stop-opacity="1" stop-color="rgb(100%, 53.781128%, 64.569092%)" offset="0.296875"/><stop stop-opacity="1" stop-color="rgb(100%, 54.148865%, 64.241028%)" offset="0.304688"/><stop stop-opacity="1" stop-color="rgb(100%, 54.516602%, 63.91449%)" offset="0.3125"/><stop stop-opacity="1" stop-color="rgb(100%, 54.884338%, 63.586426%)" offset="0.320313"/><stop stop-opacity="1" stop-color="rgb(100%, 55.252075%, 63.258362%)" offset="0.328125"/><stop stop-opacity="1" stop-color="rgb(100%, 55.619812%, 62.930298%)" offset="0.335937"/><stop stop-opacity="1" stop-color="rgb(100%, 55.986023%, 62.60376%)" offset="0.34375"/><stop stop-opacity="1" stop-color="rgb(100%, 56.35376%, 62.275696%)" offset="0.351562"/><stop stop-opacity="1" stop-color="rgb(100%, 56.721497%, 61.947632%)" offset="0.359375"/><stop stop-opacity="1" stop-color="rgb(100%, 57.089233%, 61.619568%)" offset="0.367187"/><stop stop-opacity="1" stop-color="rgb(100%, 57.45697%, 61.29303%)" offset="0.375"/><stop stop-opacity="1" stop-color="rgb(100%, 57.824707%, 60.964966%)" offset="0.382812"/><stop stop-opacity="1" stop-color="rgb(100%, 58.192444%, 60.636902%)" offset="0.390625"/><stop stop-opacity="1" stop-color="rgb(100%, 58.560181%, 60.308838%)" offset="0.398437"/><stop stop-opacity="1" stop-color="rgb(100%, 58.926392%, 59.9823%)" offset="0.40625"/><stop stop-opacity="1" stop-color="rgb(100%, 59.294128%, 59.654236%)" offset="0.414062"/><stop stop-opacity="1" stop-color="rgb(100%, 59.661865%, 59.326172%)" offset="0.421875"/><stop stop-opacity="1" stop-color="rgb(100%, 60.029602%, 58.998108%)" offset="0.429688"/><stop stop-opacity="1" stop-color="rgb(100%, 60.397339%, 58.670044%)" offset="0.4375"/><stop stop-opacity="1" stop-color="rgb(100%, 60.765076%, 58.343506%)" offset="0.445312"/><stop stop-opacity="1" stop-color="rgb(100%, 61.132812%, 58.015442%)" offset="0.453125"/><stop stop-opacity="1" stop-color="rgb(100%, 61.500549%, 57.687378%)" offset="0.460938"/><stop stop-opacity="1" stop-color="rgb(100%, 61.86676%, 57.359314%)" offset="0.46875"/><stop stop-opacity="1" stop-color="rgb(100%, 62.234497%, 57.032776%)" offset="0.476563"/><stop stop-opacity="1" stop-color="rgb(100%, 62.602234%, 56.704712%)" offset="0.484375"/><stop stop-opacity="1" stop-color="rgb(100%, 62.969971%, 56.376648%)" offset="0.492188"/><stop stop-opacity="1" stop-color="rgb(100%, 63.337708%, 56.048584%)" offset="0.5"/><stop stop-opacity="1" stop-color="rgb(100%, 63.705444%, 55.722046%)" offset="0.507812"/><stop stop-opacity="1" stop-color="rgb(100%, 64.073181%, 55.393982%)" offset="0.515625"/><stop stop-opacity="1" stop-color="rgb(100%, 64.439392%, 55.065918%)" offset="0.523438"/><stop stop-opacity="1" stop-color="rgb(100%, 64.807129%, 54.737854%)" offset="0.53125"/><stop stop-opacity="1" stop-color="rgb(100%, 65.174866%, 54.40979%)" offset="0.539062"/><stop stop-opacity="1" stop-color="rgb(100%, 65.542603%, 54.083252%)" offset="0.546875"/><stop stop-opacity="1" stop-color="rgb(100%, 65.910339%, 53.755188%)" offset="0.554688"/><stop stop-opacity="1" stop-color="rgb(100%, 66.278076%, 53.427124%)" offset="0.5625"/><stop stop-opacity="1" stop-color="rgb(100%, 66.645813%, 53.09906%)" offset="0.570313"/><stop stop-opacity="1" stop-color="rgb(100%, 67.01355%, 52.772522%)" offset="0.578125"/><stop stop-opacity="1" stop-color="rgb(100%, 67.379761%, 52.444458%)" offset="0.585938"/><stop stop-opacity="1" stop-color="rgb(100%, 67.747498%, 52.116394%)" offset="0.59375"/><stop stop-opacity="1" stop-color="rgb(100%, 68.115234%, 51.78833%)" offset="0.601562"/><stop stop-opacity="1" stop-color="rgb(100%, 68.482971%, 51.461792%)" offset="0.609375"/><stop stop-opacity="1" stop-color="rgb(100%, 68.850708%, 51.133728%)" offset="0.617188"/><stop stop-opacity="1" stop-color="rgb(100%, 69.218445%, 50.805664%)" offset="0.625"/><stop stop-opacity="1" stop-color="rgb(100%, 69.586182%, 50.4776%)" offset="0.632812"/><stop stop-opacity="1" stop-color="rgb(100%, 69.953918%, 50.149536%)" offset="0.640625"/><stop stop-opacity="1" stop-color="rgb(100%, 70.320129%, 49.822998%)" offset="0.648438"/><stop stop-opacity="1" stop-color="rgb(100%, 70.687866%, 49.494934%)" offset="0.65625"/><stop stop-opacity="1" stop-color="rgb(100%, 71.055603%, 49.16687%)" offset="0.664062"/><stop stop-opacity="1" stop-color="rgb(100%, 71.42334%, 48.838806%)" offset="0.671875"/><stop stop-opacity="1" stop-color="rgb(100%, 71.791077%, 48.512268%)" offset="0.679688"/><stop stop-opacity="1" stop-color="rgb(100%, 72.158813%, 48.184204%)" offset="0.6875"/><stop stop-opacity="1" stop-color="rgb(100%, 72.52655%, 47.85614%)" offset="0.695312"/><stop stop-opacity="1" stop-color="rgb(100%, 72.894287%, 47.528076%)" offset="0.703125"/><stop stop-opacity="1" stop-color="rgb(100%, 73.260498%, 47.201538%)" offset="0.710938"/><stop stop-opacity="1" stop-color="rgb(100%, 73.628235%, 46.873474%)" offset="0.71875"/><stop stop-opacity="1" stop-color="rgb(100%, 73.995972%, 46.54541%)" offset="0.726562"/><stop stop-opacity="1" stop-color="rgb(100%, 74.363708%, 46.217346%)" offset="0.734375"/><stop stop-opacity="1" stop-color="rgb(100%, 74.731445%, 45.889282%)" offset="0.742187"/><stop stop-opacity="1" stop-color="rgb(100%, 75.099182%, 45.562744%)" offset="0.75"/><stop stop-opacity="1" stop-color="rgb(100%, 75.466919%, 45.23468%)" offset="0.757812"/><stop stop-opacity="1" stop-color="rgb(100%, 75.834656%, 44.906616%)" offset="0.765625"/><stop stop-opacity="1" stop-color="rgb(100%, 76.200867%, 44.578552%)" offset="0.773438"/><stop stop-opacity="1" stop-color="rgb(100%, 76.568604%, 44.252014%)" offset="0.78125"/><stop stop-opacity="1" stop-color="rgb(100%, 76.93634%, 43.92395%)" offset="0.789062"/><stop stop-opacity="1" stop-color="rgb(100%, 77.304077%, 43.595886%)" offset="0.796875"/><stop stop-opacity="1" stop-color="rgb(100%, 77.671814%, 43.267822%)" offset="0.804687"/><stop stop-opacity="1" stop-color="rgb(100%, 78.039551%, 42.941284%)" offset="0.8125"/><stop stop-opacity="1" stop-color="rgb(100%, 78.407288%, 42.61322%)" offset="0.818311"/><stop stop-opacity="1" stop-color="rgb(100%, 78.590393%, 42.449951%)" offset="0.820312"/><stop stop-opacity="1" stop-color="rgb(100%, 78.773499%, 42.285156%)" offset="0.828125"/><stop stop-opacity="1" stop-color="rgb(100%, 79.141235%, 41.957092%)" offset="0.835938"/><stop stop-opacity="1" stop-color="rgb(100%, 79.508972%, 41.629028%)" offset="0.84375"/><stop stop-opacity="1" stop-color="rgb(100%, 79.876709%, 41.30249%)" offset="0.851562"/><stop stop-opacity="1" stop-color="rgb(100%, 80.244446%, 40.974426%)" offset="0.859375"/><stop stop-opacity="1" stop-color="rgb(100%, 80.612183%, 40.646362%)" offset="0.867188"/><stop stop-opacity="1" stop-color="rgb(100%, 80.979919%, 40.318298%)" offset="0.875"/><stop stop-opacity="1" stop-color="rgb(100%, 81.347656%, 39.99176%)" offset="0.882812"/><stop stop-opacity="1" stop-color="rgb(100%, 81.713867%, 39.663696%)" offset="0.890625"/><stop stop-opacity="1" stop-color="rgb(100%, 82.081604%, 39.335632%)" offset="0.898437"/><stop stop-opacity="1" stop-color="rgb(100%, 82.449341%, 39.007568%)" offset="0.90625"/><stop stop-opacity="1" stop-color="rgb(100%, 82.817078%, 38.68103%)" offset="0.914062"/><stop stop-opacity="1" stop-color="rgb(100%, 83.184814%, 38.352966%)" offset="0.921875"/><stop stop-opacity="1" stop-color="rgb(100%, 83.552551%, 38.024902%)" offset="0.929688"/><stop stop-opacity="1" stop-color="rgb(100%, 83.920288%, 37.696838%)" offset="0.9375"/><stop stop-opacity="1" stop-color="rgb(100%, 84.288025%, 37.368774%)" offset="0.945313"/><stop stop-opacity="1" stop-color="rgb(100%, 84.654236%, 37.042236%)" offset="0.953125"/><stop stop-opacity="1" stop-color="rgb(100%, 85.021973%, 36.714172%)" offset="0.960938"/><stop stop-opacity="1" stop-color="rgb(100%, 85.389709%, 36.386108%)" offset="0.96875"/><stop stop-opacity="1" stop-color="rgb(100%, 85.757446%, 36.058044%)" offset="0.976562"/><stop stop-opacity="1" stop-color="rgb(100%, 86.125183%, 35.731506%)" offset="0.984375"/><stop stop-opacity="1" stop-color="rgb(100%, 86.49292%, 35.403442%)" offset="0.992188"/><stop stop-opacity="1" stop-color="rgb(100%, 86.860657%, 35.075378%)" offset="1"/></linearGradient><clipPath id="7110d01f38"><rect x="0" width="594" y="0" height="133"/></clipPath><clipPath id="b915c31d93"><rect x="0" width="537" y="0" height="84"/></clipPath><clipPath id="6d02fc3fd9"><rect x="0" width="537" y="0" height="84"/></clipPath><clipPath id="77f8ee1a76"><path d="M 0.00390625 233.839844 L 600 233.839844 L 600 365.839844 L 0.00390625 365.839844 Z M 0.00390625 233.839844 " clip-rule="nonzero"/></clipPath><clipPath id="92601d994e"><path d="M 30.605469 233.839844 L 569.394531 233.839844 C 577.511719 233.839844 585.292969 237.066406 591.03125 242.804688 C 596.769531 248.542969 599.996094 256.324219 599.996094 264.441406 L 599.996094 335.558594 C 599.996094 343.671875 596.769531 351.457031 591.03125 357.195312 C 585.292969 362.933594 577.511719 366.15625 569.394531 366.15625 L 30.605469 366.15625 C 22.488281 366.15625 14.707031 362.933594 8.96875 357.195312 C 3.230469 351.457031 0.00390625 343.671875 0.00390625 335.558594 L 0.00390625 264.441406 C 0.00390625 256.324219 3.230469 248.542969 8.96875 242.804688 C 14.707031 237.066406 22.488281 233.839844 30.605469 233.839844 Z M 30.605469 233.839844 " clip-rule="nonzero"/></clipPath></defs><g clip-path="url(#c73c54bc36)"><g clip-path="url(#33104912f9)"><g transform="matrix(1, 0, 0, 1, 3, 233)"><g clip-path="url(#7110d01f38)"><g clip-path="url(#57bc4f2bd7)"><g clip-path="url(#5089fac023)"><path fill="url(#ec075db9ef)" d="M 0.359375 0.914062 L 0.359375 132.484375 L 592.933594 132.484375 L 592.933594 0.914062 Z M 0.359375 0.914062 " fill-rule="nonzero"/></g></g></g></g></g></g><g transform="matrix(1, 0, 0, 1, 30, 258)"><g clip-path="url(#b915c31d93)"><g fill="#ffffff" fill-opacity="1"><g transform="translate(0.617909, 67.499948)"><g><path d="M 12.078125 0.21875 C 10.242188 0.21875 8.804688 0.203125 7.765625 0.171875 C 6.722656 0.148438 5.984375 0.09375 5.546875 0 C 5.109375 -0.09375 4.890625 -0.265625 4.890625 -0.515625 C 4.765625 -11.015625 4.71875 -20.144531 4.75 -27.90625 C 4.789062 -35.664062 4.921875 -41.953125 5.140625 -46.765625 C 5.359375 -51.578125 5.664062 -54.765625 6.0625 -56.328125 C 6.0625 -56.691406 6.484375 -56.988281 7.328125 -57.21875 C 8.171875 -57.457031 9.273438 -57.632812 10.640625 -57.75 C 12.015625 -57.875 13.472656 -57.9375 15.015625 -57.9375 C 19.328125 -57.9375 22.554688 -56.75 24.703125 -54.375 C 26.859375 -52.007812 27.9375 -48.742188 27.9375 -44.578125 C 27.9375 -39.410156 26.078125 -35.296875 22.359375 -32.234375 C 24.953125 -30.742188 26.863281 -28.003906 28.09375 -24.015625 C 28.78125 -21.734375 29.125 -17.816406 29.125 -12.265625 C 29.125 -10.035156 28.6875 -8.125 27.8125 -6.53125 C 26.945312 -4.945312 25.734375 -3.65625 24.171875 -2.65625 C 22.617188 -1.664062 20.8125 -0.9375 18.75 -0.46875 C 16.695312 -0.0078125 14.472656 0.21875 12.078125 0.21875 Z M 10.765625 -34.296875 C 12.398438 -34.296875 13.910156 -34.554688 15.296875 -35.078125 C 16.679688 -35.609375 17.890625 -36.3125 18.921875 -37.1875 C 19.960938 -38.070312 20.769531 -39.066406 21.34375 -40.171875 C 21.925781 -41.273438 22.21875 -42.398438 22.21875 -43.546875 C 22.21875 -45.410156 22.050781 -46.878906 21.71875 -47.953125 C 21.382812 -49.035156 20.757812 -49.832031 19.84375 -50.34375 C 18.925781 -50.851562 17.5625 -51.179688 15.75 -51.328125 C 15.019531 -51.398438 14.304688 -51.414062 13.609375 -51.375 C 12.910156 -51.34375 12.15625 -51.289062 11.34375 -51.21875 Z M 10.765625 -5.515625 C 15.015625 -5.410156 18.1875 -6.164062 20.28125 -7.78125 C 22.375 -9.394531 23.363281 -11.671875 23.25 -14.609375 C 23.175781 -16.492188 23.015625 -18.222656 22.765625 -19.796875 C 22.523438 -21.378906 22.140625 -22.742188 21.609375 -23.890625 C 21.085938 -25.046875 20.363281 -25.941406 19.4375 -26.578125 C 18.519531 -27.222656 17.34375 -27.546875 15.90625 -27.546875 C 14.238281 -27.546875 12.425781 -27.394531 10.46875 -27.09375 C 10.414062 -25.4375 10.375 -24.066406 10.34375 -22.984375 C 10.320312 -21.910156 10.3125 -21.128906 10.3125 -20.640625 C 10.3125 -15.890625 10.460938 -10.847656 10.765625 -5.515625 Z M 10.765625 -5.515625 "/></g></g></g><g fill="#ffffff" fill-opacity="1"><g transform="translate(35.021951, 67.499948)"><g><path d="M 6.640625 1.5 C 5.734375 1.5 4.992188 1.390625 4.421875 1.171875 C 3.847656 0.953125 3.5625 0.625 3.5625 0.1875 C 3.5625 -3.21875 3.640625 -7.554688 3.796875 -12.828125 C 3.960938 -18.109375 4.128906 -24.519531 4.296875 -32.0625 C 4.367188 -34.800781 4.363281 -37.039062 4.28125 -38.78125 C 4.195312 -40.519531 4.097656 -41.914062 3.984375 -42.96875 C 3.867188 -44.019531 3.773438 -44.847656 3.703125 -45.453125 C 3.660156 -46.316406 3.859375 -46.90625 4.296875 -47.21875 C 4.734375 -47.539062 5.367188 -47.703125 6.203125 -47.703125 L 8.109375 -47.703125 C 9.160156 -47.703125 9.875 -47.0625 10.25 -45.78125 C 10.632812 -44.507812 10.835938 -42.703125 10.859375 -40.359375 C 10.890625 -38.023438 10.90625 -35.257812 10.90625 -32.0625 C 10.90625 -30.613281 10.851562 -28.453125 10.75 -25.578125 C 10.65625 -22.703125 10.554688 -19.207031 10.453125 -15.09375 C 10.359375 -10.976562 10.3125 -6.328125 10.3125 -1.140625 C 10.3125 0.328125 9.085938 1.207031 6.640625 1.5 Z M 6.640625 1.5 "/></g></g></g><g fill="#ffffff" fill-opacity="1"><g transform="translate(51.177529, 67.499948)"><g><path d="M 7.375 1.546875 C 6.375 1.546875 5.5 1.472656 4.75 1.328125 C 4.007812 1.179688 3.472656 0.859375 3.140625 0.359375 C 2.804688 -0.128906 2.75 -0.863281 2.96875 -1.84375 C 3.019531 -2.007812 3.171875 -2.691406 3.421875 -3.890625 C 3.679688 -5.085938 4.117188 -6.859375 4.734375 -9.203125 C 5.347656 -11.554688 6.179688 -14.535156 7.234375 -18.140625 C 9.046875 -24.234375 10.664062 -29.304688 12.09375 -33.359375 C 13.53125 -37.410156 14.601562 -40.515625 15.3125 -42.671875 L 5.765625 -42.671875 C 4.492188 -42.671875 3.613281 -42.851562 3.125 -43.21875 C 2.632812 -43.582031 2.390625 -44.132812 2.390625 -44.875 C 2.390625 -46.238281 2.5625 -47.265625 2.90625 -47.953125 C 3.25 -48.640625 3.875 -48.984375 4.78125 -48.984375 L 17.8125 -48.984375 C 21.132812 -48.984375 22.796875 -47.804688 22.796875 -45.453125 C 22.796875 -44.523438 22.375 -42.882812 21.53125 -40.53125 C 20.6875 -38.1875 19.546875 -34.929688 18.109375 -30.765625 C 16.898438 -27.296875 15.65625 -23.378906 14.375 -19.015625 C 13.09375 -14.660156 11.691406 -9.914062 10.171875 -4.78125 C 12.765625 -4.96875 15 -5.109375 16.875 -5.203125 C 18.75 -5.304688 20.503906 -5.359375 22.140625 -5.359375 C 22.828125 -5.378906 23.253906 -5.191406 23.421875 -4.796875 C 23.597656 -4.410156 23.6875 -4.007812 23.6875 -3.59375 C 23.6875 -2.082031 23.550781 -0.941406 23.28125 -0.171875 C 23.007812 0.597656 22.546875 0.972656 21.890625 0.953125 C 17.941406 1.148438 14.796875 1.296875 12.453125 1.390625 C 10.117188 1.492188 8.425781 1.546875 7.375 1.546875 Z M 7.375 1.546875 "/></g></g></g><g fill="#ffffff" fill-opacity="1"><g transform="translate(79.045905, 67.499948)"><g><path d="M 5.4375 2.28125 C 4.625 2.28125 4.082031 1.59375 3.8125 0.21875 L 3.53125 -40.90625 C 3.53125 -42.8125 4.753906 -44.625 7.203125 -46.34375 C 11.460938 -48.300781 15.769531 -49.28125 20.125 -49.28125 L 22.171875 -49.28125 C 25.898438 -49.28125 27.765625 -47.320312 27.765625 -43.40625 C 28.347656 -39.488281 28.640625 -34.347656 28.640625 -27.984375 C 28.242188 -10.066406 27.898438 -1.109375 27.609375 -1.109375 C 26.898438 -0.316406 25.921875 0.078125 24.671875 0.078125 L 22.765625 0.078125 C 21.691406 0.078125 21.15625 -0.363281 21.15625 -1.25 C 21.226562 -2.207031 21.304688 -3.375 21.390625 -4.75 C 21.472656 -6.132812 21.566406 -7.878906 21.671875 -9.984375 C 21.785156 -12.085938 21.90625 -14.660156 22.03125 -17.703125 L 9.984375 -18.4375 C 9.984375 -17.769531 9.988281 -16.738281 10 -15.34375 C 10.019531 -13.945312 10.039062 -12.066406 10.0625 -9.703125 C 10.082031 -7.347656 10.109375 -4.382812 10.140625 -0.8125 C 10.179688 -0.394531 10.210938 -0.0507812 10.234375 0.21875 C 10.265625 0.488281 10.28125 0.6875 10.28125 0.8125 C 10.28125 1.789062 8.664062 2.28125 5.4375 2.28125 Z M 22.625 -23.875 L 22.90625 -34.4375 C 22.988281 -37.28125 22.726562 -39.410156 22.125 -40.828125 C 21.519531 -42.253906 20.65625 -42.96875 19.53125 -42.96875 C 19.289062 -43.007812 19.046875 -43.039062 18.796875 -43.0625 C 18.554688 -43.09375 18.3125 -43.109375 18.0625 -43.109375 C 15.570312 -43.109375 13.078125 -42.375 10.578125 -40.90625 C 9.890625 -40.144531 9.546875 -38.773438 9.546875 -36.796875 L 9.984375 -24.453125 Z M 22.625 -23.875 "/></g></g></g><g fill="#ffffff" fill-opacity="1"><g transform="translate(111.063323, 67.499948)"><g><path d="M 7.375 2.75 C 6.445312 2.75 5.757812 2.625 5.3125 2.375 C 4.875 2.132812 4.632812 1.671875 4.59375 0.984375 C 3.582031 -14.140625 2.847656 -30.195312 2.390625 -47.1875 C 2.390625 -48.0625 2.492188 -48.703125 2.703125 -49.109375 C 2.910156 -49.515625 3.296875 -49.753906 3.859375 -49.828125 C 6.617188 -50.117188 8.96875 -50.265625 10.90625 -50.265625 C 12.863281 -50.265625 14.582031 -49.878906 16.0625 -49.109375 C 17.539062 -48.335938 18.773438 -47.265625 19.765625 -45.890625 C 20.765625 -44.523438 21.519531 -42.9375 22.03125 -41.125 C 22.539062 -39.3125 22.796875 -37.363281 22.796875 -35.28125 C 22.796875 -29.800781 20.890625 -25.492188 17.078125 -22.359375 C 17.441406 -21.335938 17.929688 -20.085938 18.546875 -18.609375 C 19.160156 -17.140625 19.835938 -15.507812 20.578125 -13.71875 C 21.328125 -11.9375 22.117188 -10.078125 22.953125 -8.140625 C 23.785156 -6.210938 24.601562 -4.269531 25.40625 -2.3125 C 25.65625 -1.726562 25.6875 -1.191406 25.5 -0.703125 C 25.320312 -0.210938 25.007812 0.203125 24.5625 0.546875 C 24.125 0.890625 23.632812 1.144531 23.09375 1.3125 C 22.5625 1.488281 22.0625 1.554688 21.59375 1.515625 C 21.125 1.484375 20.78125 1.320312 20.5625 1.03125 C 20.363281 0.757812 20.046875 0.207031 19.609375 -0.625 C 19.171875 -1.457031 18.660156 -2.484375 18.078125 -3.703125 C 17.503906 -4.929688 16.898438 -6.257812 16.265625 -7.6875 C 15.628906 -9.125 14.992188 -10.578125 14.359375 -12.046875 C 13.722656 -13.515625 13.132812 -14.914062 12.59375 -16.25 C 12.050781 -17.582031 11.585938 -18.738281 11.203125 -19.71875 L 9.140625 -19.46875 L 10.46875 1.171875 C 10.46875 1.765625 10.1875 2.175781 9.625 2.40625 C 9.0625 2.632812 8.3125 2.75 7.375 2.75 Z M 8.703125 -26.03125 C 11.242188 -26.207031 13.273438 -27.078125 14.796875 -28.640625 C 16.316406 -30.203125 17.078125 -32.613281 17.078125 -35.875 C 17.078125 -38.789062 16.390625 -40.957031 15.015625 -42.375 C 13.648438 -43.789062 11.398438 -44.316406 8.265625 -43.953125 C 8.210938 -42.085938 8.191406 -40.117188 8.203125 -38.046875 C 8.210938 -35.984375 8.265625 -33.929688 8.359375 -31.890625 C 8.460938 -29.847656 8.578125 -27.894531 8.703125 -26.03125 Z M 8.703125 -26.03125 "/></g></g></g><g fill="#ffffff" fill-opacity="1"><g transform="translate(138.748109, 67.499948)"><g><path d="M 7.375 2.75 C 6.445312 2.75 5.757812 2.625 5.3125 2.375 C 4.875 2.132812 4.632812 1.671875 4.59375 0.984375 C 3.582031 -14.140625 2.847656 -30.195312 2.390625 -47.1875 C 2.390625 -48.0625 2.492188 -48.703125 2.703125 -49.109375 C 2.910156 -49.515625 3.296875 -49.753906 3.859375 -49.828125 C 6.617188 -50.117188 8.96875 -50.265625 10.90625 -50.265625 C 12.863281 -50.265625 14.582031 -49.878906 16.0625 -49.109375 C 17.539062 -48.335938 18.773438 -47.265625 19.765625 -45.890625 C 20.765625 -44.523438 21.519531 -42.9375 22.03125 -41.125 C 22.539062 -39.3125 22.796875 -37.363281 22.796875 -35.28125 C 22.796875 -29.800781 20.890625 -25.492188 17.078125 -22.359375 C 17.441406 -21.335938 17.929688 -20.085938 18.546875 -18.609375 C 19.160156 -17.140625 19.835938 -15.507812 20.578125 -13.71875 C 21.328125 -11.9375 22.117188 -10.078125 22.953125 -8.140625 C 23.785156 -6.210938 24.601562 -4.269531 25.40625 -2.3125 C 25.65625 -1.726562 25.6875 -1.191406 25.5 -0.703125 C 25.320312 -0.210938 25.007812 0.203125 24.5625 0.546875 C 24.125 0.890625 23.632812 1.144531 23.09375 1.3125 C 22.5625 1.488281 22.0625 1.554688 21.59375 1.515625 C 21.125 1.484375 20.78125 1.320312 20.5625 1.03125 C 20.363281 0.757812 20.046875 0.207031 19.609375 -0.625 C 19.171875 -1.457031 18.660156 -2.484375 18.078125 -3.703125 C 17.503906 -4.929688 16.898438 -6.257812 16.265625 -7.6875 C 15.628906 -9.125 14.992188 -10.578125 14.359375 -12.046875 C 13.722656 -13.515625 13.132812 -14.914062 12.59375 -16.25 C 12.050781 -17.582031 11.585938 -18.738281 11.203125 -19.71875 L 9.140625 -19.46875 L 10.46875 1.171875 C 10.46875 1.765625 10.1875 2.175781 9.625 2.40625 C 9.0625 2.632812 8.3125 2.75 7.375 2.75 Z M 8.703125 -26.03125 C 11.242188 -26.207031 13.273438 -27.078125 14.796875 -28.640625 C 16.316406 -30.203125 17.078125 -32.613281 17.078125 -35.875 C 17.078125 -38.789062 16.390625 -40.957031 15.015625 -42.375 C 13.648438 -43.789062 11.398438 -44.316406 8.265625 -43.953125 C 8.210938 -42.085938 8.191406 -40.117188 8.203125 -38.046875 C 8.210938 -35.984375 8.265625 -33.929688 8.359375 -31.890625 C 8.460938 -29.847656 8.578125 -27.894531 8.703125 -26.03125 Z M 8.703125 -26.03125 "/></g></g></g><g fill="#ffffff" fill-opacity="1"><g transform="translate(166.432904, 67.499948)"><g><path d="M 7.203125 1.359375 C 6.117188 1.359375 5.304688 1.265625 4.765625 1.078125 C 4.234375 0.898438 3.96875 0.457031 3.96875 -0.25 C 3.769531 -3.832031 3.601562 -7.53125 3.46875 -11.34375 C 3.332031 -15.164062 3.300781 -19.109375 3.375 -23.171875 C 3.425781 -26.328125 3.488281 -29.3125 3.5625 -32.125 C 3.632812 -34.945312 3.738281 -37.457031 3.875 -39.65625 C 4.007812 -41.863281 4.1875 -43.648438 4.40625 -45.015625 C 4.625 -46.390625 4.90625 -47.222656 5.25 -47.515625 C 5.613281 -47.835938 6.300781 -48.078125 7.3125 -48.234375 C 8.332031 -48.390625 9.796875 -48.476562 11.703125 -48.5 C 13.617188 -48.53125 16.09375 -48.519531 19.125 -48.46875 C 19.882812 -48.46875 20.472656 -48.394531 20.890625 -48.25 C 21.304688 -48.101562 21.597656 -47.789062 21.765625 -47.3125 C 21.941406 -46.832031 22.03125 -46.117188 22.03125 -45.171875 C 22.03125 -44.117188 21.925781 -43.359375 21.71875 -42.890625 C 21.507812 -42.421875 21.09375 -42.125 20.46875 -42 C 19.84375 -41.882812 18.894531 -41.828125 17.625 -41.828125 C 15.914062 -41.828125 13.566406 -41.679688 10.578125 -41.390625 C 10.578125 -40.304688 10.566406 -39.023438 10.546875 -37.546875 C 10.535156 -36.066406 10.523438 -34.53125 10.515625 -32.9375 C 10.503906 -31.34375 10.472656 -29.800781 10.421875 -28.3125 L 20.125 -29.046875 C 20.957031 -29.140625 21.429688 -28.867188 21.546875 -28.234375 C 21.671875 -27.597656 21.734375 -26.691406 21.734375 -25.515625 C 21.734375 -24.460938 21.597656 -23.765625 21.328125 -23.421875 C 21.066406 -23.078125 20.46875 -22.847656 19.53125 -22.734375 C 19.164062 -22.679688 18.195312 -22.59375 16.625 -22.46875 C 15.0625 -22.351562 12.898438 -22.195312 10.140625 -22 L 10.421875 -5.546875 C 11.472656 -5.617188 12.988281 -5.703125 14.96875 -5.796875 C 16.957031 -5.898438 19.410156 -6.007812 22.328125 -6.125 C 22.910156 -6.125 23.300781 -5.875 23.5 -5.375 C 23.695312 -4.875 23.796875 -4.144531 23.796875 -3.1875 C 23.796875 -2.207031 23.710938 -1.472656 23.546875 -0.984375 C 23.390625 -0.492188 23.128906 -0.164062 22.765625 0 C 22.398438 0.164062 21.910156 0.273438 21.296875 0.328125 Z M 7.203125 1.359375 "/></g></g></g><g fill="#ffffff" fill-opacity="1"><g transform="translate(193.530205, 67.499948)"><g><path d="M 12.078125 0.21875 C 10.242188 0.21875 8.804688 0.203125 7.765625 0.171875 C 6.722656 0.148438 5.984375 0.09375 5.546875 0 C 5.109375 -0.09375 4.890625 -0.265625 4.890625 -0.515625 C 4.765625 -11.015625 4.71875 -20.144531 4.75 -27.90625 C 4.789062 -35.664062 4.921875 -41.953125 5.140625 -46.765625 C 5.359375 -51.578125 5.664062 -54.765625 6.0625 -56.328125 C 6.0625 -56.691406 6.484375 -56.988281 7.328125 -57.21875 C 8.171875 -57.457031 9.273438 -57.632812 10.640625 -57.75 C 12.015625 -57.875 13.472656 -57.9375 15.015625 -57.9375 C 19.328125 -57.9375 22.554688 -56.75 24.703125 -54.375 C 26.859375 -52.007812 27.9375 -48.742188 27.9375 -44.578125 C 27.9375 -39.410156 26.078125 -35.296875 22.359375 -32.234375 C 24.953125 -30.742188 26.863281 -28.003906 28.09375 -24.015625 C 28.78125 -21.734375 29.125 -17.816406 29.125 -12.265625 C 29.125 -10.035156 28.6875 -8.125 27.8125 -6.53125 C 26.945312 -4.945312 25.734375 -3.65625 24.171875 -2.65625 C 22.617188 -1.664062 20.8125 -0.9375 18.75 -0.46875 C 16.695312 -0.0078125 14.472656 0.21875 12.078125 0.21875 Z M 10.765625 -34.296875 C 12.398438 -34.296875 13.910156 -34.554688 15.296875 -35.078125 C 16.679688 -35.609375 17.890625 -36.3125 18.921875 -37.1875 C 19.960938 -38.070312 20.769531 -39.066406 21.34375 -40.171875 C 21.925781 -41.273438 22.21875 -42.398438 22.21875 -43.546875 C 22.21875 -45.410156 22.050781 -46.878906 21.71875 -47.953125 C 21.382812 -49.035156 20.757812 -49.832031 19.84375 -50.34375 C 18.925781 -50.851562 17.5625 -51.179688 15.75 -51.328125 C 15.019531 -51.398438 14.304688 -51.414062 13.609375 -51.375 C 12.910156 -51.34375 12.15625 -51.289062 11.34375 -51.21875 Z M 10.765625 -5.515625 C 15.015625 -5.410156 18.1875 -6.164062 20.28125 -7.78125 C 22.375 -9.394531 23.363281 -11.671875 23.25 -14.609375 C 23.175781 -16.492188 23.015625 -18.222656 22.765625 -19.796875 C 22.523438 -21.378906 22.140625 -22.742188 21.609375 -23.890625 C 21.085938 -25.046875 20.363281 -25.941406 19.4375 -26.578125 C 18.519531 -27.222656 17.34375 -27.546875 15.90625 -27.546875 C 14.238281 -27.546875 12.425781 -27.394531 10.46875 -27.09375 C 10.414062 -25.4375 10.375 -24.066406 10.34375 -22.984375 C 10.320312 -21.910156 10.3125 -21.128906 10.3125 -20.640625 C 10.3125 -15.890625 10.460938 -10.847656 10.765625 -5.515625 Z M 10.765625 -5.515625 "/></g></g></g><g fill="#ffffff" fill-opacity="1"><g transform="translate(227.934256, 67.499948)"><g><path d="M 7.203125 1.359375 C 6.117188 1.359375 5.304688 1.265625 4.765625 1.078125 C 4.234375 0.898438 3.96875 0.457031 3.96875 -0.25 C 3.769531 -3.832031 3.601562 -7.53125 3.46875 -11.34375 C 3.332031 -15.164062 3.300781 -19.109375 3.375 -23.171875 C 3.425781 -26.328125 3.488281 -29.3125 3.5625 -32.125 C 3.632812 -34.945312 3.738281 -37.457031 3.875 -39.65625 C 4.007812 -41.863281 4.1875 -43.648438 4.40625 -45.015625 C 4.625 -46.390625 4.90625 -47.222656 5.25 -47.515625 C 5.613281 -47.835938 6.300781 -48.078125 7.3125 -48.234375 C 8.332031 -48.390625 9.796875 -48.476562 11.703125 -48.5 C 13.617188 -48.53125 16.09375 -48.519531 19.125 -48.46875 C 19.882812 -48.46875 20.472656 -48.394531 20.890625 -48.25 C 21.304688 -48.101562 21.597656 -47.789062 21.765625 -47.3125 C 21.941406 -46.832031 22.03125 -46.117188 22.03125 -45.171875 C 22.03125 -44.117188 21.925781 -43.359375 21.71875 -42.890625 C 21.507812 -42.421875 21.09375 -42.125 20.46875 -42 C 19.84375 -41.882812 18.894531 -41.828125 17.625 -41.828125 C 15.914062 -41.828125 13.566406 -41.679688 10.578125 -41.390625 C 10.578125 -40.304688 10.566406 -39.023438 10.546875 -37.546875 C 10.535156 -36.066406 10.523438 -34.53125 10.515625 -32.9375 C 10.503906 -31.34375 10.472656 -29.800781 10.421875 -28.3125 L 20.125 -29.046875 C 20.957031 -29.140625 21.429688 -28.867188 21.546875 -28.234375 C 21.671875 -27.597656 21.734375 -26.691406 21.734375 -25.515625 C 21.734375 -24.460938 21.597656 -23.765625 21.328125 -23.421875 C 21.066406 -23.078125 20.46875 -22.847656 19.53125 -22.734375 C 19.164062 -22.679688 18.195312 -22.59375 16.625 -22.46875 C 15.0625 -22.351562 12.898438 -22.195312 10.140625 -22 L 10.421875 -5.546875 C 11.472656 -5.617188 12.988281 -5.703125 14.96875 -5.796875 C 16.957031 -5.898438 19.410156 -6.007812 22.328125 -6.125 C 22.910156 -6.125 23.300781 -5.875 23.5 -5.375 C 23.695312 -4.875 23.796875 -4.144531 23.796875 -3.1875 C 23.796875 -2.207031 23.710938 -1.472656 23.546875 -0.984375 C 23.390625 -0.492188 23.128906 -0.164062 22.765625 0 C 22.398438 0.164062 21.910156 0.273438 21.296875 0.328125 Z M 7.203125 1.359375 "/></g></g></g><g fill="#ffffff" fill-opacity="1"><g transform="translate(255.031557, 67.499948)"><g><path d="M 5.4375 2.28125 C 4.625 2.28125 4.082031 1.59375 3.8125 0.21875 L 3.53125 -40.90625 C 3.53125 -42.8125 4.753906 -44.625 7.203125 -46.34375 C 11.460938 -48.300781 15.769531 -49.28125 20.125 -49.28125 L 22.171875 -49.28125 C 25.898438 -49.28125 27.765625 -47.320312 27.765625 -43.40625 C 28.347656 -39.488281 28.640625 -34.347656 28.640625 -27.984375 C 28.242188 -10.066406 27.898438 -1.109375 27.609375 -1.109375 C 26.898438 -0.316406 25.921875 0.078125 24.671875 0.078125 L 22.765625 0.078125 C 21.691406 0.078125 21.15625 -0.363281 21.15625 -1.25 C 21.226562 -2.207031 21.304688 -3.375 21.390625 -4.75 C 21.472656 -6.132812 21.566406 -7.878906 21.671875 -9.984375 C 21.785156 -12.085938 21.90625 -14.660156 22.03125 -17.703125 L 9.984375 -18.4375 C 9.984375 -17.769531 9.988281 -16.738281 10 -15.34375 C 10.019531 -13.945312 10.039062 -12.066406 10.0625 -9.703125 C 10.082031 -7.347656 10.109375 -4.382812 10.140625 -0.8125 C 10.179688 -0.394531 10.210938 -0.0507812 10.234375 0.21875 C 10.265625 0.488281 10.28125 0.6875 10.28125 0.8125 C 10.28125 1.789062 8.664062 2.28125 5.4375 2.28125 Z M 22.625 -23.875 L 22.90625 -34.4375 C 22.988281 -37.28125 22.726562 -39.410156 22.125 -40.828125 C 21.519531 -42.253906 20.65625 -42.96875 19.53125 -42.96875 C 19.289062 -43.007812 19.046875 -43.039062 18.796875 -43.0625 C 18.554688 -43.09375 18.3125 -43.109375 18.0625 -43.109375 C 15.570312 -43.109375 13.078125 -42.375 10.578125 -40.90625 C 9.890625 -40.144531 9.546875 -38.773438 9.546875 -36.796875 L 9.984375 -24.453125 Z M 22.625 -23.875 "/></g></g></g><g fill="#ffffff" fill-opacity="1"><g transform="translate(287.048976, 67.499948)"><g><path d="M 13.078125 2.3125 C 9.472656 2.4375 6.835938 1.273438 5.171875 -1.171875 C 3.515625 -3.617188 2.734375 -7.660156 2.828125 -13.296875 C 2.847656 -14.367188 2.96875 -15.195312 3.1875 -15.78125 C 3.414062 -16.375 3.8125 -16.773438 4.375 -16.984375 C 4.9375 -17.191406 5.726562 -17.285156 6.75 -17.265625 C 7.539062 -17.234375 8.132812 -17.015625 8.53125 -16.609375 C 8.9375 -16.210938 9.15625 -15.707031 9.1875 -15.09375 C 9.15625 -13.570312 9.179688 -12.164062 9.265625 -10.875 C 9.359375 -9.59375 9.566406 -8.476562 9.890625 -7.53125 C 10.222656 -6.59375 10.738281 -5.875 11.4375 -5.375 C 12.132812 -4.875 13.082031 -4.648438 14.28125 -4.703125 C 15.207031 -4.753906 15.800781 -5.171875 16.0625 -5.953125 C 16.320312 -6.734375 16.460938 -7.992188 16.484375 -9.734375 C 16.535156 -11.765625 16.332031 -13.523438 15.875 -15.015625 C 15.425781 -16.515625 14.859375 -17.773438 14.171875 -18.796875 C 13.484375 -19.828125 12.800781 -20.632812 12.125 -21.21875 C 10.875 -22.320312 9.726562 -23.367188 8.6875 -24.359375 C 7.644531 -25.347656 6.738281 -26.375 5.96875 -27.4375 C 5.195312 -28.507812 4.585938 -29.6875 4.140625 -30.96875 C 3.703125 -32.257812 3.445312 -33.734375 3.375 -35.390625 C 3.300781 -37.890625 3.332031 -40.007812 3.46875 -41.75 C 3.601562 -43.488281 3.984375 -44.914062 4.609375 -46.03125 C 5.234375 -47.144531 6.210938 -48.003906 7.546875 -48.609375 C 8.878906 -49.222656 10.695312 -49.65625 13 -49.90625 C 15.101562 -50.125 16.78125 -49.90625 18.03125 -49.25 C 19.28125 -48.601562 20.234375 -47.628906 20.890625 -46.328125 C 21.554688 -45.035156 22.035156 -43.507812 22.328125 -41.75 C 22.617188 -39.988281 22.863281 -38.101562 23.0625 -36.09375 C 23.1875 -34.914062 23.015625 -34.023438 22.546875 -33.421875 C 22.078125 -32.828125 21.40625 -32.503906 20.53125 -32.453125 C 19.25 -32.429688 18.320312 -32.5625 17.75 -32.84375 C 17.175781 -33.125 16.828125 -33.597656 16.703125 -34.265625 C 16.609375 -35.503906 16.515625 -36.6875 16.421875 -37.8125 C 16.335938 -38.945312 16.1875 -39.941406 15.96875 -40.796875 C 15.75 -41.648438 15.394531 -42.285156 14.90625 -42.703125 C 14.414062 -43.117188 13.734375 -43.226562 12.859375 -43.03125 C 11.828125 -42.789062 10.984375 -42.320312 10.328125 -41.625 C 9.679688 -40.925781 9.421875 -39.78125 9.546875 -38.1875 C 9.671875 -36.8125 9.882812 -35.628906 10.1875 -34.640625 C 10.5 -33.648438 10.957031 -32.71875 11.5625 -31.84375 C 12.175781 -30.976562 12.96875 -30.0625 13.9375 -29.09375 C 14.90625 -28.132812 16.097656 -26.992188 17.515625 -25.671875 C 18.710938 -24.546875 19.6875 -23.285156 20.4375 -21.890625 C 21.1875 -20.492188 21.753906 -19.046875 22.140625 -17.546875 C 22.535156 -16.054688 22.785156 -14.609375 22.890625 -13.203125 C 23.003906 -11.796875 23.007812 -10.53125 22.90625 -9.40625 C 22.832031 -8.539062 22.738281 -7.585938 22.625 -6.546875 C 22.519531 -5.515625 22.300781 -4.476562 21.96875 -3.4375 C 21.644531 -2.394531 21.144531 -1.4375 20.46875 -0.5625 C 19.800781 0.300781 18.878906 0.992188 17.703125 1.515625 C 16.523438 2.046875 15.03125 2.3125 13.21875 2.3125 Z M 13.078125 2.3125 "/></g></g></g><g fill="#ffffff" fill-opacity="1"><g transform="translate(312.640893, 67.499948)"><g><path d="M 15.09375 1.6875 C 13.625 1.664062 12.65625 1.535156 12.1875 1.296875 C 11.726562 1.066406 11.5 0.632812 11.5 0 C 11.5 -0.21875 11.503906 -0.742188 11.515625 -1.578125 C 11.523438 -2.410156 11.535156 -3.414062 11.546875 -4.59375 C 11.554688 -5.769531 11.566406 -6.96875 11.578125 -8.1875 C 11.597656 -9.414062 11.609375 -10.519531 11.609375 -11.5 C 11.609375 -12.082031 11.597656 -12.921875 11.578125 -14.015625 C 11.566406 -15.117188 11.550781 -16.34375 11.53125 -17.6875 C 11.507812 -19.039062 11.484375 -20.382812 11.453125 -21.71875 C 11.429688 -23.050781 11.414062 -24.25 11.40625 -25.3125 C 11.394531 -26.382812 11.390625 -27.175781 11.390625 -27.6875 C 11.390625 -29.84375 11.441406 -32.160156 11.546875 -34.640625 C 11.660156 -37.128906 11.8125 -39.789062 12 -42.625 L 3.484375 -42.015625 C 2.503906 -42.015625 2.015625 -42.625 2.015625 -43.84375 L 2.015625 -46.59375 C 2.015625 -47.75 2.429688 -48.375 3.265625 -48.46875 C 11.171875 -49.0625 18.160156 -49.359375 24.234375 -49.359375 C 26.023438 -49.359375 27.320312 -49.273438 28.125 -49.109375 C 28.9375 -48.953125 29.34375 -48.410156 29.34375 -47.484375 L 29.34375 -45.28125 C 29.34375 -44.738281 29.222656 -44.289062 28.984375 -43.9375 C 28.753906 -43.582031 28.347656 -43.40625 27.765625 -43.40625 L 18.84375 -42.96875 C 18.46875 -36.113281 18.28125 -30.601562 18.28125 -26.4375 C 18.28125 -25.925781 18.285156 -25.21875 18.296875 -24.3125 C 18.316406 -23.40625 18.335938 -22.398438 18.359375 -21.296875 C 18.378906 -20.191406 18.394531 -19.09375 18.40625 -18 C 18.425781 -16.914062 18.441406 -15.921875 18.453125 -15.015625 C 18.460938 -14.109375 18.46875 -13.390625 18.46875 -12.859375 C 18.46875 -10.921875 18.460938 -8.878906 18.453125 -6.734375 C 18.441406 -4.597656 18.375 -2.179688 18.25 0.515625 C 18.226562 1.296875 17.175781 1.6875 15.09375 1.6875 Z M 15.09375 1.6875 "/></g></g></g><g fill="#ffffff" fill-opacity="1"><g transform="translate(343.777098, 67.499948)"><g><path d="M 13.078125 2.3125 C 9.472656 2.4375 6.835938 1.273438 5.171875 -1.171875 C 3.515625 -3.617188 2.734375 -7.660156 2.828125 -13.296875 C 2.847656 -14.367188 2.96875 -15.195312 3.1875 -15.78125 C 3.414062 -16.375 3.8125 -16.773438 4.375 -16.984375 C 4.9375 -17.191406 5.726562 -17.285156 6.75 -17.265625 C 7.539062 -17.234375 8.132812 -17.015625 8.53125 -16.609375 C 8.9375 -16.210938 9.15625 -15.707031 9.1875 -15.09375 C 9.15625 -13.570312 9.179688 -12.164062 9.265625 -10.875 C 9.359375 -9.59375 9.566406 -8.476562 9.890625 -7.53125 C 10.222656 -6.59375 10.738281 -5.875 11.4375 -5.375 C 12.132812 -4.875 13.082031 -4.648438 14.28125 -4.703125 C 15.207031 -4.753906 15.800781 -5.171875 16.0625 -5.953125 C 16.320312 -6.734375 16.460938 -7.992188 16.484375 -9.734375 C 16.535156 -11.765625 16.332031 -13.523438 15.875 -15.015625 C 15.425781 -16.515625 14.859375 -17.773438 14.171875 -18.796875 C 13.484375 -19.828125 12.800781 -20.632812 12.125 -21.21875 C 10.875 -22.320312 9.726562 -23.367188 8.6875 -24.359375 C 7.644531 -25.347656 6.738281 -26.375 5.96875 -27.4375 C 5.195312 -28.507812 4.585938 -29.6875 4.140625 -30.96875 C 3.703125 -32.257812 3.445312 -33.734375 3.375 -35.390625 C 3.300781 -37.890625 3.332031 -40.007812 3.46875 -41.75 C 3.601562 -43.488281 3.984375 -44.914062 4.609375 -46.03125 C 5.234375 -47.144531 6.210938 -48.003906 7.546875 -48.609375 C 8.878906 -49.222656 10.695312 -49.65625 13 -49.90625 C 15.101562 -50.125 16.78125 -49.90625 18.03125 -49.25 C 19.28125 -48.601562 20.234375 -47.628906 20.890625 -46.328125 C 21.554688 -45.035156 22.035156 -43.507812 22.328125 -41.75 C 22.617188 -39.988281 22.863281 -38.101562 23.0625 -36.09375 C 23.1875 -34.914062 23.015625 -34.023438 22.546875 -33.421875 C 22.078125 -32.828125 21.40625 -32.503906 20.53125 -32.453125 C 19.25 -32.429688 18.320312 -32.5625 17.75 -32.84375 C 17.175781 -33.125 16.828125 -33.597656 16.703125 -34.265625 C 16.609375 -35.503906 16.515625 -36.6875 16.421875 -37.8125 C 16.335938 -38.945312 16.1875 -39.941406 15.96875 -40.796875 C 15.75 -41.648438 15.394531 -42.285156 14.90625 -42.703125 C 14.414062 -43.117188 13.734375 -43.226562 12.859375 -43.03125 C 11.828125 -42.789062 10.984375 -42.320312 10.328125 -41.625 C 9.679688 -40.925781 9.421875 -39.78125 9.546875 -38.1875 C 9.671875 -36.8125 9.882812 -35.628906 10.1875 -34.640625 C 10.5 -33.648438 10.957031 -32.71875 11.5625 -31.84375 C 12.175781 -30.976562 12.96875 -30.0625 13.9375 -29.09375 C 14.90625 -28.132812 16.097656 -26.992188 17.515625 -25.671875 C 18.710938 -24.546875 19.6875 -23.285156 20.4375 -21.890625 C 21.1875 -20.492188 21.753906 -19.046875 22.140625 -17.546875 C 22.535156 -16.054688 22.785156 -14.609375 22.890625 -13.203125 C 23.003906 -11.796875 23.007812 -10.53125 22.90625 -9.40625 C 22.832031 -8.539062 22.738281 -7.585938 22.625 -6.546875 C 22.519531 -5.515625 22.300781 -4.476562 21.96875 -3.4375 C 21.644531 -2.394531 21.144531 -1.4375 20.46875 -0.5625 C 19.800781 0.300781 18.878906 0.992188 17.703125 1.515625 C 16.523438 2.046875 15.03125 2.3125 13.21875 2.3125 Z M 13.078125 2.3125 "/></g></g></g><g fill="#ffffff" fill-opacity="1"><g transform="translate(369.369016, 67.499948)"><g/></g></g><g fill="#ffffff" fill-opacity="1"><g transform="translate(388.021346, 67.499948)"><g><path d="M 13.875 5 C 13.238281 4.945312 12.613281 4.503906 12 3.671875 C 11.394531 2.835938 10.8125 1.71875 10.25 0.3125 C 9.6875 -1.09375 9.164062 -2.6875 8.6875 -4.46875 C 8.207031 -6.257812 7.769531 -8.132812 7.375 -10.09375 C 6.988281 -12.050781 6.65625 -14 6.375 -15.9375 C 6.09375 -17.875 5.878906 -19.695312 5.734375 -21.40625 C 5.585938 -23.125 5.515625 -24.601562 5.515625 -25.84375 C 5.515625 -37.550781 9.085938 -48.128906 16.234375 -57.578125 C 16.378906 -57.742188 16.59375 -57.882812 16.875 -58 C 17.15625 -58.113281 17.566406 -58.117188 18.109375 -58.015625 C 18.835938 -57.890625 19.460938 -57.640625 19.984375 -57.265625 C 20.515625 -56.890625 20.890625 -56.457031 21.109375 -55.96875 C 21.328125 -55.476562 21.316406 -54.988281 21.078125 -54.5 C 19.191406 -51.019531 17.625 -48.128906 16.375 -45.828125 C 15.125 -43.523438 14.289062 -41.765625 13.875 -40.546875 C 13.070312 -38.015625 12.476562 -35.425781 12.09375 -32.78125 C 11.71875 -30.144531 11.53125 -27.441406 11.53125 -24.671875 C 11.53125 -21.316406 11.75 -18.300781 12.1875 -15.625 C 12.632812 -12.945312 13.1875 -10.597656 13.84375 -8.578125 C 14.5 -6.554688 15.164062 -4.851562 15.84375 -3.46875 C 16.519531 -2.082031 17.085938 -0.992188 17.546875 -0.203125 C 18.015625 0.585938 18.257812 1.097656 18.28125 1.328125 C 18.382812 2.035156 18.257812 2.675781 17.90625 3.25 C 17.550781 3.820312 17.023438 4.265625 16.328125 4.578125 C 15.628906 4.898438 14.8125 5.039062 13.875 5 Z M 13.875 5 "/></g></g></g><g fill="#ffffff" fill-opacity="1"><g transform="translate(410.19853, 67.499948)"><g><path d="M 17.40625 5.65625 C 15.738281 5.582031 14.90625 5.046875 14.90625 4.046875 L 14.90625 1.546875 C 14.707031 1.492188 14.289062 1.410156 13.65625 1.296875 C 13.019531 1.191406 12.265625 1.03125 11.390625 0.8125 C 9.503906 0.34375 7.976562 -0.539062 6.8125 -1.84375 C 5.644531 -3.15625 4.789062 -4.710938 4.25 -6.515625 C 3.71875 -8.316406 3.453125 -10.1875 3.453125 -12.125 C 3.453125 -14.519531 3.5625 -16.453125 3.78125 -17.921875 C 4 -19.390625 4.390625 -20.453125 4.953125 -21.109375 C 5.515625 -21.773438 6.285156 -22.109375 7.265625 -22.109375 L 9.03125 -22.109375 C 9.46875 -22.109375 9.804688 -21.988281 10.046875 -21.75 C 10.296875 -21.519531 10.398438 -21.195312 10.359375 -20.78125 C 10.109375 -19.070312 9.921875 -17.59375 9.796875 -16.34375 C 9.679688 -15.09375 9.625 -14.078125 9.625 -13.296875 C 9.625 -11.304688 9.765625 -9.75 10.046875 -8.625 C 10.328125 -7.5 10.835938 -6.648438 11.578125 -6.078125 C 12.328125 -5.503906 13.390625 -5.019531 14.765625 -4.625 C 14.660156 -8.226562 14.21875 -15.523438 13.4375 -26.515625 C 10.75 -26.515625 8.617188 -27.035156 7.046875 -28.078125 C 5.484375 -29.117188 4.367188 -30.8125 3.703125 -33.15625 C 3.046875 -35.507812 2.71875 -38.628906 2.71875 -42.515625 C 2.71875 -45.992188 2.925781 -48.742188 3.34375 -50.765625 C 3.757812 -52.785156 4.382812 -54.210938 5.21875 -55.046875 C 6.019531 -55.847656 7.039062 -56.554688 8.28125 -57.171875 C 9.519531 -57.785156 10.945312 -58.09375 12.5625 -58.09375 C 12.601562 -59.070312 12.632812 -59.847656 12.65625 -60.421875 C 12.6875 -60.992188 12.703125 -61.46875 12.703125 -61.84375 C 12.753906 -62.375 12.953125 -62.742188 13.296875 -62.953125 C 13.640625 -63.160156 14.082031 -63.273438 14.625 -63.296875 C 15.175781 -63.328125 15.757812 -63.304688 16.375 -63.234375 C 17.257812 -63.128906 17.921875 -62.976562 18.359375 -62.78125 C 18.796875 -62.59375 19.015625 -62.253906 19.015625 -61.765625 L 19.015625 -58.09375 C 20.878906 -58.09375 22.585938 -57.738281 24.140625 -57.03125 C 25.691406 -56.320312 26.921875 -55.253906 27.828125 -53.828125 C 28.171875 -53.316406 28.421875 -52.765625 28.578125 -52.171875 C 28.742188 -51.585938 28.859375 -50.867188 28.921875 -50.015625 C 28.984375 -49.160156 29.015625 -48.082031 29.015625 -46.78125 C 29.015625 -45.476562 29.015625 -43.863281 29.015625 -41.9375 C 29.015625 -40.363281 27.835938 -39.578125 25.484375 -39.578125 C 24.578125 -39.628906 23.910156 -39.734375 23.484375 -39.890625 C 23.054688 -40.054688 22.84375 -40.296875 22.84375 -40.609375 C 22.789062 -42.203125 22.75 -43.625 22.71875 -44.875 C 22.695312 -46.125 22.6875 -47.203125 22.6875 -48.109375 C 22.6875 -49.378906 22.554688 -50.328125 22.296875 -50.953125 C 22.046875 -51.578125 21.617188 -51.976562 21.015625 -52.15625 C 20.421875 -52.34375 19.609375 -52.410156 18.578125 -52.359375 C 18.722656 -47.335938 18.878906 -43.222656 19.046875 -40.015625 C 19.222656 -36.816406 19.363281 -34.429688 19.46875 -32.859375 C 21.882812 -32.859375 23.867188 -32.566406 25.421875 -31.984375 C 26.984375 -31.398438 28.191406 -30.503906 29.046875 -29.296875 C 29.898438 -28.097656 30.5 -26.59375 30.84375 -24.78125 C 31.1875 -22.96875 31.359375 -20.851562 31.359375 -18.4375 C 31.359375 -16.101562 31.226562 -13.914062 30.96875 -11.875 C 30.71875 -9.832031 30.242188 -7.976562 29.546875 -6.3125 C 28.847656 -4.644531 27.851562 -3.210938 26.5625 -2.015625 C 25.28125 -0.816406 23.597656 0.0859375 21.515625 0.703125 L 21.515625 3.59375 C 21.515625 4.28125 21.171875 4.804688 20.484375 5.171875 C 19.804688 5.546875 18.78125 5.707031 17.40625 5.65625 Z M 13 -32.828125 C 12.851562 -37.015625 12.742188 -40.710938 12.671875 -43.921875 C 12.597656 -47.128906 12.5625 -49.941406 12.5625 -52.359375 C 11.363281 -52.191406 10.441406 -51.800781 9.796875 -51.1875 C 9.160156 -50.570312 8.710938 -49.773438 8.453125 -48.796875 C 8.203125 -47.816406 8.070312 -46.65625 8.0625 -45.3125 C 8.050781 -43.96875 8.082031 -42.453125 8.15625 -40.765625 C 8.25 -38.753906 8.460938 -37.171875 8.796875 -36.015625 C 9.128906 -34.867188 9.632812 -34.050781 10.3125 -33.5625 C 11 -33.070312 11.894531 -32.828125 13 -32.828125 Z M 21.21875 -5.359375 C 22.269531 -5.867188 23.109375 -6.585938 23.734375 -7.515625 C 24.359375 -8.453125 24.800781 -9.691406 25.0625 -11.234375 C 25.320312 -12.773438 25.414062 -14.6875 25.34375 -16.96875 C 25.289062 -18.65625 25.210938 -20.09375 25.109375 -21.28125 C 25.015625 -22.46875 24.804688 -23.421875 24.484375 -24.140625 C 24.171875 -24.867188 23.660156 -25.394531 22.953125 -25.71875 C 22.242188 -26.050781 21.226562 -26.21875 19.90625 -26.21875 Z M 21.21875 -5.359375 "/></g></g></g><g fill="#ffffff" fill-opacity="1"><g transform="translate(445.079901, 67.499948)"><g><path d="M 12.078125 0.21875 C 10.242188 0.21875 8.804688 0.203125 7.765625 0.171875 C 6.722656 0.148438 5.984375 0.09375 5.546875 0 C 5.109375 -0.09375 4.890625 -0.265625 4.890625 -0.515625 C 4.765625 -11.015625 4.71875 -20.144531 4.75 -27.90625 C 4.789062 -35.664062 4.921875 -41.953125 5.140625 -46.765625 C 5.359375 -51.578125 5.664062 -54.765625 6.0625 -56.328125 C 6.0625 -56.691406 6.484375 -56.988281 7.328125 -57.21875 C 8.171875 -57.457031 9.273438 -57.632812 10.640625 -57.75 C 12.015625 -57.875 13.472656 -57.9375 15.015625 -57.9375 C 19.328125 -57.9375 22.554688 -56.75 24.703125 -54.375 C 26.859375 -52.007812 27.9375 -48.742188 27.9375 -44.578125 C 27.9375 -39.410156 26.078125 -35.296875 22.359375 -32.234375 C 24.953125 -30.742188 26.863281 -28.003906 28.09375 -24.015625 C 28.78125 -21.734375 29.125 -17.816406 29.125 -12.265625 C 29.125 -10.035156 28.6875 -8.125 27.8125 -6.53125 C 26.945312 -4.945312 25.734375 -3.65625 24.171875 -2.65625 C 22.617188 -1.664062 20.8125 -0.9375 18.75 -0.46875 C 16.695312 -0.0078125 14.472656 0.21875 12.078125 0.21875 Z M 10.765625 -34.296875 C 12.398438 -34.296875 13.910156 -34.554688 15.296875 -35.078125 C 16.679688 -35.609375 17.890625 -36.3125 18.921875 -37.1875 C 19.960938 -38.070312 20.769531 -39.066406 21.34375 -40.171875 C 21.925781 -41.273438 22.21875 -42.398438 22.21875 -43.546875 C 22.21875 -45.410156 22.050781 -46.878906 21.71875 -47.953125 C 21.382812 -49.035156 20.757812 -49.832031 19.84375 -50.34375 C 18.925781 -50.851562 17.5625 -51.179688 15.75 -51.328125 C 15.019531 -51.398438 14.304688 -51.414062 13.609375 -51.375 C 12.910156 -51.34375 12.15625 -51.289062 11.34375 -51.21875 Z M 10.765625 -5.515625 C 15.015625 -5.410156 18.1875 -6.164062 20.28125 -7.78125 C 22.375 -9.394531 23.363281 -11.671875 23.25 -14.609375 C 23.175781 -16.492188 23.015625 -18.222656 22.765625 -19.796875 C 22.523438 -21.378906 22.140625 -22.742188 21.609375 -23.890625 C 21.085938 -25.046875 20.363281 -25.941406 19.4375 -26.578125 C 18.519531 -27.222656 17.34375 -27.546875 15.90625 -27.546875 C 14.238281 -27.546875 12.425781 -27.394531 10.46875 -27.09375 C 10.414062 -25.4375 10.375 -24.066406 10.34375 -22.984375 C 10.320312 -21.910156 10.3125 -21.128906 10.3125 -20.640625 C 10.3125 -15.890625 10.460938 -10.847656 10.765625 -5.515625 Z M 10.765625 -5.515625 "/></g></g></g><g fill="#ffffff" fill-opacity="1"><g transform="translate(479.483952, 67.499948)"><g><path d="M 12.078125 0.21875 C 10.242188 0.21875 8.804688 0.203125 7.765625 0.171875 C 6.722656 0.148438 5.984375 0.09375 5.546875 0 C 5.109375 -0.09375 4.890625 -0.265625 4.890625 -0.515625 C 4.765625 -11.015625 4.71875 -20.144531 4.75 -27.90625 C 4.789062 -35.664062 4.921875 -41.953125 5.140625 -46.765625 C 5.359375 -51.578125 5.664062 -54.765625 6.0625 -56.328125 C 6.0625 -56.691406 6.484375 -56.988281 7.328125 -57.21875 C 8.171875 -57.457031 9.273438 -57.632812 10.640625 -57.75 C 12.015625 -57.875 13.472656 -57.9375 15.015625 -57.9375 C 19.328125 -57.9375 22.554688 -56.75 24.703125 -54.375 C 26.859375 -52.007812 27.9375 -48.742188 27.9375 -44.578125 C 27.9375 -39.410156 26.078125 -35.296875 22.359375 -32.234375 C 24.953125 -30.742188 26.863281 -28.003906 28.09375 -24.015625 C 28.78125 -21.734375 29.125 -17.816406 29.125 -12.265625 C 29.125 -10.035156 28.6875 -8.125 27.8125 -6.53125 C 26.945312 -4.945312 25.734375 -3.65625 24.171875 -2.65625 C 22.617188 -1.664062 20.8125 -0.9375 18.75 -0.46875 C 16.695312 -0.0078125 14.472656 0.21875 12.078125 0.21875 Z M 10.765625 -34.296875 C 12.398438 -34.296875 13.910156 -34.554688 15.296875 -35.078125 C 16.679688 -35.609375 17.890625 -36.3125 18.921875 -37.1875 C 19.960938 -38.070312 20.769531 -39.066406 21.34375 -40.171875 C 21.925781 -41.273438 22.21875 -42.398438 22.21875 -43.546875 C 22.21875 -45.410156 22.050781 -46.878906 21.71875 -47.953125 C 21.382812 -49.035156 20.757812 -49.832031 19.84375 -50.34375 C 18.925781 -50.851562 17.5625 -51.179688 15.75 -51.328125 C 15.019531 -51.398438 14.304688 -51.414062 13.609375 -51.375 C 12.910156 -51.34375 12.15625 -51.289062 11.34375 -51.21875 Z M 10.765625 -5.515625 C 15.015625 -5.410156 18.1875 -6.164062 20.28125 -7.78125 C 22.375 -9.394531 23.363281 -11.671875 23.25 -14.609375 C 23.175781 -16.492188 23.015625 -18.222656 22.765625 -19.796875 C 22.523438 -21.378906 22.140625 -22.742188 21.609375 -23.890625 C 21.085938 -25.046875 20.363281 -25.941406 19.4375 -26.578125 C 18.519531 -27.222656 17.34375 -27.546875 15.90625 -27.546875 C 14.238281 -27.546875 12.425781 -27.394531 10.46875 -27.09375 C 10.414062 -25.4375 10.375 -24.066406 10.34375 -22.984375 C 10.320312 -21.910156 10.3125 -21.128906 10.3125 -20.640625 C 10.3125 -15.890625 10.460938 -10.847656 10.765625 -5.515625 Z M 10.765625 -5.515625 "/></g></g></g><g fill="#ffffff" fill-opacity="1"><g transform="translate(513.888004, 67.499948)"><g><path d="M 4.4375 5.0625 C 4 4.875 3.53125 4.625 3.03125 4.3125 C 2.53125 4.007812 2.101562 3.632812 1.75 3.1875 C 1.394531 2.75 1.21875 2.25 1.21875 1.6875 C 1.21875 1.414062 1.46875 0.75 1.96875 -0.3125 C 2.46875 -1.375 3.109375 -2.726562 3.890625 -4.375 C 4.671875 -6.03125 5.476562 -7.878906 6.3125 -9.921875 C 6.90625 -11.335938 7.453125 -12.925781 7.953125 -14.6875 C 8.453125 -16.445312 8.875 -18.3125 9.21875 -20.28125 C 9.5625 -22.257812 9.78125 -24.265625 9.875 -26.296875 C 9.976562 -28.328125 9.914062 -30.296875 9.6875 -32.203125 C 9.375 -35.066406 8.882812 -37.832031 8.21875 -40.5 C 7.5625 -43.164062 6.828125 -45.800781 6.015625 -48.40625 C 5.210938 -51.019531 4.394531 -53.660156 3.5625 -56.328125 C 3.414062 -56.765625 3.445312 -57.21875 3.65625 -57.6875 C 3.863281 -58.15625 4.242188 -58.550781 4.796875 -58.875 C 5.347656 -59.207031 6.035156 -59.382812 6.859375 -59.40625 C 7.546875 -59.4375 8.21875 -58.914062 8.875 -57.84375 C 9.539062 -56.78125 10.195312 -55.351562 10.84375 -53.5625 C 11.5 -51.78125 12.128906 -49.773438 12.734375 -47.546875 C 13.378906 -45.296875 13.945312 -42.929688 14.4375 -40.453125 C 14.925781 -37.984375 15.316406 -35.597656 15.609375 -33.296875 C 15.898438 -31.003906 16.046875 -28.953125 16.046875 -27.140625 C 16.046875 -25.398438 15.914062 -23.5 15.65625 -21.4375 C 15.40625 -19.382812 15.039062 -17.285156 14.5625 -15.140625 C 14.082031 -13.003906 13.53125 -10.910156 12.90625 -8.859375 C 12.28125 -6.816406 11.613281 -4.910156 10.90625 -3.140625 C 10.195312 -1.367188 9.46875 0.164062 8.71875 1.46875 C 7.96875 2.769531 7.222656 3.75 6.484375 4.40625 C 5.753906 5.0625 5.070312 5.28125 4.4375 5.0625 Z M 4.4375 5.0625 "/></g></g></g></g></g><g transform="matrix(1, 0, 0, 1, 33, 257)"><g clip-path="url(#6d02fc3fd9)"><g fill="#000000" fill-opacity="1"><g transform="translate(0.917907, 67.900182)"><g><path d="M 12.078125 0.21875 C 10.242188 0.21875 8.804688 0.203125 7.765625 0.171875 C 6.722656 0.148438 5.984375 0.09375 5.546875 0 C 5.109375 -0.09375 4.890625 -0.265625 4.890625 -0.515625 C 4.765625 -11.015625 4.71875 -20.144531 4.75 -27.90625 C 4.789062 -35.664062 4.921875 -41.953125 5.140625 -46.765625 C 5.359375 -51.578125 5.664062 -54.765625 6.0625 -56.328125 C 6.0625 -56.691406 6.484375 -56.988281 7.328125 -57.21875 C 8.171875 -57.457031 9.273438 -57.632812 10.640625 -57.75 C 12.015625 -57.875 13.472656 -57.9375 15.015625 -57.9375 C 19.328125 -57.9375 22.554688 -56.75 24.703125 -54.375 C 26.859375 -52.007812 27.9375 -48.742188 27.9375 -44.578125 C 27.9375 -39.410156 26.078125 -35.296875 22.359375 -32.234375 C 24.953125 -30.742188 26.863281 -28.003906 28.09375 -24.015625 C 28.78125 -21.734375 29.125 -17.816406 29.125 -12.265625 C 29.125 -10.035156 28.6875 -8.125 27.8125 -6.53125 C 26.945312 -4.945312 25.734375 -3.65625 24.171875 -2.65625 C 22.617188 -1.664062 20.8125 -0.9375 18.75 -0.46875 C 16.695312 -0.0078125 14.472656 0.21875 12.078125 0.21875 Z M 10.765625 -34.296875 C 12.398438 -34.296875 13.910156 -34.554688 15.296875 -35.078125 C 16.679688 -35.609375 17.890625 -36.3125 18.921875 -37.1875 C 19.960938 -38.070312 20.769531 -39.066406 21.34375 -40.171875 C 21.925781 -41.273438 22.21875 -42.398438 22.21875 -43.546875 C 22.21875 -45.410156 22.050781 -46.878906 21.71875 -47.953125 C 21.382812 -49.035156 20.757812 -49.832031 19.84375 -50.34375 C 18.925781 -50.851562 17.5625 -51.179688 15.75 -51.328125 C 15.019531 -51.398438 14.304688 -51.414062 13.609375 -51.375 C 12.910156 -51.34375 12.15625 -51.289062 11.34375 -51.21875 Z M 10.765625 -5.515625 C 15.015625 -5.410156 18.1875 -6.164062 20.28125 -7.78125 C 22.375 -9.394531 23.363281 -11.671875 23.25 -14.609375 C 23.175781 -16.492188 23.015625 -18.222656 22.765625 -19.796875 C 22.523438 -21.378906 22.140625 -22.742188 21.609375 -23.890625 C 21.085938 -25.046875 20.363281 -25.941406 19.4375 -26.578125 C 18.519531 -27.222656 17.34375 -27.546875 15.90625 -27.546875 C 14.238281 -27.546875 12.425781 -27.394531 10.46875 -27.09375 C 10.414062 -25.4375 10.375 -24.066406 10.34375 -22.984375 C 10.320312 -21.910156 10.3125 -21.128906 10.3125 -20.640625 C 10.3125 -15.890625 10.460938 -10.847656 10.765625 -5.515625 Z M 10.765625 -5.515625 "/></g></g></g><g fill="#000000" fill-opacity="1"><g transform="translate(35.321949, 67.900182)"><g><path d="M 6.640625 1.5 C 5.734375 1.5 4.992188 1.390625 4.421875 1.171875 C 3.847656 0.953125 3.5625 0.625 3.5625 0.1875 C 3.5625 -3.21875 3.640625 -7.554688 3.796875 -12.828125 C 3.960938 -18.109375 4.128906 -24.519531 4.296875 -32.0625 C 4.367188 -34.800781 4.363281 -37.039062 4.28125 -38.78125 C 4.195312 -40.519531 4.097656 -41.914062 3.984375 -42.96875 C 3.867188 -44.019531 3.773438 -44.847656 3.703125 -45.453125 C 3.660156 -46.316406 3.859375 -46.90625 4.296875 -47.21875 C 4.734375 -47.539062 5.367188 -47.703125 6.203125 -47.703125 L 8.109375 -47.703125 C 9.160156 -47.703125 9.875 -47.0625 10.25 -45.78125 C 10.632812 -44.507812 10.835938 -42.703125 10.859375 -40.359375 C 10.890625 -38.023438 10.90625 -35.257812 10.90625 -32.0625 C 10.90625 -30.613281 10.851562 -28.453125 10.75 -25.578125 C 10.65625 -22.703125 10.554688 -19.207031 10.453125 -15.09375 C 10.359375 -10.976562 10.3125 -6.328125 10.3125 -1.140625 C 10.3125 0.328125 9.085938 1.207031 6.640625 1.5 Z M 6.640625 1.5 "/></g></g></g><g fill="#000000" fill-opacity="1"><g transform="translate(51.477527, 67.900182)"><g><path d="M 7.375 1.546875 C 6.375 1.546875 5.5 1.472656 4.75 1.328125 C 4.007812 1.179688 3.472656 0.859375 3.140625 0.359375 C 2.804688 -0.128906 2.75 -0.863281 2.96875 -1.84375 C 3.019531 -2.007812 3.171875 -2.691406 3.421875 -3.890625 C 3.679688 -5.085938 4.117188 -6.859375 4.734375 -9.203125 C 5.347656 -11.554688 6.179688 -14.535156 7.234375 -18.140625 C 9.046875 -24.234375 10.664062 -29.304688 12.09375 -33.359375 C 13.53125 -37.410156 14.601562 -40.515625 15.3125 -42.671875 L 5.765625 -42.671875 C 4.492188 -42.671875 3.613281 -42.851562 3.125 -43.21875 C 2.632812 -43.582031 2.390625 -44.132812 2.390625 -44.875 C 2.390625 -46.238281 2.5625 -47.265625 2.90625 -47.953125 C 3.25 -48.640625 3.875 -48.984375 4.78125 -48.984375 L 17.8125 -48.984375 C 21.132812 -48.984375 22.796875 -47.804688 22.796875 -45.453125 C 22.796875 -44.523438 22.375 -42.882812 21.53125 -40.53125 C 20.6875 -38.1875 19.546875 -34.929688 18.109375 -30.765625 C 16.898438 -27.296875 15.65625 -23.378906 14.375 -19.015625 C 13.09375 -14.660156 11.691406 -9.914062 10.171875 -4.78125 C 12.765625 -4.96875 15 -5.109375 16.875 -5.203125 C 18.75 -5.304688 20.503906 -5.359375 22.140625 -5.359375 C 22.828125 -5.378906 23.253906 -5.191406 23.421875 -4.796875 C 23.597656 -4.410156 23.6875 -4.007812 23.6875 -3.59375 C 23.6875 -2.082031 23.550781 -0.941406 23.28125 -0.171875 C 23.007812 0.597656 22.546875 0.972656 21.890625 0.953125 C 17.941406 1.148438 14.796875 1.296875 12.453125 1.390625 C 10.117188 1.492188 8.425781 1.546875 7.375 1.546875 Z M 7.375 1.546875 "/></g></g></g><g fill="#000000" fill-opacity="1"><g transform="translate(79.345903, 67.900182)"><g><path d="M 5.4375 2.28125 C 4.625 2.28125 4.082031 1.59375 3.8125 0.21875 L 3.53125 -40.90625 C 3.53125 -42.8125 4.753906 -44.625 7.203125 -46.34375 C 11.460938 -48.300781 15.769531 -49.28125 20.125 -49.28125 L 22.171875 -49.28125 C 25.898438 -49.28125 27.765625 -47.320312 27.765625 -43.40625 C 28.347656 -39.488281 28.640625 -34.347656 28.640625 -27.984375 C 28.242188 -10.066406 27.898438 -1.109375 27.609375 -1.109375 C 26.898438 -0.316406 25.921875 0.078125 24.671875 0.078125 L 22.765625 0.078125 C 21.691406 0.078125 21.15625 -0.363281 21.15625 -1.25 C 21.226562 -2.207031 21.304688 -3.375 21.390625 -4.75 C 21.472656 -6.132812 21.566406 -7.878906 21.671875 -9.984375 C 21.785156 -12.085938 21.90625 -14.660156 22.03125 -17.703125 L 9.984375 -18.4375 C 9.984375 -17.769531 9.988281 -16.738281 10 -15.34375 C 10.019531 -13.945312 10.039062 -12.066406 10.0625 -9.703125 C 10.082031 -7.347656 10.109375 -4.382812 10.140625 -0.8125 C 10.179688 -0.394531 10.210938 -0.0507812 10.234375 0.21875 C 10.265625 0.488281 10.28125 0.6875 10.28125 0.8125 C 10.28125 1.789062 8.664062 2.28125 5.4375 2.28125 Z M 22.625 -23.875 L 22.90625 -34.4375 C 22.988281 -37.28125 22.726562 -39.410156 22.125 -40.828125 C 21.519531 -42.253906 20.65625 -42.96875 19.53125 -42.96875 C 19.289062 -43.007812 19.046875 -43.039062 18.796875 -43.0625 C 18.554688 -43.09375 18.3125 -43.109375 18.0625 -43.109375 C 15.570312 -43.109375 13.078125 -42.375 10.578125 -40.90625 C 9.890625 -40.144531 9.546875 -38.773438 9.546875 -36.796875 L 9.984375 -24.453125 Z M 22.625 -23.875 "/></g></g></g><g fill="#000000" fill-opacity="1"><g transform="translate(111.363321, 67.900182)"><g><path d="M 7.375 2.75 C 6.445312 2.75 5.757812 2.625 5.3125 2.375 C 4.875 2.132812 4.632812 1.671875 4.59375 0.984375 C 3.582031 -14.140625 2.847656 -30.195312 2.390625 -47.1875 C 2.390625 -48.0625 2.492188 -48.703125 2.703125 -49.109375 C 2.910156 -49.515625 3.296875 -49.753906 3.859375 -49.828125 C 6.617188 -50.117188 8.96875 -50.265625 10.90625 -50.265625 C 12.863281 -50.265625 14.582031 -49.878906 16.0625 -49.109375 C 17.539062 -48.335938 18.773438 -47.265625 19.765625 -45.890625 C 20.765625 -44.523438 21.519531 -42.9375 22.03125 -41.125 C 22.539062 -39.3125 22.796875 -37.363281 22.796875 -35.28125 C 22.796875 -29.800781 20.890625 -25.492188 17.078125 -22.359375 C 17.441406 -21.335938 17.929688 -20.085938 18.546875 -18.609375 C 19.160156 -17.140625 19.835938 -15.507812 20.578125 -13.71875 C 21.328125 -11.9375 22.117188 -10.078125 22.953125 -8.140625 C 23.785156 -6.210938 24.601562 -4.269531 25.40625 -2.3125 C 25.65625 -1.726562 25.6875 -1.191406 25.5 -0.703125 C 25.320312 -0.210938 25.007812 0.203125 24.5625 0.546875 C 24.125 0.890625 23.632812 1.144531 23.09375 1.3125 C 22.5625 1.488281 22.0625 1.554688 21.59375 1.515625 C 21.125 1.484375 20.78125 1.320312 20.5625 1.03125 C 20.363281 0.757812 20.046875 0.207031 19.609375 -0.625 C 19.171875 -1.457031 18.660156 -2.484375 18.078125 -3.703125 C 17.503906 -4.929688 16.898438 -6.257812 16.265625 -7.6875 C 15.628906 -9.125 14.992188 -10.578125 14.359375 -12.046875 C 13.722656 -13.515625 13.132812 -14.914062 12.59375 -16.25 C 12.050781 -17.582031 11.585938 -18.738281 11.203125 -19.71875 L 9.140625 -19.46875 L 10.46875 1.171875 C 10.46875 1.765625 10.1875 2.175781 9.625 2.40625 C 9.0625 2.632812 8.3125 2.75 7.375 2.75 Z M 8.703125 -26.03125 C 11.242188 -26.207031 13.273438 -27.078125 14.796875 -28.640625 C 16.316406 -30.203125 17.078125 -32.613281 17.078125 -35.875 C 17.078125 -38.789062 16.390625 -40.957031 15.015625 -42.375 C 13.648438 -43.789062 11.398438 -44.316406 8.265625 -43.953125 C 8.210938 -42.085938 8.191406 -40.117188 8.203125 -38.046875 C 8.210938 -35.984375 8.265625 -33.929688 8.359375 -31.890625 C 8.460938 -29.847656 8.578125 -27.894531 8.703125 -26.03125 Z M 8.703125 -26.03125 "/></g></g></g><g fill="#000000" fill-opacity="1"><g transform="translate(139.048107, 67.900182)"><g><path d="M 7.375 2.75 C 6.445312 2.75 5.757812 2.625 5.3125 2.375 C 4.875 2.132812 4.632812 1.671875 4.59375 0.984375 C 3.582031 -14.140625 2.847656 -30.195312 2.390625 -47.1875 C 2.390625 -48.0625 2.492188 -48.703125 2.703125 -49.109375 C 2.910156 -49.515625 3.296875 -49.753906 3.859375 -49.828125 C 6.617188 -50.117188 8.96875 -50.265625 10.90625 -50.265625 C 12.863281 -50.265625 14.582031 -49.878906 16.0625 -49.109375 C 17.539062 -48.335938 18.773438 -47.265625 19.765625 -45.890625 C 20.765625 -44.523438 21.519531 -42.9375 22.03125 -41.125 C 22.539062 -39.3125 22.796875 -37.363281 22.796875 -35.28125 C 22.796875 -29.800781 20.890625 -25.492188 17.078125 -22.359375 C 17.441406 -21.335938 17.929688 -20.085938 18.546875 -18.609375 C 19.160156 -17.140625 19.835938 -15.507812 20.578125 -13.71875 C 21.328125 -11.9375 22.117188 -10.078125 22.953125 -8.140625 C 23.785156 -6.210938 24.601562 -4.269531 25.40625 -2.3125 C 25.65625 -1.726562 25.6875 -1.191406 25.5 -0.703125 C 25.320312 -0.210938 25.007812 0.203125 24.5625 0.546875 C 24.125 0.890625 23.632812 1.144531 23.09375 1.3125 C 22.5625 1.488281 22.0625 1.554688 21.59375 1.515625 C 21.125 1.484375 20.78125 1.320312 20.5625 1.03125 C 20.363281 0.757812 20.046875 0.207031 19.609375 -0.625 C 19.171875 -1.457031 18.660156 -2.484375 18.078125 -3.703125 C 17.503906 -4.929688 16.898438 -6.257812 16.265625 -7.6875 C 15.628906 -9.125 14.992188 -10.578125 14.359375 -12.046875 C 13.722656 -13.515625 13.132812 -14.914062 12.59375 -16.25 C 12.050781 -17.582031 11.585938 -18.738281 11.203125 -19.71875 L 9.140625 -19.46875 L 10.46875 1.171875 C 10.46875 1.765625 10.1875 2.175781 9.625 2.40625 C 9.0625 2.632812 8.3125 2.75 7.375 2.75 Z M 8.703125 -26.03125 C 11.242188 -26.207031 13.273438 -27.078125 14.796875 -28.640625 C 16.316406 -30.203125 17.078125 -32.613281 17.078125 -35.875 C 17.078125 -38.789062 16.390625 -40.957031 15.015625 -42.375 C 13.648438 -43.789062 11.398438 -44.316406 8.265625 -43.953125 C 8.210938 -42.085938 8.191406 -40.117188 8.203125 -38.046875 C 8.210938 -35.984375 8.265625 -33.929688 8.359375 -31.890625 C 8.460938 -29.847656 8.578125 -27.894531 8.703125 -26.03125 Z M 8.703125 -26.03125 "/></g></g></g><g fill="#000000" fill-opacity="1"><g transform="translate(166.732902, 67.900182)"><g><path d="M 7.203125 1.359375 C 6.117188 1.359375 5.304688 1.265625 4.765625 1.078125 C 4.234375 0.898438 3.96875 0.457031 3.96875 -0.25 C 3.769531 -3.832031 3.601562 -7.53125 3.46875 -11.34375 C 3.332031 -15.164062 3.300781 -19.109375 3.375 -23.171875 C 3.425781 -26.328125 3.488281 -29.3125 3.5625 -32.125 C 3.632812 -34.945312 3.738281 -37.457031 3.875 -39.65625 C 4.007812 -41.863281 4.1875 -43.648438 4.40625 -45.015625 C 4.625 -46.390625 4.90625 -47.222656 5.25 -47.515625 C 5.613281 -47.835938 6.300781 -48.078125 7.3125 -48.234375 C 8.332031 -48.390625 9.796875 -48.476562 11.703125 -48.5 C 13.617188 -48.53125 16.09375 -48.519531 19.125 -48.46875 C 19.882812 -48.46875 20.472656 -48.394531 20.890625 -48.25 C 21.304688 -48.101562 21.597656 -47.789062 21.765625 -47.3125 C 21.941406 -46.832031 22.03125 -46.117188 22.03125 -45.171875 C 22.03125 -44.117188 21.925781 -43.359375 21.71875 -42.890625 C 21.507812 -42.421875 21.09375 -42.125 20.46875 -42 C 19.84375 -41.882812 18.894531 -41.828125 17.625 -41.828125 C 15.914062 -41.828125 13.566406 -41.679688 10.578125 -41.390625 C 10.578125 -40.304688 10.566406 -39.023438 10.546875 -37.546875 C 10.535156 -36.066406 10.523438 -34.53125 10.515625 -32.9375 C 10.503906 -31.34375 10.472656 -29.800781 10.421875 -28.3125 L 20.125 -29.046875 C 20.957031 -29.140625 21.429688 -28.867188 21.546875 -28.234375 C 21.671875 -27.597656 21.734375 -26.691406 21.734375 -25.515625 C 21.734375 -24.460938 21.597656 -23.765625 21.328125 -23.421875 C 21.066406 -23.078125 20.46875 -22.847656 19.53125 -22.734375 C 19.164062 -22.679688 18.195312 -22.59375 16.625 -22.46875 C 15.0625 -22.351562 12.898438 -22.195312 10.140625 -22 L 10.421875 -5.546875 C 11.472656 -5.617188 12.988281 -5.703125 14.96875 -5.796875 C 16.957031 -5.898438 19.410156 -6.007812 22.328125 -6.125 C 22.910156 -6.125 23.300781 -5.875 23.5 -5.375 C 23.695312 -4.875 23.796875 -4.144531 23.796875 -3.1875 C 23.796875 -2.207031 23.710938 -1.472656 23.546875 -0.984375 C 23.390625 -0.492188 23.128906 -0.164062 22.765625 0 C 22.398438 0.164062 21.910156 0.273438 21.296875 0.328125 Z M 7.203125 1.359375 "/></g></g></g><g fill="#000000" fill-opacity="1"><g transform="translate(193.830203, 67.900182)"><g><path d="M 12.078125 0.21875 C 10.242188 0.21875 8.804688 0.203125 7.765625 0.171875 C 6.722656 0.148438 5.984375 0.09375 5.546875 0 C 5.109375 -0.09375 4.890625 -0.265625 4.890625 -0.515625 C 4.765625 -11.015625 4.71875 -20.144531 4.75 -27.90625 C 4.789062 -35.664062 4.921875 -41.953125 5.140625 -46.765625 C 5.359375 -51.578125 5.664062 -54.765625 6.0625 -56.328125 C 6.0625 -56.691406 6.484375 -56.988281 7.328125 -57.21875 C 8.171875 -57.457031 9.273438 -57.632812 10.640625 -57.75 C 12.015625 -57.875 13.472656 -57.9375 15.015625 -57.9375 C 19.328125 -57.9375 22.554688 -56.75 24.703125 -54.375 C 26.859375 -52.007812 27.9375 -48.742188 27.9375 -44.578125 C 27.9375 -39.410156 26.078125 -35.296875 22.359375 -32.234375 C 24.953125 -30.742188 26.863281 -28.003906 28.09375 -24.015625 C 28.78125 -21.734375 29.125 -17.816406 29.125 -12.265625 C 29.125 -10.035156 28.6875 -8.125 27.8125 -6.53125 C 26.945312 -4.945312 25.734375 -3.65625 24.171875 -2.65625 C 22.617188 -1.664062 20.8125 -0.9375 18.75 -0.46875 C 16.695312 -0.0078125 14.472656 0.21875 12.078125 0.21875 Z M 10.765625 -34.296875 C 12.398438 -34.296875 13.910156 -34.554688 15.296875 -35.078125 C 16.679688 -35.609375 17.890625 -36.3125 18.921875 -37.1875 C 19.960938 -38.070312 20.769531 -39.066406 21.34375 -40.171875 C 21.925781 -41.273438 22.21875 -42.398438 22.21875 -43.546875 C 22.21875 -45.410156 22.050781 -46.878906 21.71875 -47.953125 C 21.382812 -49.035156 20.757812 -49.832031 19.84375 -50.34375 C 18.925781 -50.851562 17.5625 -51.179688 15.75 -51.328125 C 15.019531 -51.398438 14.304688 -51.414062 13.609375 -51.375 C 12.910156 -51.34375 12.15625 -51.289062 11.34375 -51.21875 Z M 10.765625 -5.515625 C 15.015625 -5.410156 18.1875 -6.164062 20.28125 -7.78125 C 22.375 -9.394531 23.363281 -11.671875 23.25 -14.609375 C 23.175781 -16.492188 23.015625 -18.222656 22.765625 -19.796875 C 22.523438 -21.378906 22.140625 -22.742188 21.609375 -23.890625 C 21.085938 -25.046875 20.363281 -25.941406 19.4375 -26.578125 C 18.519531 -27.222656 17.34375 -27.546875 15.90625 -27.546875 C 14.238281 -27.546875 12.425781 -27.394531 10.46875 -27.09375 C 10.414062 -25.4375 10.375 -24.066406 10.34375 -22.984375 C 10.320312 -21.910156 10.3125 -21.128906 10.3125 -20.640625 C 10.3125 -15.890625 10.460938 -10.847656 10.765625 -5.515625 Z M 10.765625 -5.515625 "/></g></g></g><g fill="#000000" fill-opacity="1"><g transform="translate(228.234254, 67.900182)"><g><path d="M 7.203125 1.359375 C 6.117188 1.359375 5.304688 1.265625 4.765625 1.078125 C 4.234375 0.898438 3.96875 0.457031 3.96875 -0.25 C 3.769531 -3.832031 3.601562 -7.53125 3.46875 -11.34375 C 3.332031 -15.164062 3.300781 -19.109375 3.375 -23.171875 C 3.425781 -26.328125 3.488281 -29.3125 3.5625 -32.125 C 3.632812 -34.945312 3.738281 -37.457031 3.875 -39.65625 C 4.007812 -41.863281 4.1875 -43.648438 4.40625 -45.015625 C 4.625 -46.390625 4.90625 -47.222656 5.25 -47.515625 C 5.613281 -47.835938 6.300781 -48.078125 7.3125 -48.234375 C 8.332031 -48.390625 9.796875 -48.476562 11.703125 -48.5 C 13.617188 -48.53125 16.09375 -48.519531 19.125 -48.46875 C 19.882812 -48.46875 20.472656 -48.394531 20.890625 -48.25 C 21.304688 -48.101562 21.597656 -47.789062 21.765625 -47.3125 C 21.941406 -46.832031 22.03125 -46.117188 22.03125 -45.171875 C 22.03125 -44.117188 21.925781 -43.359375 21.71875 -42.890625 C 21.507812 -42.421875 21.09375 -42.125 20.46875 -42 C 19.84375 -41.882812 18.894531 -41.828125 17.625 -41.828125 C 15.914062 -41.828125 13.566406 -41.679688 10.578125 -41.390625 C 10.578125 -40.304688 10.566406 -39.023438 10.546875 -37.546875 C 10.535156 -36.066406 10.523438 -34.53125 10.515625 -32.9375 C 10.503906 -31.34375 10.472656 -29.800781 10.421875 -28.3125 L 20.125 -29.046875 C 20.957031 -29.140625 21.429688 -28.867188 21.546875 -28.234375 C 21.671875 -27.597656 21.734375 -26.691406 21.734375 -25.515625 C 21.734375 -24.460938 21.597656 -23.765625 21.328125 -23.421875 C 21.066406 -23.078125 20.46875 -22.847656 19.53125 -22.734375 C 19.164062 -22.679688 18.195312 -22.59375 16.625 -22.46875 C 15.0625 -22.351562 12.898438 -22.195312 10.140625 -22 L 10.421875 -5.546875 C 11.472656 -5.617188 12.988281 -5.703125 14.96875 -5.796875 C 16.957031 -5.898438 19.410156 -6.007812 22.328125 -6.125 C 22.910156 -6.125 23.300781 -5.875 23.5 -5.375 C 23.695312 -4.875 23.796875 -4.144531 23.796875 -3.1875 C 23.796875 -2.207031 23.710938 -1.472656 23.546875 -0.984375 C 23.390625 -0.492188 23.128906 -0.164062 22.765625 0 C 22.398438 0.164062 21.910156 0.273438 21.296875 0.328125 Z M 7.203125 1.359375 "/></g></g></g><g fill="#000000" fill-opacity="1"><g transform="translate(255.331555, 67.900182)"><g><path d="M 5.4375 2.28125 C 4.625 2.28125 4.082031 1.59375 3.8125 0.21875 L 3.53125 -40.90625 C 3.53125 -42.8125 4.753906 -44.625 7.203125 -46.34375 C 11.460938 -48.300781 15.769531 -49.28125 20.125 -49.28125 L 22.171875 -49.28125 C 25.898438 -49.28125 27.765625 -47.320312 27.765625 -43.40625 C 28.347656 -39.488281 28.640625 -34.347656 28.640625 -27.984375 C 28.242188 -10.066406 27.898438 -1.109375 27.609375 -1.109375 C 26.898438 -0.316406 25.921875 0.078125 24.671875 0.078125 L 22.765625 0.078125 C 21.691406 0.078125 21.15625 -0.363281 21.15625 -1.25 C 21.226562 -2.207031 21.304688 -3.375 21.390625 -4.75 C 21.472656 -6.132812 21.566406 -7.878906 21.671875 -9.984375 C 21.785156 -12.085938 21.90625 -14.660156 22.03125 -17.703125 L 9.984375 -18.4375 C 9.984375 -17.769531 9.988281 -16.738281 10 -15.34375 C 10.019531 -13.945312 10.039062 -12.066406 10.0625 -9.703125 C 10.082031 -7.347656 10.109375 -4.382812 10.140625 -0.8125 C 10.179688 -0.394531 10.210938 -0.0507812 10.234375 0.21875 C 10.265625 0.488281 10.28125 0.6875 10.28125 0.8125 C 10.28125 1.789062 8.664062 2.28125 5.4375 2.28125 Z M 22.625 -23.875 L 22.90625 -34.4375 C 22.988281 -37.28125 22.726562 -39.410156 22.125 -40.828125 C 21.519531 -42.253906 20.65625 -42.96875 19.53125 -42.96875 C 19.289062 -43.007812 19.046875 -43.039062 18.796875 -43.0625 C 18.554688 -43.09375 18.3125 -43.109375 18.0625 -43.109375 C 15.570312 -43.109375 13.078125 -42.375 10.578125 -40.90625 C 9.890625 -40.144531 9.546875 -38.773438 9.546875 -36.796875 L 9.984375 -24.453125 Z M 22.625 -23.875 "/></g></g></g><g fill="#000000" fill-opacity="1"><g transform="translate(287.348974, 67.900182)"><g><path d="M 13.078125 2.3125 C 9.472656 2.4375 6.835938 1.273438 5.171875 -1.171875 C 3.515625 -3.617188 2.734375 -7.660156 2.828125 -13.296875 C 2.847656 -14.367188 2.96875 -15.195312 3.1875 -15.78125 C 3.414062 -16.375 3.8125 -16.773438 4.375 -16.984375 C 4.9375 -17.191406 5.726562 -17.285156 6.75 -17.265625 C 7.539062 -17.234375 8.132812 -17.015625 8.53125 -16.609375 C 8.9375 -16.210938 9.15625 -15.707031 9.1875 -15.09375 C 9.15625 -13.570312 9.179688 -12.164062 9.265625 -10.875 C 9.359375 -9.59375 9.566406 -8.476562 9.890625 -7.53125 C 10.222656 -6.59375 10.738281 -5.875 11.4375 -5.375 C 12.132812 -4.875 13.082031 -4.648438 14.28125 -4.703125 C 15.207031 -4.753906 15.800781 -5.171875 16.0625 -5.953125 C 16.320312 -6.734375 16.460938 -7.992188 16.484375 -9.734375 C 16.535156 -11.765625 16.332031 -13.523438 15.875 -15.015625 C 15.425781 -16.515625 14.859375 -17.773438 14.171875 -18.796875 C 13.484375 -19.828125 12.800781 -20.632812 12.125 -21.21875 C 10.875 -22.320312 9.726562 -23.367188 8.6875 -24.359375 C 7.644531 -25.347656 6.738281 -26.375 5.96875 -27.4375 C 5.195312 -28.507812 4.585938 -29.6875 4.140625 -30.96875 C 3.703125 -32.257812 3.445312 -33.734375 3.375 -35.390625 C 3.300781 -37.890625 3.332031 -40.007812 3.46875 -41.75 C 3.601562 -43.488281 3.984375 -44.914062 4.609375 -46.03125 C 5.234375 -47.144531 6.210938 -48.003906 7.546875 -48.609375 C 8.878906 -49.222656 10.695312 -49.65625 13 -49.90625 C 15.101562 -50.125 16.78125 -49.90625 18.03125 -49.25 C 19.28125 -48.601562 20.234375 -47.628906 20.890625 -46.328125 C 21.554688 -45.035156 22.035156 -43.507812 22.328125 -41.75 C 22.617188 -39.988281 22.863281 -38.101562 23.0625 -36.09375 C 23.1875 -34.914062 23.015625 -34.023438 22.546875 -33.421875 C 22.078125 -32.828125 21.40625 -32.503906 20.53125 -32.453125 C 19.25 -32.429688 18.320312 -32.5625 17.75 -32.84375 C 17.175781 -33.125 16.828125 -33.597656 16.703125 -34.265625 C 16.609375 -35.503906 16.515625 -36.6875 16.421875 -37.8125 C 16.335938 -38.945312 16.1875 -39.941406 15.96875 -40.796875 C 15.75 -41.648438 15.394531 -42.285156 14.90625 -42.703125 C 14.414062 -43.117188 13.734375 -43.226562 12.859375 -43.03125 C 11.828125 -42.789062 10.984375 -42.320312 10.328125 -41.625 C 9.679688 -40.925781 9.421875 -39.78125 9.546875 -38.1875 C 9.671875 -36.8125 9.882812 -35.628906 10.1875 -34.640625 C 10.5 -33.648438 10.957031 -32.71875 11.5625 -31.84375 C 12.175781 -30.976562 12.96875 -30.0625 13.9375 -29.09375 C 14.90625 -28.132812 16.097656 -26.992188 17.515625 -25.671875 C 18.710938 -24.546875 19.6875 -23.285156 20.4375 -21.890625 C 21.1875 -20.492188 21.753906 -19.046875 22.140625 -17.546875 C 22.535156 -16.054688 22.785156 -14.609375 22.890625 -13.203125 C 23.003906 -11.796875 23.007812 -10.53125 22.90625 -9.40625 C 22.832031 -8.539062 22.738281 -7.585938 22.625 -6.546875 C 22.519531 -5.515625 22.300781 -4.476562 21.96875 -3.4375 C 21.644531 -2.394531 21.144531 -1.4375 20.46875 -0.5625 C 19.800781 0.300781 18.878906 0.992188 17.703125 1.515625 C 16.523438 2.046875 15.03125 2.3125 13.21875 2.3125 Z M 13.078125 2.3125 "/></g></g></g><g fill="#000000" fill-opacity="1"><g transform="translate(312.940891, 67.900182)"><g><path d="M 15.09375 1.6875 C 13.625 1.664062 12.65625 1.535156 12.1875 1.296875 C 11.726562 1.066406 11.5 0.632812 11.5 0 C 11.5 -0.21875 11.503906 -0.742188 11.515625 -1.578125 C 11.523438 -2.410156 11.535156 -3.414062 11.546875 -4.59375 C 11.554688 -5.769531 11.566406 -6.96875 11.578125 -8.1875 C 11.597656 -9.414062 11.609375 -10.519531 11.609375 -11.5 C 11.609375 -12.082031 11.597656 -12.921875 11.578125 -14.015625 C 11.566406 -15.117188 11.550781 -16.34375 11.53125 -17.6875 C 11.507812 -19.039062 11.484375 -20.382812 11.453125 -21.71875 C 11.429688 -23.050781 11.414062 -24.25 11.40625 -25.3125 C 11.394531 -26.382812 11.390625 -27.175781 11.390625 -27.6875 C 11.390625 -29.84375 11.441406 -32.160156 11.546875 -34.640625 C 11.660156 -37.128906 11.8125 -39.789062 12 -42.625 L 3.484375 -42.015625 C 2.503906 -42.015625 2.015625 -42.625 2.015625 -43.84375 L 2.015625 -46.59375 C 2.015625 -47.75 2.429688 -48.375 3.265625 -48.46875 C 11.171875 -49.0625 18.160156 -49.359375 24.234375 -49.359375 C 26.023438 -49.359375 27.320312 -49.273438 28.125 -49.109375 C 28.9375 -48.953125 29.34375 -48.410156 29.34375 -47.484375 L 29.34375 -45.28125 C 29.34375 -44.738281 29.222656 -44.289062 28.984375 -43.9375 C 28.753906 -43.582031 28.347656 -43.40625 27.765625 -43.40625 L 18.84375 -42.96875 C 18.46875 -36.113281 18.28125 -30.601562 18.28125 -26.4375 C 18.28125 -25.925781 18.285156 -25.21875 18.296875 -24.3125 C 18.316406 -23.40625 18.335938 -22.398438 18.359375 -21.296875 C 18.378906 -20.191406 18.394531 -19.09375 18.40625 -18 C 18.425781 -16.914062 18.441406 -15.921875 18.453125 -15.015625 C 18.460938 -14.109375 18.46875 -13.390625 18.46875 -12.859375 C 18.46875 -10.921875 18.460938 -8.878906 18.453125 -6.734375 C 18.441406 -4.597656 18.375 -2.179688 18.25 0.515625 C 18.226562 1.296875 17.175781 1.6875 15.09375 1.6875 Z M 15.09375 1.6875 "/></g></g></g><g fill="#000000" fill-opacity="1"><g transform="translate(344.077096, 67.900182)"><g><path d="M 13.078125 2.3125 C 9.472656 2.4375 6.835938 1.273438 5.171875 -1.171875 C 3.515625 -3.617188 2.734375 -7.660156 2.828125 -13.296875 C 2.847656 -14.367188 2.96875 -15.195312 3.1875 -15.78125 C 3.414062 -16.375 3.8125 -16.773438 4.375 -16.984375 C 4.9375 -17.191406 5.726562 -17.285156 6.75 -17.265625 C 7.539062 -17.234375 8.132812 -17.015625 8.53125 -16.609375 C 8.9375 -16.210938 9.15625 -15.707031 9.1875 -15.09375 C 9.15625 -13.570312 9.179688 -12.164062 9.265625 -10.875 C 9.359375 -9.59375 9.566406 -8.476562 9.890625 -7.53125 C 10.222656 -6.59375 10.738281 -5.875 11.4375 -5.375 C 12.132812 -4.875 13.082031 -4.648438 14.28125 -4.703125 C 15.207031 -4.753906 15.800781 -5.171875 16.0625 -5.953125 C 16.320312 -6.734375 16.460938 -7.992188 16.484375 -9.734375 C 16.535156 -11.765625 16.332031 -13.523438 15.875 -15.015625 C 15.425781 -16.515625 14.859375 -17.773438 14.171875 -18.796875 C 13.484375 -19.828125 12.800781 -20.632812 12.125 -21.21875 C 10.875 -22.320312 9.726562 -23.367188 8.6875 -24.359375 C 7.644531 -25.347656 6.738281 -26.375 5.96875 -27.4375 C 5.195312 -28.507812 4.585938 -29.6875 4.140625 -30.96875 C 3.703125 -32.257812 3.445312 -33.734375 3.375 -35.390625 C 3.300781 -37.890625 3.332031 -40.007812 3.46875 -41.75 C 3.601562 -43.488281 3.984375 -44.914062 4.609375 -46.03125 C 5.234375 -47.144531 6.210938 -48.003906 7.546875 -48.609375 C 8.878906 -49.222656 10.695312 -49.65625 13 -49.90625 C 15.101562 -50.125 16.78125 -49.90625 18.03125 -49.25 C 19.28125 -48.601562 20.234375 -47.628906 20.890625 -46.328125 C 21.554688 -45.035156 22.035156 -43.507812 22.328125 -41.75 C 22.617188 -39.988281 22.863281 -38.101562 23.0625 -36.09375 C 23.1875 -34.914062 23.015625 -34.023438 22.546875 -33.421875 C 22.078125 -32.828125 21.40625 -32.503906 20.53125 -32.453125 C 19.25 -32.429688 18.320312 -32.5625 17.75 -32.84375 C 17.175781 -33.125 16.828125 -33.597656 16.703125 -34.265625 C 16.609375 -35.503906 16.515625 -36.6875 16.421875 -37.8125 C 16.335938 -38.945312 16.1875 -39.941406 15.96875 -40.796875 C 15.75 -41.648438 15.394531 -42.285156 14.90625 -42.703125 C 14.414062 -43.117188 13.734375 -43.226562 12.859375 -43.03125 C 11.828125 -42.789062 10.984375 -42.320312 10.328125 -41.625 C 9.679688 -40.925781 9.421875 -39.78125 9.546875 -38.1875 C 9.671875 -36.8125 9.882812 -35.628906 10.1875 -34.640625 C 10.5 -33.648438 10.957031 -32.71875 11.5625 -31.84375 C 12.175781 -30.976562 12.96875 -30.0625 13.9375 -29.09375 C 14.90625 -28.132812 16.097656 -26.992188 17.515625 -25.671875 C 18.710938 -24.546875 19.6875 -23.285156 20.4375 -21.890625 C 21.1875 -20.492188 21.753906 -19.046875 22.140625 -17.546875 C 22.535156 -16.054688 22.785156 -14.609375 22.890625 -13.203125 C 23.003906 -11.796875 23.007812 -10.53125 22.90625 -9.40625 C 22.832031 -8.539062 22.738281 -7.585938 22.625 -6.546875 C 22.519531 -5.515625 22.300781 -4.476562 21.96875 -3.4375 C 21.644531 -2.394531 21.144531 -1.4375 20.46875 -0.5625 C 19.800781 0.300781 18.878906 0.992188 17.703125 1.515625 C 16.523438 2.046875 15.03125 2.3125 13.21875 2.3125 Z M 13.078125 2.3125 "/></g></g></g><g fill="#000000" fill-opacity="1"><g transform="translate(369.669014, 67.900182)"><g/></g></g><g fill="#000000" fill-opacity="1"><g transform="translate(388.321344, 67.900182)"><g><path d="M 13.875 5 C 13.238281 4.945312 12.613281 4.503906 12 3.671875 C 11.394531 2.835938 10.8125 1.71875 10.25 0.3125 C 9.6875 -1.09375 9.164062 -2.6875 8.6875 -4.46875 C 8.207031 -6.257812 7.769531 -8.132812 7.375 -10.09375 C 6.988281 -12.050781 6.65625 -14 6.375 -15.9375 C 6.09375 -17.875 5.878906 -19.695312 5.734375 -21.40625 C 5.585938 -23.125 5.515625 -24.601562 5.515625 -25.84375 C 5.515625 -37.550781 9.085938 -48.128906 16.234375 -57.578125 C 16.378906 -57.742188 16.59375 -57.882812 16.875 -58 C 17.15625 -58.113281 17.566406 -58.117188 18.109375 -58.015625 C 18.835938 -57.890625 19.460938 -57.640625 19.984375 -57.265625 C 20.515625 -56.890625 20.890625 -56.457031 21.109375 -55.96875 C 21.328125 -55.476562 21.316406 -54.988281 21.078125 -54.5 C 19.191406 -51.019531 17.625 -48.128906 16.375 -45.828125 C 15.125 -43.523438 14.289062 -41.765625 13.875 -40.546875 C 13.070312 -38.015625 12.476562 -35.425781 12.09375 -32.78125 C 11.71875 -30.144531 11.53125 -27.441406 11.53125 -24.671875 C 11.53125 -21.316406 11.75 -18.300781 12.1875 -15.625 C 12.632812 -12.945312 13.1875 -10.597656 13.84375 -8.578125 C 14.5 -6.554688 15.164062 -4.851562 15.84375 -3.46875 C 16.519531 -2.082031 17.085938 -0.992188 17.546875 -0.203125 C 18.015625 0.585938 18.257812 1.097656 18.28125 1.328125 C 18.382812 2.035156 18.257812 2.675781 17.90625 3.25 C 17.550781 3.820312 17.023438 4.265625 16.328125 4.578125 C 15.628906 4.898438 14.8125 5.039062 13.875 5 Z M 13.875 5 "/></g></g></g><g fill="#000000" fill-opacity="1"><g transform="translate(410.498528, 67.900182)"><g><path d="M 17.40625 5.65625 C 15.738281 5.582031 14.90625 5.046875 14.90625 4.046875 L 14.90625 1.546875 C 14.707031 1.492188 14.289062 1.410156 13.65625 1.296875 C 13.019531 1.191406 12.265625 1.03125 11.390625 0.8125 C 9.503906 0.34375 7.976562 -0.539062 6.8125 -1.84375 C 5.644531 -3.15625 4.789062 -4.710938 4.25 -6.515625 C 3.71875 -8.316406 3.453125 -10.1875 3.453125 -12.125 C 3.453125 -14.519531 3.5625 -16.453125 3.78125 -17.921875 C 4 -19.390625 4.390625 -20.453125 4.953125 -21.109375 C 5.515625 -21.773438 6.285156 -22.109375 7.265625 -22.109375 L 9.03125 -22.109375 C 9.46875 -22.109375 9.804688 -21.988281 10.046875 -21.75 C 10.296875 -21.519531 10.398438 -21.195312 10.359375 -20.78125 C 10.109375 -19.070312 9.921875 -17.59375 9.796875 -16.34375 C 9.679688 -15.09375 9.625 -14.078125 9.625 -13.296875 C 9.625 -11.304688 9.765625 -9.75 10.046875 -8.625 C 10.328125 -7.5 10.835938 -6.648438 11.578125 -6.078125 C 12.328125 -5.503906 13.390625 -5.019531 14.765625 -4.625 C 14.660156 -8.226562 14.21875 -15.523438 13.4375 -26.515625 C 10.75 -26.515625 8.617188 -27.035156 7.046875 -28.078125 C 5.484375 -29.117188 4.367188 -30.8125 3.703125 -33.15625 C 3.046875 -35.507812 2.71875 -38.628906 2.71875 -42.515625 C 2.71875 -45.992188 2.925781 -48.742188 3.34375 -50.765625 C 3.757812 -52.785156 4.382812 -54.210938 5.21875 -55.046875 C 6.019531 -55.847656 7.039062 -56.554688 8.28125 -57.171875 C 9.519531 -57.785156 10.945312 -58.09375 12.5625 -58.09375 C 12.601562 -59.070312 12.632812 -59.847656 12.65625 -60.421875 C 12.6875 -60.992188 12.703125 -61.46875 12.703125 -61.84375 C 12.753906 -62.375 12.953125 -62.742188 13.296875 -62.953125 C 13.640625 -63.160156 14.082031 -63.273438 14.625 -63.296875 C 15.175781 -63.328125 15.757812 -63.304688 16.375 -63.234375 C 17.257812 -63.128906 17.921875 -62.976562 18.359375 -62.78125 C 18.796875 -62.59375 19.015625 -62.253906 19.015625 -61.765625 L 19.015625 -58.09375 C 20.878906 -58.09375 22.585938 -57.738281 24.140625 -57.03125 C 25.691406 -56.320312 26.921875 -55.253906 27.828125 -53.828125 C 28.171875 -53.316406 28.421875 -52.765625 28.578125 -52.171875 C 28.742188 -51.585938 28.859375 -50.867188 28.921875 -50.015625 C 28.984375 -49.160156 29.015625 -48.082031 29.015625 -46.78125 C 29.015625 -45.476562 29.015625 -43.863281 29.015625 -41.9375 C 29.015625 -40.363281 27.835938 -39.578125 25.484375 -39.578125 C 24.578125 -39.628906 23.910156 -39.734375 23.484375 -39.890625 C 23.054688 -40.054688 22.84375 -40.296875 22.84375 -40.609375 C 22.789062 -42.203125 22.75 -43.625 22.71875 -44.875 C 22.695312 -46.125 22.6875 -47.203125 22.6875 -48.109375 C 22.6875 -49.378906 22.554688 -50.328125 22.296875 -50.953125 C 22.046875 -51.578125 21.617188 -51.976562 21.015625 -52.15625 C 20.421875 -52.34375 19.609375 -52.410156 18.578125 -52.359375 C 18.722656 -47.335938 18.878906 -43.222656 19.046875 -40.015625 C 19.222656 -36.816406 19.363281 -34.429688 19.46875 -32.859375 C 21.882812 -32.859375 23.867188 -32.566406 25.421875 -31.984375 C 26.984375 -31.398438 28.191406 -30.503906 29.046875 -29.296875 C 29.898438 -28.097656 30.5 -26.59375 30.84375 -24.78125 C 31.1875 -22.96875 31.359375 -20.851562 31.359375 -18.4375 C 31.359375 -16.101562 31.226562 -13.914062 30.96875 -11.875 C 30.71875 -9.832031 30.242188 -7.976562 29.546875 -6.3125 C 28.847656 -4.644531 27.851562 -3.210938 26.5625 -2.015625 C 25.28125 -0.816406 23.597656 0.0859375 21.515625 0.703125 L 21.515625 3.59375 C 21.515625 4.28125 21.171875 4.804688 20.484375 5.171875 C 19.804688 5.546875 18.78125 5.707031 17.40625 5.65625 Z M 13 -32.828125 C 12.851562 -37.015625 12.742188 -40.710938 12.671875 -43.921875 C 12.597656 -47.128906 12.5625 -49.941406 12.5625 -52.359375 C 11.363281 -52.191406 10.441406 -51.800781 9.796875 -51.1875 C 9.160156 -50.570312 8.710938 -49.773438 8.453125 -48.796875 C 8.203125 -47.816406 8.070312 -46.65625 8.0625 -45.3125 C 8.050781 -43.96875 8.082031 -42.453125 8.15625 -40.765625 C 8.25 -38.753906 8.460938 -37.171875 8.796875 -36.015625 C 9.128906 -34.867188 9.632812 -34.050781 10.3125 -33.5625 C 11 -33.070312 11.894531 -32.828125 13 -32.828125 Z M 21.21875 -5.359375 C 22.269531 -5.867188 23.109375 -6.585938 23.734375 -7.515625 C 24.359375 -8.453125 24.800781 -9.691406 25.0625 -11.234375 C 25.320312 -12.773438 25.414062 -14.6875 25.34375 -16.96875 C 25.289062 -18.65625 25.210938 -20.09375 25.109375 -21.28125 C 25.015625 -22.46875 24.804688 -23.421875 24.484375 -24.140625 C 24.171875 -24.867188 23.660156 -25.394531 22.953125 -25.71875 C 22.242188 -26.050781 21.226562 -26.21875 19.90625 -26.21875 Z M 21.21875 -5.359375 "/></g></g></g><g fill="#000000" fill-opacity="1"><g transform="translate(445.379899, 67.900182)"><g><path d="M 12.078125 0.21875 C 10.242188 0.21875 8.804688 0.203125 7.765625 0.171875 C 6.722656 0.148438 5.984375 0.09375 5.546875 0 C 5.109375 -0.09375 4.890625 -0.265625 4.890625 -0.515625 C 4.765625 -11.015625 4.71875 -20.144531 4.75 -27.90625 C 4.789062 -35.664062 4.921875 -41.953125 5.140625 -46.765625 C 5.359375 -51.578125 5.664062 -54.765625 6.0625 -56.328125 C 6.0625 -56.691406 6.484375 -56.988281 7.328125 -57.21875 C 8.171875 -57.457031 9.273438 -57.632812 10.640625 -57.75 C 12.015625 -57.875 13.472656 -57.9375 15.015625 -57.9375 C 19.328125 -57.9375 22.554688 -56.75 24.703125 -54.375 C 26.859375 -52.007812 27.9375 -48.742188 27.9375 -44.578125 C 27.9375 -39.410156 26.078125 -35.296875 22.359375 -32.234375 C 24.953125 -30.742188 26.863281 -28.003906 28.09375 -24.015625 C 28.78125 -21.734375 29.125 -17.816406 29.125 -12.265625 C 29.125 -10.035156 28.6875 -8.125 27.8125 -6.53125 C 26.945312 -4.945312 25.734375 -3.65625 24.171875 -2.65625 C 22.617188 -1.664062 20.8125 -0.9375 18.75 -0.46875 C 16.695312 -0.0078125 14.472656 0.21875 12.078125 0.21875 Z M 10.765625 -34.296875 C 12.398438 -34.296875 13.910156 -34.554688 15.296875 -35.078125 C 16.679688 -35.609375 17.890625 -36.3125 18.921875 -37.1875 C 19.960938 -38.070312 20.769531 -39.066406 21.34375 -40.171875 C 21.925781 -41.273438 22.21875 -42.398438 22.21875 -43.546875 C 22.21875 -45.410156 22.050781 -46.878906 21.71875 -47.953125 C 21.382812 -49.035156 20.757812 -49.832031 19.84375 -50.34375 C 18.925781 -50.851562 17.5625 -51.179688 15.75 -51.328125 C 15.019531 -51.398438 14.304688 -51.414062 13.609375 -51.375 C 12.910156 -51.34375 12.15625 -51.289062 11.34375 -51.21875 Z M 10.765625 -5.515625 C 15.015625 -5.410156 18.1875 -6.164062 20.28125 -7.78125 C 22.375 -9.394531 23.363281 -11.671875 23.25 -14.609375 C 23.175781 -16.492188 23.015625 -18.222656 22.765625 -19.796875 C 22.523438 -21.378906 22.140625 -22.742188 21.609375 -23.890625 C 21.085938 -25.046875 20.363281 -25.941406 19.4375 -26.578125 C 18.519531 -27.222656 17.34375 -27.546875 15.90625 -27.546875 C 14.238281 -27.546875 12.425781 -27.394531 10.46875 -27.09375 C 10.414062 -25.4375 10.375 -24.066406 10.34375 -22.984375 C 10.320312 -21.910156 10.3125 -21.128906 10.3125 -20.640625 C 10.3125 -15.890625 10.460938 -10.847656 10.765625 -5.515625 Z M 10.765625 -5.515625 "/></g></g></g><g fill="#000000" fill-opacity="1"><g transform="translate(479.78395, 67.900182)"><g><path d="M 12.078125 0.21875 C 10.242188 0.21875 8.804688 0.203125 7.765625 0.171875 C 6.722656 0.148438 5.984375 0.09375 5.546875 0 C 5.109375 -0.09375 4.890625 -0.265625 4.890625 -0.515625 C 4.765625 -11.015625 4.71875 -20.144531 4.75 -27.90625 C 4.789062 -35.664062 4.921875 -41.953125 5.140625 -46.765625 C 5.359375 -51.578125 5.664062 -54.765625 6.0625 -56.328125 C 6.0625 -56.691406 6.484375 -56.988281 7.328125 -57.21875 C 8.171875 -57.457031 9.273438 -57.632812 10.640625 -57.75 C 12.015625 -57.875 13.472656 -57.9375 15.015625 -57.9375 C 19.328125 -57.9375 22.554688 -56.75 24.703125 -54.375 C 26.859375 -52.007812 27.9375 -48.742188 27.9375 -44.578125 C 27.9375 -39.410156 26.078125 -35.296875 22.359375 -32.234375 C 24.953125 -30.742188 26.863281 -28.003906 28.09375 -24.015625 C 28.78125 -21.734375 29.125 -17.816406 29.125 -12.265625 C 29.125 -10.035156 28.6875 -8.125 27.8125 -6.53125 C 26.945312 -4.945312 25.734375 -3.65625 24.171875 -2.65625 C 22.617188 -1.664062 20.8125 -0.9375 18.75 -0.46875 C 16.695312 -0.0078125 14.472656 0.21875 12.078125 0.21875 Z M 10.765625 -34.296875 C 12.398438 -34.296875 13.910156 -34.554688 15.296875 -35.078125 C 16.679688 -35.609375 17.890625 -36.3125 18.921875 -37.1875 C 19.960938 -38.070312 20.769531 -39.066406 21.34375 -40.171875 C 21.925781 -41.273438 22.21875 -42.398438 22.21875 -43.546875 C 22.21875 -45.410156 22.050781 -46.878906 21.71875 -47.953125 C 21.382812 -49.035156 20.757812 -49.832031 19.84375 -50.34375 C 18.925781 -50.851562 17.5625 -51.179688 15.75 -51.328125 C 15.019531 -51.398438 14.304688 -51.414062 13.609375 -51.375 C 12.910156 -51.34375 12.15625 -51.289062 11.34375 -51.21875 Z M 10.765625 -5.515625 C 15.015625 -5.410156 18.1875 -6.164062 20.28125 -7.78125 C 22.375 -9.394531 23.363281 -11.671875 23.25 -14.609375 C 23.175781 -16.492188 23.015625 -18.222656 22.765625 -19.796875 C 22.523438 -21.378906 22.140625 -22.742188 21.609375 -23.890625 C 21.085938 -25.046875 20.363281 -25.941406 19.4375 -26.578125 C 18.519531 -27.222656 17.34375 -27.546875 15.90625 -27.546875 C 14.238281 -27.546875 12.425781 -27.394531 10.46875 -27.09375 C 10.414062 -25.4375 10.375 -24.066406 10.34375 -22.984375 C 10.320312 -21.910156 10.3125 -21.128906 10.3125 -20.640625 C 10.3125 -15.890625 10.460938 -10.847656 10.765625 -5.515625 Z M 10.765625 -5.515625 "/></g></g></g><g fill="#000000" fill-opacity="1"><g transform="translate(514.188002, 67.900182)"><g><path d="M 4.4375 5.0625 C 4 4.875 3.53125 4.625 3.03125 4.3125 C 2.53125 4.007812 2.101562 3.632812 1.75 3.1875 C 1.394531 2.75 1.21875 2.25 1.21875 1.6875 C 1.21875 1.414062 1.46875 0.75 1.96875 -0.3125 C 2.46875 -1.375 3.109375 -2.726562 3.890625 -4.375 C 4.671875 -6.03125 5.476562 -7.878906 6.3125 -9.921875 C 6.90625 -11.335938 7.453125 -12.925781 7.953125 -14.6875 C 8.453125 -16.445312 8.875 -18.3125 9.21875 -20.28125 C 9.5625 -22.257812 9.78125 -24.265625 9.875 -26.296875 C 9.976562 -28.328125 9.914062 -30.296875 9.6875 -32.203125 C 9.375 -35.066406 8.882812 -37.832031 8.21875 -40.5 C 7.5625 -43.164062 6.828125 -45.800781 6.015625 -48.40625 C 5.210938 -51.019531 4.394531 -53.660156 3.5625 -56.328125 C 3.414062 -56.765625 3.445312 -57.21875 3.65625 -57.6875 C 3.863281 -58.15625 4.242188 -58.550781 4.796875 -58.875 C 5.347656 -59.207031 6.035156 -59.382812 6.859375 -59.40625 C 7.546875 -59.4375 8.21875 -58.914062 8.875 -57.84375 C 9.539062 -56.78125 10.195312 -55.351562 10.84375 -53.5625 C 11.5 -51.78125 12.128906 -49.773438 12.734375 -47.546875 C 13.378906 -45.296875 13.945312 -42.929688 14.4375 -40.453125 C 14.925781 -37.984375 15.316406 -35.597656 15.609375 -33.296875 C 15.898438 -31.003906 16.046875 -28.953125 16.046875 -27.140625 C 16.046875 -25.398438 15.914062 -23.5 15.65625 -21.4375 C 15.40625 -19.382812 15.039062 -17.285156 14.5625 -15.140625 C 14.082031 -13.003906 13.53125 -10.910156 12.90625 -8.859375 C 12.28125 -6.816406 11.613281 -4.910156 10.90625 -3.140625 C 10.195312 -1.367188 9.46875 0.164062 8.71875 1.46875 C 7.96875 2.769531 7.222656 3.75 6.484375 4.40625 C 5.753906 5.0625 5.070312 5.28125 4.4375 5.0625 Z M 4.4375 5.0625 "/></g></g></g></g></g><g clip-path="url(#77f8ee1a76)"><g clip-path="url(#92601d994e)"><path stroke-linecap="butt" transform="matrix(0.75, 0, 0, 0.75, 0.00576133, 233.840636)" fill="none" stroke-linejoin="miter" d="M 40.799614 -0.00105583 L 759.185108 -0.00105583 C 770.008025 -0.00105583 780.383026 4.301028 788.034069 11.95207 C 795.685111 19.603113 799.987195 29.978114 799.987195 40.801032 L 799.987195 135.623959 C 799.987195 146.441668 795.685111 156.821878 788.034069 164.47292 C 780.383026 172.123963 770.008025 176.420838 759.185108 176.420838 L 40.799614 176.420838 C 29.976696 176.420838 19.601695 172.123963 11.950653 164.47292 C 4.29961 156.821878 -0.00247343 146.441668 -0.00247343 135.623959 L -0.00247343 40.801032 C -0.00247343 29.978114 4.29961 19.603113 11.950653 11.95207 C 19.601695 4.301028 29.976696 -0.00105583 40.799614 -0.00105583 Z M 40.799614 -0.00105583 " stroke="#000000" stroke-width="12" stroke-opacity="1" stroke-miterlimit="4"/></g></g></svg>