<svg xmlns="http://www.w3.org/2000/svg" xmlns:xlink="http://www.w3.org/1999/xlink" width="800" zoomAndPan="magnify" viewBox="0 0 600 599.999999" height="800" preserveAspectRatio="xMidYMid meet" version="1.0"><defs><g/><clipPath id="600dac09cb"><path d="M 0.679688 0.589844 L 597.367188 0.589844 L 597.367188 132.160156 L 0.679688 132.160156 Z M 0.679688 0.589844 " clip-rule="nonzero"/></clipPath><clipPath id="041c209fee"><path d="M 38.929688 0.589844 L 559.070312 0.589844 C 569.214844 0.589844 578.945312 4.621094 586.117188 11.792969 C 593.289062 18.96875 597.320312 28.695312 597.320312 38.839844 L 597.320312 93.910156 C 597.320312 104.054688 593.289062 113.78125 586.117188 120.957031 C 578.945312 128.128906 569.214844 132.160156 559.070312 132.160156 L 38.929688 132.160156 C 28.785156 132.160156 19.054688 128.128906 11.882812 120.957031 C 4.710938 113.78125 0.679688 104.054688 0.679688 93.910156 L 0.679688 38.839844 C 0.679688 28.695312 4.710938 18.96875 11.882812 11.792969 C 19.054688 4.621094 28.785156 0.589844 38.929688 0.589844 Z M 38.929688 0.589844 " clip-rule="nonzero"/></clipPath><clipPath id="0489e99b5a"><path d="M 0.679688 0.589844 L 597.320312 0.589844 L 597.320312 132.160156 L 0.679688 132.160156 Z M 0.679688 0.589844 " clip-rule="nonzero"/></clipPath><clipPath id="92a4ec22b3"><path d="M 38.929688 0.589844 L 559.070312 0.589844 C 569.214844 0.589844 578.945312 4.621094 586.117188 11.792969 C 593.289062 18.96875 597.320312 28.695312 597.320312 38.839844 L 597.320312 93.910156 C 597.320312 104.054688 593.289062 113.78125 586.117188 120.957031 C 578.945312 128.128906 569.214844 132.160156 559.070312 132.160156 L 38.929688 132.160156 C 28.785156 132.160156 19.054688 128.128906 11.882812 120.957031 C 4.710938 113.78125 0.679688 104.054688 0.679688 93.910156 L 0.679688 38.839844 C 0.679688 28.695312 4.710938 18.96875 11.882812 11.792969 C 19.054688 4.621094 28.785156 0.589844 38.929688 0.589844 Z M 38.929688 0.589844 " clip-rule="nonzero"/></clipPath><linearGradient x1="226.229353" gradientTransform="matrix(0.513941, 0, 0, 0.513941, 0.678777, 0.590518)" y1="-226.226647" x2="934.682832" gradientUnits="userSpaceOnUse" y2="482.227852" id="9972381f26"><stop stop-opacity="1" stop-color="rgb(100%, 39.99939%, 76.858521%)" offset="0"/><stop stop-opacity="1" stop-color="rgb(100%, 40.182495%, 76.695251%)" offset="0.0078125"/><stop stop-opacity="1" stop-color="rgb(100%, 40.550232%, 76.367188%)" offset="0.015625"/><stop stop-opacity="1" stop-color="rgb(100%, 40.917969%, 76.039124%)" offset="0.0234375"/><stop stop-opacity="1" stop-color="rgb(100%, 41.285706%, 75.71106%)" offset="0.03125"/><stop stop-opacity="1" stop-color="rgb(100%, 41.653442%, 75.382996%)" offset="0.0390625"/><stop stop-opacity="1" stop-color="rgb(100%, 42.021179%, 75.054932%)" offset="0.046875"/><stop stop-opacity="1" stop-color="rgb(100%, 42.388916%, 74.728394%)" offset="0.0546875"/><stop stop-opacity="1" stop-color="rgb(100%, 42.756653%, 74.40033%)" offset="0.0625"/><stop stop-opacity="1" stop-color="rgb(100%, 43.12439%, 74.072266%)" offset="0.0703125"/><stop stop-opacity="1" stop-color="rgb(100%, 43.490601%, 73.744202%)" offset="0.078125"/><stop stop-opacity="1" stop-color="rgb(100%, 43.858337%, 73.416138%)" offset="0.0859375"/><stop stop-opacity="1" stop-color="rgb(100%, 44.226074%, 73.088074%)" offset="0.09375"/><stop stop-opacity="1" stop-color="rgb(100%, 44.593811%, 72.761536%)" offset="0.101562"/><stop stop-opacity="1" stop-color="rgb(100%, 44.961548%, 72.433472%)" offset="0.109375"/><stop stop-opacity="1" stop-color="rgb(100%, 45.329285%, 72.105408%)" offset="0.117187"/><stop stop-opacity="1" stop-color="rgb(100%, 45.697021%, 71.777344%)" offset="0.125"/><stop stop-opacity="1" stop-color="rgb(100%, 46.064758%, 71.44928%)" offset="0.132812"/><stop stop-opacity="1" stop-color="rgb(100%, 46.432495%, 71.121216%)" offset="0.140625"/><stop stop-opacity="1" stop-color="rgb(100%, 46.800232%, 70.794678%)" offset="0.148438"/><stop stop-opacity="1" stop-color="rgb(100%, 47.167969%, 70.466614%)" offset="0.15625"/><stop stop-opacity="1" stop-color="rgb(100%, 47.535706%, 70.13855%)" offset="0.164062"/><stop stop-opacity="1" stop-color="rgb(100%, 47.903442%, 69.810486%)" offset="0.171875"/><stop stop-opacity="1" stop-color="rgb(100%, 48.271179%, 69.482422%)" offset="0.179688"/><stop stop-opacity="1" stop-color="rgb(100%, 48.638916%, 69.154358%)" offset="0.180675"/><stop stop-opacity="1" stop-color="rgb(100%, 48.823547%, 68.991089%)" offset="0.1875"/><stop stop-opacity="1" stop-color="rgb(100%, 49.006653%, 68.82782%)" offset="0.195312"/><stop stop-opacity="1" stop-color="rgb(100%, 49.37439%, 68.499756%)" offset="0.203125"/><stop stop-opacity="1" stop-color="rgb(100%, 49.742126%, 68.171692%)" offset="0.210937"/><stop stop-opacity="1" stop-color="rgb(100%, 50.109863%, 67.843628%)" offset="0.21875"/><stop stop-opacity="1" stop-color="rgb(100%, 50.476074%, 67.515564%)" offset="0.226562"/><stop stop-opacity="1" stop-color="rgb(100%, 50.843811%, 67.1875%)" offset="0.234375"/><stop stop-opacity="1" stop-color="rgb(100%, 51.211548%, 66.860962%)" offset="0.242188"/><stop stop-opacity="1" stop-color="rgb(100%, 51.579285%, 66.532898%)" offset="0.25"/><stop stop-opacity="1" stop-color="rgb(100%, 51.947021%, 66.204834%)" offset="0.257813"/><stop stop-opacity="1" stop-color="rgb(100%, 52.314758%, 65.87677%)" offset="0.265625"/><stop stop-opacity="1" stop-color="rgb(100%, 52.682495%, 65.548706%)" offset="0.273438"/><stop stop-opacity="1" stop-color="rgb(100%, 53.050232%, 65.220642%)" offset="0.28125"/><stop stop-opacity="1" stop-color="rgb(100%, 53.417969%, 64.894104%)" offset="0.289063"/><stop stop-opacity="1" stop-color="rgb(100%, 53.785706%, 64.56604%)" offset="0.296875"/><stop stop-opacity="1" stop-color="rgb(100%, 54.153442%, 64.237976%)" offset="0.304688"/><stop stop-opacity="1" stop-color="rgb(100%, 54.521179%, 63.909912%)" offset="0.3125"/><stop stop-opacity="1" stop-color="rgb(100%, 54.888916%, 63.581848%)" offset="0.320313"/><stop stop-opacity="1" stop-color="rgb(100%, 55.256653%, 63.253784%)" offset="0.328125"/><stop stop-opacity="1" stop-color="rgb(100%, 55.62439%, 62.927246%)" offset="0.335938"/><stop stop-opacity="1" stop-color="rgb(100%, 55.992126%, 62.599182%)" offset="0.34375"/><stop stop-opacity="1" stop-color="rgb(100%, 56.359863%, 62.271118%)" offset="0.351563"/><stop stop-opacity="1" stop-color="rgb(100%, 56.7276%, 61.943054%)" offset="0.359375"/><stop stop-opacity="1" stop-color="rgb(100%, 57.095337%, 61.61499%)" offset="0.367188"/><stop stop-opacity="1" stop-color="rgb(100%, 57.461548%, 61.286926%)" offset="0.375"/><stop stop-opacity="1" stop-color="rgb(100%, 57.829285%, 60.960388%)" offset="0.382813"/><stop stop-opacity="1" stop-color="rgb(100%, 58.197021%, 60.632324%)" offset="0.390625"/><stop stop-opacity="1" stop-color="rgb(100%, 58.564758%, 60.30426%)" offset="0.398438"/><stop stop-opacity="1" stop-color="rgb(100%, 58.932495%, 59.976196%)" offset="0.40625"/><stop stop-opacity="1" stop-color="rgb(100%, 59.300232%, 59.648132%)" offset="0.414062"/><stop stop-opacity="1" stop-color="rgb(100%, 59.667969%, 59.320068%)" offset="0.421875"/><stop stop-opacity="1" stop-color="rgb(100%, 60.035706%, 58.99353%)" offset="0.429688"/><stop stop-opacity="1" stop-color="rgb(100%, 60.403442%, 58.665466%)" offset="0.4375"/><stop stop-opacity="1" stop-color="rgb(100%, 60.771179%, 58.337402%)" offset="0.445312"/><stop stop-opacity="1" stop-color="rgb(100%, 61.138916%, 58.009338%)" offset="0.453125"/><stop stop-opacity="1" stop-color="rgb(100%, 61.506653%, 57.681274%)" offset="0.460938"/><stop stop-opacity="1" stop-color="rgb(100%, 61.87439%, 57.35321%)" offset="0.46875"/><stop stop-opacity="1" stop-color="rgb(100%, 62.242126%, 57.025146%)" offset="0.476563"/><stop stop-opacity="1" stop-color="rgb(100%, 62.609863%, 56.698608%)" offset="0.484375"/><stop stop-opacity="1" stop-color="rgb(100%, 62.9776%, 56.370544%)" offset="0.492188"/><stop stop-opacity="1" stop-color="rgb(100%, 63.345337%, 56.04248%)" offset="0.5"/><stop stop-opacity="1" stop-color="rgb(100%, 63.713074%, 55.714417%)" offset="0.507812"/><stop stop-opacity="1" stop-color="rgb(100%, 64.079285%, 55.386353%)" offset="0.515625"/><stop stop-opacity="1" stop-color="rgb(100%, 64.447021%, 55.058289%)" offset="0.523438"/><stop stop-opacity="1" stop-color="rgb(100%, 64.814758%, 54.73175%)" offset="0.53125"/><stop stop-opacity="1" stop-color="rgb(100%, 65.182495%, 54.403687%)" offset="0.539062"/><stop stop-opacity="1" stop-color="rgb(100%, 65.550232%, 54.075623%)" offset="0.546875"/><stop stop-opacity="1" stop-color="rgb(100%, 65.917969%, 53.747559%)" offset="0.554688"/><stop stop-opacity="1" stop-color="rgb(100%, 66.285706%, 53.419495%)" offset="0.5625"/><stop stop-opacity="1" stop-color="rgb(100%, 66.653442%, 53.091431%)" offset="0.570312"/><stop stop-opacity="1" stop-color="rgb(100%, 67.021179%, 52.764893%)" offset="0.578125"/><stop stop-opacity="1" stop-color="rgb(100%, 67.388916%, 52.436829%)" offset="0.585938"/><stop stop-opacity="1" stop-color="rgb(100%, 67.756653%, 52.108765%)" offset="0.59375"/><stop stop-opacity="1" stop-color="rgb(100%, 68.12439%, 51.780701%)" offset="0.601563"/><stop stop-opacity="1" stop-color="rgb(100%, 68.492126%, 51.452637%)" offset="0.609375"/><stop stop-opacity="1" stop-color="rgb(100%, 68.859863%, 51.124573%)" offset="0.617188"/><stop stop-opacity="1" stop-color="rgb(100%, 69.2276%, 50.798035%)" offset="0.625"/><stop stop-opacity="1" stop-color="rgb(100%, 69.595337%, 50.469971%)" offset="0.632813"/><stop stop-opacity="1" stop-color="rgb(100%, 69.963074%, 50.141907%)" offset="0.640625"/><stop stop-opacity="1" stop-color="rgb(100%, 70.330811%, 49.813843%)" offset="0.648438"/><stop stop-opacity="1" stop-color="rgb(100%, 70.698547%, 49.485779%)" offset="0.65625"/><stop stop-opacity="1" stop-color="rgb(100%, 71.064758%, 49.157715%)" offset="0.664062"/><stop stop-opacity="1" stop-color="rgb(100%, 71.432495%, 48.831177%)" offset="0.671875"/><stop stop-opacity="1" stop-color="rgb(100%, 71.800232%, 48.503113%)" offset="0.679688"/><stop stop-opacity="1" stop-color="rgb(100%, 72.167969%, 48.175049%)" offset="0.6875"/><stop stop-opacity="1" stop-color="rgb(100%, 72.535706%, 47.846985%)" offset="0.695312"/><stop stop-opacity="1" stop-color="rgb(100%, 72.903442%, 47.518921%)" offset="0.703125"/><stop stop-opacity="1" stop-color="rgb(100%, 73.271179%, 47.190857%)" offset="0.710938"/><stop stop-opacity="1" stop-color="rgb(100%, 73.638916%, 46.864319%)" offset="0.71875"/><stop stop-opacity="1" stop-color="rgb(100%, 74.006653%, 46.536255%)" offset="0.726562"/><stop stop-opacity="1" stop-color="rgb(100%, 74.37439%, 46.208191%)" offset="0.734375"/><stop stop-opacity="1" stop-color="rgb(100%, 74.742126%, 45.880127%)" offset="0.742188"/><stop stop-opacity="1" stop-color="rgb(100%, 75.109863%, 45.552063%)" offset="0.75"/><stop stop-opacity="1" stop-color="rgb(100%, 75.4776%, 45.223999%)" offset="0.757812"/><stop stop-opacity="1" stop-color="rgb(100%, 75.845337%, 44.897461%)" offset="0.765625"/><stop stop-opacity="1" stop-color="rgb(100%, 76.213074%, 44.569397%)" offset="0.773438"/><stop stop-opacity="1" stop-color="rgb(100%, 76.580811%, 44.241333%)" offset="0.78125"/><stop stop-opacity="1" stop-color="rgb(100%, 76.948547%, 43.913269%)" offset="0.789062"/><stop stop-opacity="1" stop-color="rgb(100%, 77.316284%, 43.585205%)" offset="0.796875"/><stop stop-opacity="1" stop-color="rgb(100%, 77.684021%, 43.257141%)" offset="0.804688"/><stop stop-opacity="1" stop-color="rgb(100%, 78.050232%, 42.930603%)" offset="0.8125"/><stop stop-opacity="1" stop-color="rgb(100%, 78.417969%, 42.602539%)" offset="0.819325"/><stop stop-opacity="1" stop-color="rgb(100%, 78.6026%, 42.43927%)" offset="0.820312"/><stop stop-opacity="1" stop-color="rgb(100%, 78.785706%, 42.274475%)" offset="0.828125"/><stop stop-opacity="1" stop-color="rgb(100%, 79.153442%, 41.946411%)" offset="0.835938"/><stop stop-opacity="1" stop-color="rgb(100%, 79.521179%, 41.618347%)" offset="0.84375"/><stop stop-opacity="1" stop-color="rgb(100%, 79.888916%, 41.290283%)" offset="0.851562"/><stop stop-opacity="1" stop-color="rgb(100%, 80.256653%, 40.963745%)" offset="0.859375"/><stop stop-opacity="1" stop-color="rgb(100%, 80.62439%, 40.635681%)" offset="0.867188"/><stop stop-opacity="1" stop-color="rgb(100%, 80.992126%, 40.307617%)" offset="0.875"/><stop stop-opacity="1" stop-color="rgb(100%, 81.359863%, 39.979553%)" offset="0.882812"/><stop stop-opacity="1" stop-color="rgb(100%, 81.7276%, 39.651489%)" offset="0.890625"/><stop stop-opacity="1" stop-color="rgb(100%, 82.095337%, 39.323425%)" offset="0.898438"/><stop stop-opacity="1" stop-color="rgb(100%, 82.463074%, 38.996887%)" offset="0.90625"/><stop stop-opacity="1" stop-color="rgb(100%, 82.830811%, 38.668823%)" offset="0.914062"/><stop stop-opacity="1" stop-color="rgb(100%, 83.198547%, 38.340759%)" offset="0.921875"/><stop stop-opacity="1" stop-color="rgb(100%, 83.566284%, 38.012695%)" offset="0.929688"/><stop stop-opacity="1" stop-color="rgb(100%, 83.934021%, 37.684631%)" offset="0.9375"/><stop stop-opacity="1" stop-color="rgb(100%, 84.301758%, 37.356567%)" offset="0.945312"/><stop stop-opacity="1" stop-color="rgb(100%, 84.669495%, 37.030029%)" offset="0.953125"/><stop stop-opacity="1" stop-color="rgb(100%, 85.035706%, 36.701965%)" offset="0.960938"/><stop stop-opacity="1" stop-color="rgb(100%, 85.403442%, 36.373901%)" offset="0.96875"/><stop stop-opacity="1" stop-color="rgb(100%, 85.771179%, 36.045837%)" offset="0.976562"/><stop stop-opacity="1" stop-color="rgb(100%, 86.138916%, 35.717773%)" offset="0.984375"/><stop stop-opacity="1" stop-color="rgb(100%, 86.506653%, 35.389709%)" offset="0.992187"/><stop stop-opacity="1" stop-color="rgb(100%, 86.87439%, 35.063171%)" offset="1"/></linearGradient><clipPath id="afd71a735f"><rect x="0" width="598" y="0" height="133"/></clipPath><clipPath id="9339d96f0e"><rect x="0" width="598" y="0" height="133"/></clipPath><clipPath id="f24d464792"><path d="M 0.00390625 233.839844 L 600 233.839844 L 600 365.839844 L 0.00390625 365.839844 Z M 0.00390625 233.839844 " clip-rule="nonzero"/></clipPath><clipPath id="bddf1f5012"><path d="M 30.605469 233.839844 L 569.394531 233.839844 C 577.511719 233.839844 585.292969 237.0625 591.03125 242.804688 C 596.769531 248.542969 599.996094 256.324219 599.996094 264.441406 L 599.996094 335.558594 C 599.996094 343.671875 596.769531 351.457031 591.03125 357.195312 C 585.292969 362.933594 577.511719 366.15625 569.394531 366.15625 L 30.605469 366.15625 C 22.488281 366.15625 14.707031 362.933594 8.96875 357.195312 C 3.230469 351.457031 0.00390625 343.671875 0.00390625 335.558594 L 0.00390625 264.441406 C 0.00390625 256.324219 3.230469 248.542969 8.96875 242.804688 C 14.707031 237.0625 22.488281 233.839844 30.605469 233.839844 Z M 30.605469 233.839844 " clip-rule="nonzero"/></clipPath></defs><g transform="matrix(1, 0, 0, 1, 1, 234)"><g clip-path="url(#9339d96f0e)"><g clip-path="url(#600dac09cb)"><g clip-path="url(#041c209fee)"><g transform="matrix(1, 0, 0, 1, 0, -0.000000000000056843)"><g clip-path="url(#afd71a735f)"><g clip-path="url(#0489e99b5a)"><g clip-path="url(#92a4ec22b3)"><path fill="url(#9972381f26)" d="M 0.679688 0.589844 L 0.679688 132.160156 L 597.320312 132.160156 L 597.320312 0.589844 Z M 0.679688 0.589844 " fill-rule="nonzero"/></g></g></g></g></g></g><g fill="#fdfdfd" fill-opacity="1"><g transform="translate(32.681909, 89.173278)"><g><path d="M 23.4375 0.75 C 21.457031 0.75 19.726562 0.753906 18.25 0.765625 C 16.769531 0.773438 15.4375 0.695312 14.25 0.53125 C 13.0625 0.363281 11.9375 0.0390625 10.875 -0.4375 C 9.8125 -0.914062 8.707031 -1.644531 7.5625 -2.625 C 6.125 -3.851562 5.097656 -5.800781 4.484375 -8.46875 C 3.867188 -11.132812 3.5625 -14.394531 3.5625 -18.25 C 3.5625 -21.832031 3.648438 -25.03125 3.828125 -27.84375 C 4.003906 -30.65625 4.28125 -33.164062 4.65625 -35.375 C 5.03125 -37.582031 5.53125 -39.554688 6.15625 -41.296875 C 6.78125 -43.035156 7.539062 -44.601562 8.4375 -46 C 9.039062 -46.957031 9.921875 -47.675781 11.078125 -48.15625 C 12.234375 -48.632812 13.585938 -48.957031 15.140625 -49.125 C 16.691406 -49.289062 18.375 -49.375 20.1875 -49.375 C 21.851562 -49.375 23.226562 -49.316406 24.3125 -49.203125 C 25.394531 -49.085938 26.25 -48.84375 26.875 -48.46875 C 27.5 -48.09375 27.957031 -47.53125 28.25 -46.78125 C 28.539062 -46.03125 28.726562 -45.023438 28.8125 -43.765625 C 28.894531 -42.503906 28.9375 -40.914062 28.9375 -39 L 28.9375 -33.875 C 28.9375 -33.289062 28.816406 -32.863281 28.578125 -32.59375 C 28.335938 -32.320312 27.929688 -32.144531 27.359375 -32.0625 C 26.785156 -31.976562 25.976562 -31.914062 24.9375 -31.875 C 24.519531 -31.875 24.1875 -31.9375 23.9375 -32.0625 C 23.6875 -32.1875 23.5625 -32.375 23.5625 -32.625 C 23.8125 -38.976562 23.9375 -42.6875 23.9375 -43.75 C 22.789062 -43.894531 21.578125 -44 20.296875 -44.0625 C 19.015625 -44.125 17.796875 -44.101562 16.640625 -44 C 15.484375 -43.894531 14.488281 -43.6875 13.65625 -43.375 C 12.820312 -43.0625 12.289062 -42.601562 12.0625 -42 C 10.789062 -38.707031 9.890625 -35.210938 9.359375 -31.515625 C 8.828125 -27.816406 8.5625 -23.851562 8.5625 -19.625 C 8.5625 -12 9.726562 -7.332031 12.0625 -5.625 C 12.476562 -5.332031 13.28125 -5.082031 14.46875 -4.875 C 15.65625 -4.664062 17.394531 -4.5 19.6875 -4.375 C 20.164062 -4.414062 20.613281 -4.445312 21.03125 -4.46875 C 21.445312 -4.488281 21.832031 -4.5 22.1875 -4.5 L 22.4375 -16.75 C 20.851562 -16.9375 19.617188 -17.09375 18.734375 -17.21875 C 17.847656 -17.34375 17.1875 -17.457031 16.75 -17.5625 C 16.3125 -17.664062 15.976562 -17.757812 15.75 -17.84375 C 15.476562 -17.988281 15.304688 -18.191406 15.234375 -18.453125 C 15.160156 -18.710938 15.140625 -19 15.171875 -19.3125 C 15.203125 -19.625 15.207031 -19.894531 15.1875 -20.125 C 15.3125 -21.707031 15.6875 -22.5 16.3125 -22.5 C 17.9375 -22.375 19.457031 -22.253906 20.875 -22.140625 C 22.289062 -22.023438 23.507812 -21.910156 24.53125 -21.796875 C 25.550781 -21.679688 26.257812 -21.5625 26.65625 -21.4375 C 26.925781 -21.394531 27.148438 -21.070312 27.328125 -20.46875 C 27.503906 -19.863281 27.640625 -19.070312 27.734375 -18.09375 C 27.828125 -17.113281 27.894531 -16.03125 27.9375 -14.84375 C 27.976562 -13.65625 28.003906 -12.453125 28.015625 -11.234375 C 28.023438 -10.015625 28.023438 -8.863281 28.015625 -7.78125 C 28.003906 -6.695312 27.988281 -5.765625 27.96875 -4.984375 C 27.945312 -4.203125 27.9375 -3.664062 27.9375 -3.375 C 27.9375 -0.625 26.4375 0.75 23.4375 0.75 Z M 23.4375 0.75 "/></g></g></g><g fill="#fdfdfd" fill-opacity="1"><g transform="translate(65.553698, 89.173278)"><g><path d="M 16.5 1.53125 C 14.332031 1.53125 12.484375 1.171875 10.953125 0.453125 C 9.421875 -0.265625 8.160156 -1.289062 7.171875 -2.625 C 6.179688 -3.957031 5.410156 -5.535156 4.859375 -7.359375 C 4.304688 -9.179688 3.921875 -11.203125 3.703125 -13.421875 C 3.484375 -15.640625 3.375 -17.988281 3.375 -20.46875 C 3.375 -23.738281 3.460938 -26.8125 3.640625 -29.6875 C 3.816406 -32.5625 4.082031 -35.144531 4.4375 -37.4375 C 4.789062 -39.726562 5.234375 -41.640625 5.765625 -43.171875 C 6.296875 -44.703125 6.914062 -45.757812 7.625 -46.34375 C 8.832031 -47.320312 9.910156 -48.078125 10.859375 -48.609375 C 11.804688 -49.140625 12.675781 -49.519531 13.46875 -49.75 C 14.257812 -49.976562 15.019531 -50.113281 15.75 -50.15625 C 16.476562 -50.195312 17.226562 -50.21875 18 -50.21875 C 19.644531 -50.21875 21.054688 -49.773438 22.234375 -48.890625 C 23.410156 -48.003906 24.394531 -46.757812 25.1875 -45.15625 C 25.976562 -43.550781 26.609375 -41.65625 27.078125 -39.46875 C 27.546875 -37.28125 27.878906 -34.875 28.078125 -32.25 C 28.273438 -29.625 28.375 -26.863281 28.375 -23.96875 C 28.375 -22.113281 28.289062 -20.203125 28.125 -18.234375 C 27.957031 -16.265625 27.679688 -14.328125 27.296875 -12.421875 C 26.910156 -10.515625 26.414062 -8.722656 25.8125 -7.046875 C 25.207031 -5.367188 24.460938 -3.882812 23.578125 -2.59375 C 22.691406 -1.300781 21.664062 -0.289062 20.5 0.4375 C 19.332031 1.164062 18 1.53125 16.5 1.53125 Z M 16.625 -4.03125 C 17.351562 -4.03125 18.019531 -4.4375 18.625 -5.25 C 19.226562 -6.0625 19.773438 -7.160156 20.265625 -8.546875 C 20.753906 -9.929688 21.175781 -11.488281 21.53125 -13.21875 C 21.882812 -14.945312 22.179688 -16.738281 22.421875 -18.59375 C 22.660156 -20.445312 22.835938 -22.25 22.953125 -24 C 23.066406 -25.75 23.125 -27.320312 23.125 -28.71875 C 23.125 -29.65625 23.066406 -30.703125 22.953125 -31.859375 C 22.835938 -33.015625 22.664062 -34.203125 22.4375 -35.421875 C 22.207031 -36.640625 21.929688 -37.816406 21.609375 -38.953125 C 21.285156 -40.085938 20.921875 -41.109375 20.515625 -42.015625 C 20.109375 -42.921875 19.664062 -43.640625 19.1875 -44.171875 C 18.707031 -44.703125 18.1875 -44.96875 17.625 -44.96875 C 16.601562 -44.96875 15.519531 -44.773438 14.375 -44.390625 C 13.226562 -44.003906 12.019531 -43.15625 10.75 -41.84375 C 10.0625 -41.132812 9.59375 -39.269531 9.34375 -36.25 C 9.09375 -33.226562 8.851562 -29.175781 8.625 -24.09375 C 8.539062 -22.257812 8.484375 -20.394531 8.453125 -18.5 C 8.421875 -16.601562 8.507812 -14.789062 8.71875 -13.0625 C 8.925781 -11.332031 9.3125 -9.789062 9.875 -8.4375 C 10.4375 -7.082031 11.257812 -6.007812 12.34375 -5.21875 C 13.425781 -4.425781 14.851562 -4.03125 16.625 -4.03125 Z M 16.625 -4.03125 "/></g></g></g><g fill="#fdfdfd" fill-opacity="1"><g transform="translate(97.800547, 89.173278)"><g/></g></g><g fill="#fdfdfd" fill-opacity="1"><g transform="translate(113.673996, 89.173278)"><g><path d="M 10.28125 0.1875 C 8.71875 0.1875 7.492188 0.175781 6.609375 0.15625 C 5.722656 0.132812 5.09375 0.0820312 4.71875 0 C 4.34375 -0.0820312 4.15625 -0.226562 4.15625 -0.4375 C 4.050781 -9.375 4.015625 -17.144531 4.046875 -23.75 C 4.078125 -30.351562 4.1875 -35.703125 4.375 -39.796875 C 4.5625 -43.890625 4.820312 -46.601562 5.15625 -47.9375 C 5.15625 -48.25 5.515625 -48.503906 6.234375 -48.703125 C 6.953125 -48.898438 7.894531 -49.050781 9.0625 -49.15625 C 10.226562 -49.257812 11.46875 -49.3125 12.78125 -49.3125 C 16.445312 -49.3125 19.195312 -48.300781 21.03125 -46.28125 C 22.863281 -44.257812 23.78125 -41.476562 23.78125 -37.9375 C 23.78125 -33.539062 22.195312 -30.039062 19.03125 -27.4375 C 21.238281 -26.164062 22.863281 -23.832031 23.90625 -20.4375 C 24.488281 -18.5 24.78125 -15.164062 24.78125 -10.4375 C 24.78125 -8.539062 24.410156 -6.914062 23.671875 -5.5625 C 22.929688 -4.207031 21.898438 -3.109375 20.578125 -2.265625 C 19.253906 -1.421875 17.71875 -0.800781 15.96875 -0.40625 C 14.21875 -0.0078125 12.320312 0.1875 10.28125 0.1875 Z M 9.15625 -29.1875 C 10.550781 -29.1875 11.835938 -29.410156 13.015625 -29.859375 C 14.191406 -30.304688 15.222656 -30.90625 16.109375 -31.65625 C 16.992188 -32.40625 17.679688 -33.25 18.171875 -34.1875 C 18.660156 -35.125 18.90625 -36.082031 18.90625 -37.0625 C 18.90625 -38.644531 18.765625 -39.894531 18.484375 -40.8125 C 18.203125 -41.726562 17.671875 -42.40625 16.890625 -42.84375 C 16.109375 -43.28125 14.945312 -43.5625 13.40625 -43.6875 C 12.78125 -43.75 12.171875 -43.765625 11.578125 -43.734375 C 10.984375 -43.703125 10.34375 -43.65625 9.65625 -43.59375 Z M 9.15625 -4.6875 C 12.78125 -4.601562 15.484375 -5.25 17.265625 -6.625 C 19.046875 -8 19.882812 -9.9375 19.78125 -12.4375 C 19.71875 -14.039062 19.582031 -15.515625 19.375 -16.859375 C 19.164062 -18.203125 18.835938 -19.363281 18.390625 -20.34375 C 17.941406 -21.320312 17.328125 -22.082031 16.546875 -22.625 C 15.765625 -23.164062 14.757812 -23.4375 13.53125 -23.4375 C 12.113281 -23.4375 10.570312 -23.3125 8.90625 -23.0625 C 8.863281 -21.644531 8.832031 -20.476562 8.8125 -19.5625 C 8.789062 -18.644531 8.78125 -17.976562 8.78125 -17.5625 C 8.78125 -13.519531 8.90625 -9.226562 9.15625 -4.6875 Z M 9.15625 -4.6875 "/></g></g></g><g fill="#fdfdfd" fill-opacity="1"><g transform="translate(142.952386, 89.173278)"><g><path d="M 6.46875 0 C 5.820312 0 5.285156 -0.0859375 4.859375 -0.265625 C 4.429688 -0.441406 4.21875 -0.6875 4.21875 -1 C 3.84375 -9.9375 3.519531 -18.257812 3.25 -25.96875 C 2.976562 -33.675781 2.757812 -40.769531 2.59375 -47.25 C 2.59375 -47.75 2.722656 -48.109375 2.984375 -48.328125 C 3.242188 -48.546875 3.78125 -48.6875 4.59375 -48.75 L 6.34375 -48.875 C 6.800781 -48.875 7.164062 -48.601562 7.4375 -48.0625 C 7.707031 -47.519531 7.882812 -46.457031 7.96875 -44.875 C 8.132812 -36.976562 8.332031 -29.441406 8.5625 -22.265625 C 8.789062 -15.085938 9.050781 -8.289062 9.34375 -1.875 C 9.34375 -1.25 9.148438 -0.78125 8.765625 -0.46875 C 8.378906 -0.15625 7.613281 0 6.46875 0 Z M 6.46875 0 "/></g></g></g><g fill="#fdfdfd" fill-opacity="1"><g transform="translate(155.576152, 89.173278)"><g><path d="M 20.09375 0.6875 C 18.28125 0.6875 16.757812 0.679688 15.53125 0.671875 C 14.300781 0.660156 13.21875 0.640625 12.28125 0.609375 C 11.34375 0.578125 10.429688 0.519531 9.546875 0.4375 C 8.660156 0.351562 7.644531 0.25 6.5 0.125 C 5.125 -0.0390625 4.171875 -0.351562 3.640625 -0.8125 C 3.109375 -1.269531 2.84375 -1.8125 2.84375 -2.4375 C 2.84375 -4.75 3.21875 -7.347656 3.96875 -10.234375 C 4.71875 -13.117188 5.757812 -16.257812 7.09375 -19.65625 C 8.425781 -23.050781 9.96875 -26.675781 11.71875 -30.53125 C 13.46875 -34.382812 15.34375 -38.4375 17.34375 -42.6875 C 16.320312 -42.6875 15.269531 -42.6875 14.1875 -42.6875 C 13.101562 -42.6875 11.90625 -42.679688 10.59375 -42.671875 C 9.28125 -42.660156 7.757812 -42.65625 6.03125 -42.65625 C 5.488281 -42.65625 5.113281 -42.894531 4.90625 -43.375 C 4.695312 -43.851562 4.59375 -44.414062 4.59375 -45.0625 C 4.59375 -46.082031 4.769531 -46.773438 5.125 -47.140625 C 5.476562 -47.503906 6.09375 -47.726562 6.96875 -47.8125 C 7.78125 -47.894531 9.125 -47.957031 11 -48 C 12.875 -48.039062 15.28125 -48.0625 18.21875 -48.0625 C 19.820312 -48.0625 21.039062 -48.019531 21.875 -47.9375 C 22.707031 -47.851562 23.273438 -47.691406 23.578125 -47.453125 C 23.878906 -47.210938 24.007812 -46.875 23.96875 -46.4375 C 23.925781 -45.789062 23.671875 -44.804688 23.203125 -43.484375 C 22.734375 -42.160156 22.125 -40.601562 21.375 -38.8125 C 20.625 -37.019531 19.78125 -35.078125 18.84375 -32.984375 C 17.90625 -30.890625 16.945312 -28.738281 15.96875 -26.53125 C 14.988281 -24.320312 14.035156 -22.132812 13.109375 -19.96875 C 12.179688 -17.800781 11.351562 -15.753906 10.625 -13.828125 C 9.894531 -11.898438 9.3125 -10.171875 8.875 -8.640625 C 8.4375 -7.109375 8.21875 -5.875 8.21875 -4.9375 C 9.863281 -4.726562 11.6875 -4.570312 13.6875 -4.46875 C 15.6875 -4.363281 17.863281 -4.3125 20.21875 -4.3125 C 20.945312 -4.3125 21.484375 -4.132812 21.828125 -3.78125 C 22.171875 -3.425781 22.34375 -2.726562 22.34375 -1.6875 C 22.34375 -1 22.238281 -0.484375 22.03125 -0.140625 C 21.820312 0.203125 21.550781 0.425781 21.21875 0.53125 C 20.882812 0.632812 20.507812 0.6875 20.09375 0.6875 Z M 20.09375 0.6875 "/></g></g></g><g fill="#fdfdfd" fill-opacity="1"><g transform="translate(182.854737, 89.173278)"><g><path d="M 6.3125 1 C 5.851562 1 5.425781 0.957031 5.03125 0.875 C 4.632812 0.789062 4.4375 0.664062 4.4375 0.5 C 4.414062 -0.664062 4.394531 -1.675781 4.375 -2.53125 C 4.351562 -3.382812 4.335938 -4.1875 4.328125 -4.9375 C 4.316406 -5.6875 4.3125 -6.457031 4.3125 -7.25 C 4.3125 -8.351562 4.335938 -9.523438 4.390625 -10.765625 C 4.441406 -12.003906 4.519531 -13.445312 4.625 -15.09375 C 4.726562 -16.738281 4.859375 -18.679688 5.015625 -20.921875 C 5.171875 -23.160156 5.351562 -25.8125 5.5625 -28.875 C 5.707031 -30.914062 5.820312 -32.691406 5.90625 -34.203125 C 5.988281 -35.710938 6.109375 -37.035156 6.265625 -38.171875 C 6.421875 -39.304688 6.644531 -40.320312 6.9375 -41.21875 C 7.6875 -43.46875 8.785156 -45.195312 10.234375 -46.40625 C 11.679688 -47.613281 13.5 -48.453125 15.6875 -48.921875 C 17.875 -49.390625 20.457031 -49.625 23.4375 -49.625 C 26.019531 -49.625 27.3125 -48.414062 27.3125 -46 C 27.226562 -41.9375 27.191406 -38.03125 27.203125 -34.28125 C 27.210938 -30.53125 27.28125 -26.847656 27.40625 -23.234375 C 27.53125 -19.617188 27.71875 -15.992188 27.96875 -12.359375 C 28.21875 -8.722656 28.539062 -4.976562 28.9375 -1.125 C 29 -0.769531 28.753906 -0.453125 28.203125 -0.171875 C 27.648438 0.109375 26.851562 0.25 25.8125 0.25 C 24.25 0.144531 23.457031 -0.101562 23.4375 -0.5 L 22.4375 -18.125 C 20.832031 -18.125 18.984375 -18.082031 16.890625 -18 C 14.796875 -17.914062 12.476562 -17.789062 9.9375 -17.625 C 9.832031 -16.125 9.757812 -14.539062 9.71875 -12.875 C 9.675781 -11.207031 9.65625 -9.5625 9.65625 -7.9375 C 9.65625 -6.3125 9.660156 -4.800781 9.671875 -3.40625 C 9.679688 -2.007812 9.6875 -0.832031 9.6875 0.125 C 9.6875 0.375 9.335938 0.582031 8.640625 0.75 C 7.941406 0.914062 7.164062 1 6.3125 1 Z M 10.1875 -22.75 C 11.269531 -22.8125 12.488281 -22.878906 13.84375 -22.953125 C 15.195312 -23.023438 16.609375 -23.097656 18.078125 -23.171875 C 19.546875 -23.242188 20.957031 -23.3125 22.3125 -23.375 C 22.226562 -25.019531 22.164062 -26.6875 22.125 -28.375 C 22.082031 -30.0625 22.0625 -31.789062 22.0625 -33.5625 C 22.0625 -35.332031 22.082031 -37.109375 22.125 -38.890625 C 22.164062 -40.671875 22.226562 -42.445312 22.3125 -44.21875 C 21.1875 -44.21875 20.054688 -44.164062 18.921875 -44.0625 C 17.785156 -43.957031 16.707031 -43.742188 15.6875 -43.421875 C 14.664062 -43.097656 13.75 -42.582031 12.9375 -41.875 C 12.394531 -41.414062 12.003906 -40.769531 11.765625 -39.9375 C 11.523438 -39.101562 11.359375 -38.09375 11.265625 -36.90625 C 11.171875 -35.71875 11.0625 -34.332031 10.9375 -32.75 C 10.894531 -32.039062 10.800781 -30.859375 10.65625 -29.203125 C 10.507812 -27.546875 10.351562 -25.394531 10.1875 -22.75 Z M 10.1875 -22.75 "/></g></g></g><g fill="#fdfdfd" fill-opacity="1"><g transform="translate(215.726525, 89.173278)"><g><path d="M 6.21875 1.53125 C 5.84375 1.53125 5.519531 1.394531 5.25 1.125 C 4.976562 0.851562 4.84375 0.488281 4.84375 0.03125 L 4.78125 -29.96875 L 4.78125 -45.21875 C 4.78125 -46.09375 4.921875 -46.753906 5.203125 -47.203125 C 5.484375 -47.648438 5.945312 -47.9375 6.59375 -48.0625 C 7.113281 -48.164062 7.765625 -48.238281 8.546875 -48.28125 C 9.328125 -48.320312 10.195312 -48.34375 11.15625 -48.34375 C 14.425781 -48.34375 17.164062 -47.675781 19.375 -46.34375 C 21.582031 -45.007812 23.132812 -42.96875 24.03125 -40.21875 C 24.320312 -39.363281 24.539062 -38.375 24.6875 -37.25 C 24.832031 -36.125 24.90625 -34.863281 24.90625 -33.46875 C 24.90625 -31.007812 24.347656 -28.851562 23.234375 -27 C 22.117188 -25.144531 20.382812 -23.34375 18.03125 -21.59375 C 18.550781 -20.40625 19.109375 -19.097656 19.703125 -17.671875 C 20.296875 -16.242188 20.894531 -14.773438 21.5 -13.265625 C 22.101562 -11.753906 22.6875 -10.269531 23.25 -8.8125 C 23.8125 -7.351562 24.320312 -5.992188 24.78125 -4.734375 C 25.238281 -3.472656 25.613281 -2.382812 25.90625 -1.46875 C 26.050781 -1.03125 25.96875 -0.613281 25.65625 -0.21875 C 25.34375 0.175781 24.929688 0.5 24.421875 0.75 C 23.910156 1 23.40625 1.148438 22.90625 1.203125 C 22.40625 1.253906 22.03125 1.15625 21.78125 0.90625 C 21.613281 0.738281 21.347656 0.265625 20.984375 -0.515625 C 20.617188 -1.296875 20.1875 -2.289062 19.6875 -3.5 C 19.1875 -4.707031 18.648438 -6.035156 18.078125 -7.484375 C 17.503906 -8.929688 16.914062 -10.410156 16.3125 -11.921875 C 15.707031 -13.429688 15.128906 -14.894531 14.578125 -16.3125 C 14.023438 -17.726562 13.519531 -18.988281 13.0625 -20.09375 L 10.125 -19.875 C 10.082031 -18.875 10.046875 -17.71875 10.015625 -16.40625 C 9.984375 -15.09375 9.953125 -13.707031 9.921875 -12.25 C 9.890625 -10.789062 9.859375 -9.320312 9.828125 -7.84375 C 9.796875 -6.363281 9.765625 -4.953125 9.734375 -3.609375 C 9.703125 -2.265625 9.664062 -1.0625 9.625 0 C 9.601562 0.644531 9.421875 1.0625 9.078125 1.25 C 8.734375 1.4375 8.320312 1.53125 7.84375 1.53125 Z M 9.90625 -25.40625 C 11.195312 -25.34375 12.429688 -25.507812 13.609375 -25.90625 C 14.785156 -26.300781 15.835938 -26.925781 16.765625 -27.78125 C 17.691406 -28.632812 18.425781 -29.703125 18.96875 -30.984375 C 19.507812 -32.265625 19.78125 -33.757812 19.78125 -35.46875 C 19.78125 -40.550781 16.53125 -43.09375 10.03125 -43.09375 C 9.945312 -41.40625 9.882812 -39.65625 9.84375 -37.84375 C 9.800781 -36.03125 9.78125 -34.15625 9.78125 -32.21875 C 9.78125 -31.570312 9.789062 -30.65625 9.8125 -29.46875 C 9.832031 -28.28125 9.863281 -26.925781 9.90625 -25.40625 Z M 9.90625 -25.40625 "/></g></g></g><g fill="#fdfdfd" fill-opacity="1"><g transform="translate(245.661101, 89.173278)"><g><path d="M 6.21875 1.53125 C 5.84375 1.53125 5.519531 1.394531 5.25 1.125 C 4.976562 0.851562 4.84375 0.488281 4.84375 0.03125 L 4.78125 -29.96875 L 4.78125 -45.21875 C 4.78125 -46.09375 4.921875 -46.753906 5.203125 -47.203125 C 5.484375 -47.648438 5.945312 -47.9375 6.59375 -48.0625 C 7.113281 -48.164062 7.765625 -48.238281 8.546875 -48.28125 C 9.328125 -48.320312 10.195312 -48.34375 11.15625 -48.34375 C 14.425781 -48.34375 17.164062 -47.675781 19.375 -46.34375 C 21.582031 -45.007812 23.132812 -42.96875 24.03125 -40.21875 C 24.320312 -39.363281 24.539062 -38.375 24.6875 -37.25 C 24.832031 -36.125 24.90625 -34.863281 24.90625 -33.46875 C 24.90625 -31.007812 24.347656 -28.851562 23.234375 -27 C 22.117188 -25.144531 20.382812 -23.34375 18.03125 -21.59375 C 18.550781 -20.40625 19.109375 -19.097656 19.703125 -17.671875 C 20.296875 -16.242188 20.894531 -14.773438 21.5 -13.265625 C 22.101562 -11.753906 22.6875 -10.269531 23.25 -8.8125 C 23.8125 -7.351562 24.320312 -5.992188 24.78125 -4.734375 C 25.238281 -3.472656 25.613281 -2.382812 25.90625 -1.46875 C 26.050781 -1.03125 25.96875 -0.613281 25.65625 -0.21875 C 25.34375 0.175781 24.929688 0.5 24.421875 0.75 C 23.910156 1 23.40625 1.148438 22.90625 1.203125 C 22.40625 1.253906 22.03125 1.15625 21.78125 0.90625 C 21.613281 0.738281 21.347656 0.265625 20.984375 -0.515625 C 20.617188 -1.296875 20.1875 -2.289062 19.6875 -3.5 C 19.1875 -4.707031 18.648438 -6.035156 18.078125 -7.484375 C 17.503906 -8.929688 16.914062 -10.410156 16.3125 -11.921875 C 15.707031 -13.429688 15.128906 -14.894531 14.578125 -16.3125 C 14.023438 -17.726562 13.519531 -18.988281 13.0625 -20.09375 L 10.125 -19.875 C 10.082031 -18.875 10.046875 -17.71875 10.015625 -16.40625 C 9.984375 -15.09375 9.953125 -13.707031 9.921875 -12.25 C 9.890625 -10.789062 9.859375 -9.320312 9.828125 -7.84375 C 9.796875 -6.363281 9.765625 -4.953125 9.734375 -3.609375 C 9.703125 -2.265625 9.664062 -1.0625 9.625 0 C 9.601562 0.644531 9.421875 1.0625 9.078125 1.25 C 8.734375 1.4375 8.320312 1.53125 7.84375 1.53125 Z M 9.90625 -25.40625 C 11.195312 -25.34375 12.429688 -25.507812 13.609375 -25.90625 C 14.785156 -26.300781 15.835938 -26.925781 16.765625 -27.78125 C 17.691406 -28.632812 18.425781 -29.703125 18.96875 -30.984375 C 19.507812 -32.265625 19.78125 -33.757812 19.78125 -35.46875 C 19.78125 -40.550781 16.53125 -43.09375 10.03125 -43.09375 C 9.945312 -41.40625 9.882812 -39.65625 9.84375 -37.84375 C 9.800781 -36.03125 9.78125 -34.15625 9.78125 -32.21875 C 9.78125 -31.570312 9.789062 -30.65625 9.8125 -29.46875 C 9.832031 -28.28125 9.863281 -26.925781 9.90625 -25.40625 Z M 9.90625 -25.40625 "/></g></g></g><g fill="#fdfdfd" fill-opacity="1"><g transform="translate(275.595676, 89.173278)"><g><path d="M 5.59375 -0.125 C 5.320312 -0.125 5.132812 -0.242188 5.03125 -0.484375 C 4.925781 -0.722656 4.867188 -1.023438 4.859375 -1.390625 C 4.847656 -1.753906 4.84375 -2.125 4.84375 -2.5 L 4.84375 -19.5 C 4.84375 -27.769531 4.34375 -36.976562 3.34375 -47.125 C 3.28125 -47.539062 3.5 -47.851562 4 -48.0625 C 4.5 -48.269531 5.113281 -48.375 5.84375 -48.375 L 20.46875 -48.375 C 20.695312 -48.375 20.835938 -48.113281 20.890625 -47.59375 C 20.941406 -47.070312 20.96875 -46.207031 20.96875 -45 C 20.96875 -44 20.507812 -43.5 19.59375 -43.5 C 18.15625 -43.5 16.835938 -43.492188 15.640625 -43.484375 C 14.441406 -43.472656 13.296875 -43.445312 12.203125 -43.40625 C 11.109375 -43.363281 9.988281 -43.3125 8.84375 -43.25 C 8.84375 -42.625 9.09375 -37.664062 9.59375 -28.375 L 18.34375 -28.625 C 19.007812 -28.625 19.34375 -27.707031 19.34375 -25.875 C 19.34375 -24.289062 18.84375 -23.5 17.84375 -23.5 L 9.71875 -23.125 C 9.800781 -18.851562 9.882812 -15.257812 9.96875 -12.34375 C 10.050781 -9.425781 10.132812 -7.15625 10.21875 -5.53125 C 10.96875 -5.570312 11.894531 -5.625 13 -5.6875 C 14.101562 -5.75 15.3125 -5.816406 16.625 -5.890625 C 17.9375 -5.960938 19.28125 -6.039062 20.65625 -6.125 C 21.21875 -6.125 21.566406 -5.890625 21.703125 -5.421875 C 21.835938 -4.953125 21.90625 -4.101562 21.90625 -2.875 C 21.90625 -2.125 21.75 -1.582031 21.4375 -1.25 C 21.125 -0.914062 20.488281 -0.707031 19.53125 -0.625 C 16.675781 -0.457031 14.039062 -0.332031 11.625 -0.25 C 9.207031 -0.164062 7.195312 -0.125 5.59375 -0.125 Z M 5.59375 -0.125 "/></g></g></g><g fill="#fdfdfd" fill-opacity="1"><g transform="translate(300.312002, 89.173278)"><g><path d="M 4.15625 0.34375 C 3.175781 0.34375 2.351562 0.0078125 1.6875 -0.65625 C 1.019531 -1.320312 0.6875 -2.09375 0.6875 -2.96875 C 0.6875 -3.820312 1.019531 -4.582031 1.6875 -5.25 C 2.351562 -5.914062 3.175781 -6.25 4.15625 -6.25 C 5.113281 -6.25 5.925781 -5.914062 6.59375 -5.25 C 7.257812 -4.582031 7.59375 -3.820312 7.59375 -2.96875 C 7.59375 -2.09375 7.257812 -1.320312 6.59375 -0.65625 C 5.925781 0.0078125 5.113281 0.34375 4.15625 0.34375 Z M 4.15625 0.34375 "/></g></g></g><g fill="#fdfdfd" fill-opacity="1"><g transform="translate(311.935866, 89.173278)"><g/></g></g><g fill="#fdfdfd" fill-opacity="1"><g transform="translate(327.809315, 89.173278)"><g><path d="M 23.4375 0.75 C 21.457031 0.75 19.726562 0.753906 18.25 0.765625 C 16.769531 0.773438 15.4375 0.695312 14.25 0.53125 C 13.0625 0.363281 11.9375 0.0390625 10.875 -0.4375 C 9.8125 -0.914062 8.707031 -1.644531 7.5625 -2.625 C 6.125 -3.851562 5.097656 -5.800781 4.484375 -8.46875 C 3.867188 -11.132812 3.5625 -14.394531 3.5625 -18.25 C 3.5625 -21.832031 3.648438 -25.03125 3.828125 -27.84375 C 4.003906 -30.65625 4.28125 -33.164062 4.65625 -35.375 C 5.03125 -37.582031 5.53125 -39.554688 6.15625 -41.296875 C 6.78125 -43.035156 7.539062 -44.601562 8.4375 -46 C 9.039062 -46.957031 9.921875 -47.675781 11.078125 -48.15625 C 12.234375 -48.632812 13.585938 -48.957031 15.140625 -49.125 C 16.691406 -49.289062 18.375 -49.375 20.1875 -49.375 C 21.851562 -49.375 23.226562 -49.316406 24.3125 -49.203125 C 25.394531 -49.085938 26.25 -48.84375 26.875 -48.46875 C 27.5 -48.09375 27.957031 -47.53125 28.25 -46.78125 C 28.539062 -46.03125 28.726562 -45.023438 28.8125 -43.765625 C 28.894531 -42.503906 28.9375 -40.914062 28.9375 -39 L 28.9375 -33.875 C 28.9375 -33.289062 28.816406 -32.863281 28.578125 -32.59375 C 28.335938 -32.320312 27.929688 -32.144531 27.359375 -32.0625 C 26.785156 -31.976562 25.976562 -31.914062 24.9375 -31.875 C 24.519531 -31.875 24.1875 -31.9375 23.9375 -32.0625 C 23.6875 -32.1875 23.5625 -32.375 23.5625 -32.625 C 23.8125 -38.976562 23.9375 -42.6875 23.9375 -43.75 C 22.789062 -43.894531 21.578125 -44 20.296875 -44.0625 C 19.015625 -44.125 17.796875 -44.101562 16.640625 -44 C 15.484375 -43.894531 14.488281 -43.6875 13.65625 -43.375 C 12.820312 -43.0625 12.289062 -42.601562 12.0625 -42 C 10.789062 -38.707031 9.890625 -35.210938 9.359375 -31.515625 C 8.828125 -27.816406 8.5625 -23.851562 8.5625 -19.625 C 8.5625 -12 9.726562 -7.332031 12.0625 -5.625 C 12.476562 -5.332031 13.28125 -5.082031 14.46875 -4.875 C 15.65625 -4.664062 17.394531 -4.5 19.6875 -4.375 C 20.164062 -4.414062 20.613281 -4.445312 21.03125 -4.46875 C 21.445312 -4.488281 21.832031 -4.5 22.1875 -4.5 L 22.4375 -16.75 C 20.851562 -16.9375 19.617188 -17.09375 18.734375 -17.21875 C 17.847656 -17.34375 17.1875 -17.457031 16.75 -17.5625 C 16.3125 -17.664062 15.976562 -17.757812 15.75 -17.84375 C 15.476562 -17.988281 15.304688 -18.191406 15.234375 -18.453125 C 15.160156 -18.710938 15.140625 -19 15.171875 -19.3125 C 15.203125 -19.625 15.207031 -19.894531 15.1875 -20.125 C 15.3125 -21.707031 15.6875 -22.5 16.3125 -22.5 C 17.9375 -22.375 19.457031 -22.253906 20.875 -22.140625 C 22.289062 -22.023438 23.507812 -21.910156 24.53125 -21.796875 C 25.550781 -21.679688 26.257812 -21.5625 26.65625 -21.4375 C 26.925781 -21.394531 27.148438 -21.070312 27.328125 -20.46875 C 27.503906 -19.863281 27.640625 -19.070312 27.734375 -18.09375 C 27.828125 -17.113281 27.894531 -16.03125 27.9375 -14.84375 C 27.976562 -13.65625 28.003906 -12.453125 28.015625 -11.234375 C 28.023438 -10.015625 28.023438 -8.863281 28.015625 -7.78125 C 28.003906 -6.695312 27.988281 -5.765625 27.96875 -4.984375 C 27.945312 -4.203125 27.9375 -3.664062 27.9375 -3.375 C 27.9375 -0.625 26.4375 0.75 23.4375 0.75 Z M 23.4375 0.75 "/></g></g></g><g fill="#fdfdfd" fill-opacity="1"><g transform="translate(360.681104, 89.173278)"><g><path d="M 5.59375 -0.125 C 5.320312 -0.125 5.132812 -0.242188 5.03125 -0.484375 C 4.925781 -0.722656 4.867188 -1.023438 4.859375 -1.390625 C 4.847656 -1.753906 4.84375 -2.125 4.84375 -2.5 L 4.84375 -19.5 C 4.84375 -27.769531 4.34375 -36.976562 3.34375 -47.125 C 3.28125 -47.539062 3.5 -47.851562 4 -48.0625 C 4.5 -48.269531 5.113281 -48.375 5.84375 -48.375 L 20.46875 -48.375 C 20.695312 -48.375 20.835938 -48.113281 20.890625 -47.59375 C 20.941406 -47.070312 20.96875 -46.207031 20.96875 -45 C 20.96875 -44 20.507812 -43.5 19.59375 -43.5 C 18.15625 -43.5 16.835938 -43.492188 15.640625 -43.484375 C 14.441406 -43.472656 13.296875 -43.445312 12.203125 -43.40625 C 11.109375 -43.363281 9.988281 -43.3125 8.84375 -43.25 C 8.84375 -42.625 9.09375 -37.664062 9.59375 -28.375 L 18.34375 -28.625 C 19.007812 -28.625 19.34375 -27.707031 19.34375 -25.875 C 19.34375 -24.289062 18.84375 -23.5 17.84375 -23.5 L 9.71875 -23.125 C 9.800781 -18.851562 9.882812 -15.257812 9.96875 -12.34375 C 10.050781 -9.425781 10.132812 -7.15625 10.21875 -5.53125 C 10.96875 -5.570312 11.894531 -5.625 13 -5.6875 C 14.101562 -5.75 15.3125 -5.816406 16.625 -5.890625 C 17.9375 -5.960938 19.28125 -6.039062 20.65625 -6.125 C 21.21875 -6.125 21.566406 -5.890625 21.703125 -5.421875 C 21.835938 -4.953125 21.90625 -4.101562 21.90625 -2.875 C 21.90625 -2.125 21.75 -1.582031 21.4375 -1.25 C 21.125 -0.914062 20.488281 -0.707031 19.53125 -0.625 C 16.675781 -0.457031 14.039062 -0.332031 11.625 -0.25 C 9.207031 -0.164062 7.195312 -0.125 5.59375 -0.125 Z M 5.59375 -0.125 "/></g></g></g><g fill="#fdfdfd" fill-opacity="1"><g transform="translate(385.397448, 89.173278)"><g><path d="M 15.09375 0.40625 C 13.945312 0.40625 13.160156 0.285156 12.734375 0.046875 C 12.304688 -0.191406 12.09375 -0.59375 12.09375 -1.15625 C 12.09375 -4.007812 12.085938 -8.921875 12.078125 -15.890625 C 12.066406 -22.859375 12.082031 -31.757812 12.125 -42.59375 L 3.15625 -42.25 C 2.59375 -42.25 2.253906 -42.421875 2.140625 -42.765625 C 2.023438 -43.109375 1.96875 -43.425781 1.96875 -43.71875 C 1.96875 -44.507812 2.039062 -45.144531 2.1875 -45.625 C 2.332031 -46.101562 2.6875 -46.46875 3.25 -46.71875 C 3.8125 -46.96875 4.71875 -47.132812 5.96875 -47.21875 C 13.070312 -47.71875 17.738281 -47.96875 19.96875 -47.96875 C 21.84375 -47.96875 23.328125 -47.929688 24.421875 -47.859375 C 25.515625 -47.785156 26.296875 -47.632812 26.765625 -47.40625 C 27.234375 -47.175781 27.46875 -46.820312 27.46875 -46.34375 C 27.46875 -45.09375 27.378906 -44.238281 27.203125 -43.78125 C 27.023438 -43.320312 26.613281 -43.09375 25.96875 -43.09375 C 24.800781 -43.09375 23.519531 -43.070312 22.125 -43.03125 C 20.726562 -42.988281 19.113281 -42.925781 17.28125 -42.84375 C 17.28125 -42.070312 17.28125 -41.226562 17.28125 -40.3125 C 17.28125 -39.394531 17.285156 -38.300781 17.296875 -37.03125 C 17.304688 -35.757812 17.316406 -34.21875 17.328125 -32.40625 C 17.335938 -30.59375 17.34375 -28.425781 17.34375 -25.90625 C 17.34375 -23.382812 17.34375 -20.40625 17.34375 -16.96875 C 17.34375 -14.09375 17.320312 -11.28125 17.28125 -8.53125 C 17.238281 -5.78125 17.175781 -3.09375 17.09375 -0.46875 C 17.09375 -0.175781 16.882812 0.0390625 16.46875 0.1875 C 16.050781 0.332031 15.59375 0.40625 15.09375 0.40625 Z M 15.09375 0.40625 "/></g></g></g><g fill="#fdfdfd" fill-opacity="1"><g transform="translate(415.050791, 89.173278)"><g/></g></g><g fill="#fdfdfd" fill-opacity="1"><g transform="translate(430.924241, 89.173278)"><g><path d="M 10.28125 0.1875 C 8.71875 0.1875 7.492188 0.175781 6.609375 0.15625 C 5.722656 0.132812 5.09375 0.0820312 4.71875 0 C 4.34375 -0.0820312 4.15625 -0.226562 4.15625 -0.4375 C 4.050781 -9.375 4.015625 -17.144531 4.046875 -23.75 C 4.078125 -30.351562 4.1875 -35.703125 4.375 -39.796875 C 4.5625 -43.890625 4.820312 -46.601562 5.15625 -47.9375 C 5.15625 -48.25 5.515625 -48.503906 6.234375 -48.703125 C 6.953125 -48.898438 7.894531 -49.050781 9.0625 -49.15625 C 10.226562 -49.257812 11.46875 -49.3125 12.78125 -49.3125 C 16.445312 -49.3125 19.195312 -48.300781 21.03125 -46.28125 C 22.863281 -44.257812 23.78125 -41.476562 23.78125 -37.9375 C 23.78125 -33.539062 22.195312 -30.039062 19.03125 -27.4375 C 21.238281 -26.164062 22.863281 -23.832031 23.90625 -20.4375 C 24.488281 -18.5 24.78125 -15.164062 24.78125 -10.4375 C 24.78125 -8.539062 24.410156 -6.914062 23.671875 -5.5625 C 22.929688 -4.207031 21.898438 -3.109375 20.578125 -2.265625 C 19.253906 -1.421875 17.71875 -0.800781 15.96875 -0.40625 C 14.21875 -0.0078125 12.320312 0.1875 10.28125 0.1875 Z M 9.15625 -29.1875 C 10.550781 -29.1875 11.835938 -29.410156 13.015625 -29.859375 C 14.191406 -30.304688 15.222656 -30.90625 16.109375 -31.65625 C 16.992188 -32.40625 17.679688 -33.25 18.171875 -34.1875 C 18.660156 -35.125 18.90625 -36.082031 18.90625 -37.0625 C 18.90625 -38.644531 18.765625 -39.894531 18.484375 -40.8125 C 18.203125 -41.726562 17.671875 -42.40625 16.890625 -42.84375 C 16.109375 -43.28125 14.945312 -43.5625 13.40625 -43.6875 C 12.78125 -43.75 12.171875 -43.765625 11.578125 -43.734375 C 10.984375 -43.703125 10.34375 -43.65625 9.65625 -43.59375 Z M 9.15625 -4.6875 C 12.78125 -4.601562 15.484375 -5.25 17.265625 -6.625 C 19.046875 -8 19.882812 -9.9375 19.78125 -12.4375 C 19.71875 -14.039062 19.582031 -15.515625 19.375 -16.859375 C 19.164062 -18.203125 18.835938 -19.363281 18.390625 -20.34375 C 17.941406 -21.320312 17.328125 -22.082031 16.546875 -22.625 C 15.765625 -23.164062 14.757812 -23.4375 13.53125 -23.4375 C 12.113281 -23.4375 10.570312 -23.3125 8.90625 -23.0625 C 8.863281 -21.644531 8.832031 -20.476562 8.8125 -19.5625 C 8.789062 -18.644531 8.78125 -17.976562 8.78125 -17.5625 C 8.78125 -13.519531 8.90625 -9.226562 9.15625 -4.6875 Z M 9.15625 -4.6875 "/></g></g></g><g fill="#fdfdfd" fill-opacity="1"><g transform="translate(460.20262, 89.173278)"><g><path d="M 6.3125 1 C 5.851562 1 5.425781 0.957031 5.03125 0.875 C 4.632812 0.789062 4.4375 0.664062 4.4375 0.5 C 4.414062 -0.664062 4.394531 -1.675781 4.375 -2.53125 C 4.351562 -3.382812 4.335938 -4.1875 4.328125 -4.9375 C 4.316406 -5.6875 4.3125 -6.457031 4.3125 -7.25 C 4.3125 -8.351562 4.335938 -9.523438 4.390625 -10.765625 C 4.441406 -12.003906 4.519531 -13.445312 4.625 -15.09375 C 4.726562 -16.738281 4.859375 -18.679688 5.015625 -20.921875 C 5.171875 -23.160156 5.351562 -25.8125 5.5625 -28.875 C 5.707031 -30.914062 5.820312 -32.691406 5.90625 -34.203125 C 5.988281 -35.710938 6.109375 -37.035156 6.265625 -38.171875 C 6.421875 -39.304688 6.644531 -40.320312 6.9375 -41.21875 C 7.6875 -43.46875 8.785156 -45.195312 10.234375 -46.40625 C 11.679688 -47.613281 13.5 -48.453125 15.6875 -48.921875 C 17.875 -49.390625 20.457031 -49.625 23.4375 -49.625 C 26.019531 -49.625 27.3125 -48.414062 27.3125 -46 C 27.226562 -41.9375 27.191406 -38.03125 27.203125 -34.28125 C 27.210938 -30.53125 27.28125 -26.847656 27.40625 -23.234375 C 27.53125 -19.617188 27.71875 -15.992188 27.96875 -12.359375 C 28.21875 -8.722656 28.539062 -4.976562 28.9375 -1.125 C 29 -0.769531 28.753906 -0.453125 28.203125 -0.171875 C 27.648438 0.109375 26.851562 0.25 25.8125 0.25 C 24.25 0.144531 23.457031 -0.101562 23.4375 -0.5 L 22.4375 -18.125 C 20.832031 -18.125 18.984375 -18.082031 16.890625 -18 C 14.796875 -17.914062 12.476562 -17.789062 9.9375 -17.625 C 9.832031 -16.125 9.757812 -14.539062 9.71875 -12.875 C 9.675781 -11.207031 9.65625 -9.5625 9.65625 -7.9375 C 9.65625 -6.3125 9.660156 -4.800781 9.671875 -3.40625 C 9.679688 -2.007812 9.6875 -0.832031 9.6875 0.125 C 9.6875 0.375 9.335938 0.582031 8.640625 0.75 C 7.941406 0.914062 7.164062 1 6.3125 1 Z M 10.1875 -22.75 C 11.269531 -22.8125 12.488281 -22.878906 13.84375 -22.953125 C 15.195312 -23.023438 16.609375 -23.097656 18.078125 -23.171875 C 19.546875 -23.242188 20.957031 -23.3125 22.3125 -23.375 C 22.226562 -25.019531 22.164062 -26.6875 22.125 -28.375 C 22.082031 -30.0625 22.0625 -31.789062 22.0625 -33.5625 C 22.0625 -35.332031 22.082031 -37.109375 22.125 -38.890625 C 22.164062 -40.671875 22.226562 -42.445312 22.3125 -44.21875 C 21.1875 -44.21875 20.054688 -44.164062 18.921875 -44.0625 C 17.785156 -43.957031 16.707031 -43.742188 15.6875 -43.421875 C 14.664062 -43.097656 13.75 -42.582031 12.9375 -41.875 C 12.394531 -41.414062 12.003906 -40.769531 11.765625 -39.9375 C 11.523438 -39.101562 11.359375 -38.09375 11.265625 -36.90625 C 11.171875 -35.71875 11.0625 -34.332031 10.9375 -32.75 C 10.894531 -32.039062 10.800781 -30.859375 10.65625 -29.203125 C 10.507812 -27.546875 10.351562 -25.394531 10.1875 -22.75 Z M 10.1875 -22.75 "/></g></g></g><g fill="#fdfdfd" fill-opacity="1"><g transform="translate(493.074445, 89.173278)"><g><path d="M 22.71875 2.03125 C 21.84375 1.988281 21.023438 1.835938 20.265625 1.578125 C 19.503906 1.316406 19.039062 0.800781 18.875 0.03125 C 18.101562 -3.070312 17.300781 -6.148438 16.46875 -9.203125 C 15.632812 -12.253906 14.789062 -15.207031 13.9375 -18.0625 C 13.082031 -20.914062 12.25 -23.582031 11.4375 -26.0625 C 10.625 -28.539062 9.851562 -30.757812 9.125 -32.71875 C 9.207031 -30.363281 9.265625 -28.21875 9.296875 -26.28125 C 9.328125 -24.34375 9.347656 -22.523438 9.359375 -20.828125 C 9.367188 -19.128906 9.367188 -17.472656 9.359375 -15.859375 C 9.347656 -14.242188 9.328125 -12.582031 9.296875 -10.875 C 9.265625 -9.164062 9.234375 -7.332031 9.203125 -5.375 C 9.171875 -3.414062 9.144531 -1.238281 9.125 1.15625 C 9.125 1.40625 8.9375 1.59375 8.5625 1.71875 C 8.1875 1.84375 7.832031 1.90625 7.5 1.90625 C 6.289062 1.90625 5.445312 1.75 4.96875 1.4375 C 4.488281 1.125 4.25 0.519531 4.25 -0.375 C 4.226562 -4.25 4.207031 -8 4.1875 -11.625 C 4.164062 -15.25 4.148438 -18.832031 4.140625 -22.375 C 4.128906 -25.914062 4.125 -29.488281 4.125 -33.09375 C 4.125 -34.050781 4.113281 -35.132812 4.09375 -36.34375 C 4.070312 -37.550781 4.050781 -38.773438 4.03125 -40.015625 C 4.007812 -41.253906 3.988281 -42.414062 3.96875 -43.5 C 3.945312 -44.582031 3.925781 -45.472656 3.90625 -46.171875 C 3.882812 -46.867188 3.875 -47.257812 3.875 -47.34375 C 3.875 -47.882812 4.125 -48.3125 4.625 -48.625 C 5.125 -48.9375 5.875 -49.09375 6.875 -49.09375 C 7.4375 -49.09375 7.890625 -48.945312 8.234375 -48.65625 C 8.578125 -48.363281 8.863281 -47.984375 9.09375 -47.515625 C 9.320312 -47.046875 9.53125 -46.539062 9.71875 -46 C 10.738281 -43.707031 11.820312 -41 12.96875 -37.875 C 14.113281 -34.75 15.273438 -31.359375 16.453125 -27.703125 C 17.628906 -24.046875 18.769531 -20.257812 19.875 -16.34375 C 20.039062 -19.925781 20.164062 -23.789062 20.25 -27.9375 C 20.332031 -32.082031 20.375 -36.507812 20.375 -41.21875 L 20.375 -47.96875 C 20.375 -48.632812 20.789062 -48.96875 21.625 -48.96875 C 22.832031 -48.96875 23.738281 -48.828125 24.34375 -48.546875 C 24.945312 -48.265625 25.25 -47.707031 25.25 -46.875 C 25.25 -39.976562 25.1875 -32.503906 25.0625 -24.453125 C 24.9375 -16.398438 24.75 -7.90625 24.5 1.03125 C 24.5 1.738281 23.90625 2.070312 22.71875 2.03125 Z M 22.71875 2.03125 "/></g></g></g><g fill="#fdfdfd" fill-opacity="1"><g transform="translate(522.0091, 89.173278)"><g><path d="M 22.875 1.25 C 22.289062 1.25 21.71875 0.765625 21.15625 -0.203125 C 20.59375 -1.171875 19.800781 -2.476562 18.78125 -4.125 C 18.507812 -4.582031 18.125 -5.25 17.625 -6.125 C 17.125 -7 16.554688 -8 15.921875 -9.125 C 15.285156 -10.25 14.628906 -11.421875 13.953125 -12.640625 C 13.273438 -13.859375 12.613281 -15.039062 11.96875 -16.1875 C 11.320312 -17.332031 10.726562 -18.367188 10.1875 -19.296875 C 9.644531 -20.222656 9.207031 -20.960938 8.875 -21.515625 C 8.539062 -22.066406 8.34375 -22.332031 8.28125 -22.3125 C 8.570312 -17.332031 8.796875 -13.15625 8.953125 -9.78125 C 9.109375 -6.40625 9.1875 -3.84375 9.1875 -2.09375 C 9.1875 -1.257812 8.835938 -0.671875 8.140625 -0.328125 C 7.441406 0.015625 6.550781 0.15625 5.46875 0.09375 C 4.363281 0.03125 3.8125 -0.394531 3.8125 -1.1875 C 3.8125 -2.1875 3.703125 -6.492188 3.484375 -14.109375 C 3.265625 -21.722656 2.945312 -32.644531 2.53125 -46.875 C 2.53125 -47.664062 2.894531 -48.1875 3.625 -48.4375 C 4.351562 -48.6875 5.226562 -48.8125 6.25 -48.8125 C 6.769531 -48.8125 7.15625 -48.742188 7.40625 -48.609375 C 7.65625 -48.472656 7.78125 -48.320312 7.78125 -48.15625 L 8.28125 -32.75 C 10.488281 -35.019531 12.535156 -37.332031 14.421875 -39.6875 C 16.304688 -42.039062 17.882812 -44.3125 19.15625 -46.5 C 19.71875 -47.476562 20.195312 -48.15625 20.59375 -48.53125 C 20.988281 -48.90625 21.375 -49.039062 21.75 -48.9375 C 23.019531 -48.5625 23.816406 -48.078125 24.140625 -47.484375 C 24.460938 -46.890625 24.5625 -46.238281 24.4375 -45.53125 C 24.3125 -44.820312 23.96875 -43.945312 23.40625 -42.90625 C 22.84375 -41.863281 22.117188 -40.710938 21.234375 -39.453125 C 20.347656 -38.191406 19.367188 -36.878906 18.296875 -35.515625 C 17.222656 -34.148438 16.101562 -32.789062 14.9375 -31.4375 C 13.769531 -30.082031 12.625 -28.789062 11.5 -27.5625 C 15.375 -20.957031 18.503906 -15.503906 20.890625 -11.203125 C 23.273438 -6.898438 25.09375 -3.644531 26.34375 -1.4375 C 26.507812 -1.144531 26.4375 -0.785156 26.125 -0.359375 C 25.8125 0.0664062 25.363281 0.441406 24.78125 0.765625 C 24.195312 1.085938 23.5625 1.25 22.875 1.25 Z M 22.875 1.25 "/></g></g></g><g fill="#fdfdfd" fill-opacity="1"><g transform="translate(550.693778, 89.173278)"><g><path d="M 4.15625 0.34375 C 3.175781 0.34375 2.351562 0.0078125 1.6875 -0.65625 C 1.019531 -1.320312 0.6875 -2.09375 0.6875 -2.96875 C 0.6875 -3.820312 1.019531 -4.582031 1.6875 -5.25 C 2.351562 -5.914062 3.175781 -6.25 4.15625 -6.25 C 5.113281 -6.25 5.925781 -5.914062 6.59375 -5.25 C 7.257812 -4.582031 7.59375 -3.820312 7.59375 -2.96875 C 7.59375 -2.09375 7.257812 -1.320312 6.59375 -0.65625 C 5.925781 0.0078125 5.113281 0.34375 4.15625 0.34375 Z M 4.15625 0.34375 "/></g></g></g><g fill="#000000" fill-opacity="1"><g transform="translate(35.665111, 87.373278)"><g><path d="M 23.4375 0.75 C 21.457031 0.75 19.726562 0.753906 18.25 0.765625 C 16.769531 0.773438 15.4375 0.695312 14.25 0.53125 C 13.0625 0.363281 11.9375 0.0390625 10.875 -0.4375 C 9.8125 -0.914062 8.707031 -1.644531 7.5625 -2.625 C 6.125 -3.851562 5.097656 -5.800781 4.484375 -8.46875 C 3.867188 -11.132812 3.5625 -14.394531 3.5625 -18.25 C 3.5625 -21.832031 3.648438 -25.03125 3.828125 -27.84375 C 4.003906 -30.65625 4.28125 -33.164062 4.65625 -35.375 C 5.03125 -37.582031 5.53125 -39.554688 6.15625 -41.296875 C 6.78125 -43.035156 7.539062 -44.601562 8.4375 -46 C 9.039062 -46.957031 9.921875 -47.675781 11.078125 -48.15625 C 12.234375 -48.632812 13.585938 -48.957031 15.140625 -49.125 C 16.691406 -49.289062 18.375 -49.375 20.1875 -49.375 C 21.851562 -49.375 23.226562 -49.316406 24.3125 -49.203125 C 25.394531 -49.085938 26.25 -48.84375 26.875 -48.46875 C 27.5 -48.09375 27.957031 -47.53125 28.25 -46.78125 C 28.539062 -46.03125 28.726562 -45.023438 28.8125 -43.765625 C 28.894531 -42.503906 28.9375 -40.914062 28.9375 -39 L 28.9375 -33.875 C 28.9375 -33.289062 28.816406 -32.863281 28.578125 -32.59375 C 28.335938 -32.320312 27.929688 -32.144531 27.359375 -32.0625 C 26.785156 -31.976562 25.976562 -31.914062 24.9375 -31.875 C 24.519531 -31.875 24.1875 -31.9375 23.9375 -32.0625 C 23.6875 -32.1875 23.5625 -32.375 23.5625 -32.625 C 23.8125 -38.976562 23.9375 -42.6875 23.9375 -43.75 C 22.789062 -43.894531 21.578125 -44 20.296875 -44.0625 C 19.015625 -44.125 17.796875 -44.101562 16.640625 -44 C 15.484375 -43.894531 14.488281 -43.6875 13.65625 -43.375 C 12.820312 -43.0625 12.289062 -42.601562 12.0625 -42 C 10.789062 -38.707031 9.890625 -35.210938 9.359375 -31.515625 C 8.828125 -27.816406 8.5625 -23.851562 8.5625 -19.625 C 8.5625 -12 9.726562 -7.332031 12.0625 -5.625 C 12.476562 -5.332031 13.28125 -5.082031 14.46875 -4.875 C 15.65625 -4.664062 17.394531 -4.5 19.6875 -4.375 C 20.164062 -4.414062 20.613281 -4.445312 21.03125 -4.46875 C 21.445312 -4.488281 21.832031 -4.5 22.1875 -4.5 L 22.4375 -16.75 C 20.851562 -16.9375 19.617188 -17.09375 18.734375 -17.21875 C 17.847656 -17.34375 17.1875 -17.457031 16.75 -17.5625 C 16.3125 -17.664062 15.976562 -17.757812 15.75 -17.84375 C 15.476562 -17.988281 15.304688 -18.191406 15.234375 -18.453125 C 15.160156 -18.710938 15.140625 -19 15.171875 -19.3125 C 15.203125 -19.625 15.207031 -19.894531 15.1875 -20.125 C 15.3125 -21.707031 15.6875 -22.5 16.3125 -22.5 C 17.9375 -22.375 19.457031 -22.253906 20.875 -22.140625 C 22.289062 -22.023438 23.507812 -21.910156 24.53125 -21.796875 C 25.550781 -21.679688 26.257812 -21.5625 26.65625 -21.4375 C 26.925781 -21.394531 27.148438 -21.070312 27.328125 -20.46875 C 27.503906 -19.863281 27.640625 -19.070312 27.734375 -18.09375 C 27.828125 -17.113281 27.894531 -16.03125 27.9375 -14.84375 C 27.976562 -13.65625 28.003906 -12.453125 28.015625 -11.234375 C 28.023438 -10.015625 28.023438 -8.863281 28.015625 -7.78125 C 28.003906 -6.695312 27.988281 -5.765625 27.96875 -4.984375 C 27.945312 -4.203125 27.9375 -3.664062 27.9375 -3.375 C 27.9375 -0.625 26.4375 0.75 23.4375 0.75 Z M 23.4375 0.75 "/></g></g></g><g fill="#000000" fill-opacity="1"><g transform="translate(68.536899, 87.373278)"><g><path d="M 16.5 1.53125 C 14.332031 1.53125 12.484375 1.171875 10.953125 0.453125 C 9.421875 -0.265625 8.160156 -1.289062 7.171875 -2.625 C 6.179688 -3.957031 5.410156 -5.535156 4.859375 -7.359375 C 4.304688 -9.179688 3.921875 -11.203125 3.703125 -13.421875 C 3.484375 -15.640625 3.375 -17.988281 3.375 -20.46875 C 3.375 -23.738281 3.460938 -26.8125 3.640625 -29.6875 C 3.816406 -32.5625 4.082031 -35.144531 4.4375 -37.4375 C 4.789062 -39.726562 5.234375 -41.640625 5.765625 -43.171875 C 6.296875 -44.703125 6.914062 -45.757812 7.625 -46.34375 C 8.832031 -47.320312 9.910156 -48.078125 10.859375 -48.609375 C 11.804688 -49.140625 12.675781 -49.519531 13.46875 -49.75 C 14.257812 -49.976562 15.019531 -50.113281 15.75 -50.15625 C 16.476562 -50.195312 17.226562 -50.21875 18 -50.21875 C 19.644531 -50.21875 21.054688 -49.773438 22.234375 -48.890625 C 23.410156 -48.003906 24.394531 -46.757812 25.1875 -45.15625 C 25.976562 -43.550781 26.609375 -41.65625 27.078125 -39.46875 C 27.546875 -37.28125 27.878906 -34.875 28.078125 -32.25 C 28.273438 -29.625 28.375 -26.863281 28.375 -23.96875 C 28.375 -22.113281 28.289062 -20.203125 28.125 -18.234375 C 27.957031 -16.265625 27.679688 -14.328125 27.296875 -12.421875 C 26.910156 -10.515625 26.414062 -8.722656 25.8125 -7.046875 C 25.207031 -5.367188 24.460938 -3.882812 23.578125 -2.59375 C 22.691406 -1.300781 21.664062 -0.289062 20.5 0.4375 C 19.332031 1.164062 18 1.53125 16.5 1.53125 Z M 16.625 -4.03125 C 17.351562 -4.03125 18.019531 -4.4375 18.625 -5.25 C 19.226562 -6.0625 19.773438 -7.160156 20.265625 -8.546875 C 20.753906 -9.929688 21.175781 -11.488281 21.53125 -13.21875 C 21.882812 -14.945312 22.179688 -16.738281 22.421875 -18.59375 C 22.660156 -20.445312 22.835938 -22.25 22.953125 -24 C 23.066406 -25.75 23.125 -27.320312 23.125 -28.71875 C 23.125 -29.65625 23.066406 -30.703125 22.953125 -31.859375 C 22.835938 -33.015625 22.664062 -34.203125 22.4375 -35.421875 C 22.207031 -36.640625 21.929688 -37.816406 21.609375 -38.953125 C 21.285156 -40.085938 20.921875 -41.109375 20.515625 -42.015625 C 20.109375 -42.921875 19.664062 -43.640625 19.1875 -44.171875 C 18.707031 -44.703125 18.1875 -44.96875 17.625 -44.96875 C 16.601562 -44.96875 15.519531 -44.773438 14.375 -44.390625 C 13.226562 -44.003906 12.019531 -43.15625 10.75 -41.84375 C 10.0625 -41.132812 9.59375 -39.269531 9.34375 -36.25 C 9.09375 -33.226562 8.851562 -29.175781 8.625 -24.09375 C 8.539062 -22.257812 8.484375 -20.394531 8.453125 -18.5 C 8.421875 -16.601562 8.507812 -14.789062 8.71875 -13.0625 C 8.925781 -11.332031 9.3125 -9.789062 9.875 -8.4375 C 10.4375 -7.082031 11.257812 -6.007812 12.34375 -5.21875 C 13.425781 -4.425781 14.851562 -4.03125 16.625 -4.03125 Z M 16.625 -4.03125 "/></g></g></g><g fill="#000000" fill-opacity="1"><g transform="translate(100.783749, 87.373278)"><g/></g></g><g fill="#000000" fill-opacity="1"><g transform="translate(116.657198, 87.373278)"><g><path d="M 10.28125 0.1875 C 8.71875 0.1875 7.492188 0.175781 6.609375 0.15625 C 5.722656 0.132812 5.09375 0.0820312 4.71875 0 C 4.34375 -0.0820312 4.15625 -0.226562 4.15625 -0.4375 C 4.050781 -9.375 4.015625 -17.144531 4.046875 -23.75 C 4.078125 -30.351562 4.1875 -35.703125 4.375 -39.796875 C 4.5625 -43.890625 4.820312 -46.601562 5.15625 -47.9375 C 5.15625 -48.25 5.515625 -48.503906 6.234375 -48.703125 C 6.953125 -48.898438 7.894531 -49.050781 9.0625 -49.15625 C 10.226562 -49.257812 11.46875 -49.3125 12.78125 -49.3125 C 16.445312 -49.3125 19.195312 -48.300781 21.03125 -46.28125 C 22.863281 -44.257812 23.78125 -41.476562 23.78125 -37.9375 C 23.78125 -33.539062 22.195312 -30.039062 19.03125 -27.4375 C 21.238281 -26.164062 22.863281 -23.832031 23.90625 -20.4375 C 24.488281 -18.5 24.78125 -15.164062 24.78125 -10.4375 C 24.78125 -8.539062 24.410156 -6.914062 23.671875 -5.5625 C 22.929688 -4.207031 21.898438 -3.109375 20.578125 -2.265625 C 19.253906 -1.421875 17.71875 -0.800781 15.96875 -0.40625 C 14.21875 -0.0078125 12.320312 0.1875 10.28125 0.1875 Z M 9.15625 -29.1875 C 10.550781 -29.1875 11.835938 -29.410156 13.015625 -29.859375 C 14.191406 -30.304688 15.222656 -30.90625 16.109375 -31.65625 C 16.992188 -32.40625 17.679688 -33.25 18.171875 -34.1875 C 18.660156 -35.125 18.90625 -36.082031 18.90625 -37.0625 C 18.90625 -38.644531 18.765625 -39.894531 18.484375 -40.8125 C 18.203125 -41.726562 17.671875 -42.40625 16.890625 -42.84375 C 16.109375 -43.28125 14.945312 -43.5625 13.40625 -43.6875 C 12.78125 -43.75 12.171875 -43.765625 11.578125 -43.734375 C 10.984375 -43.703125 10.34375 -43.65625 9.65625 -43.59375 Z M 9.15625 -4.6875 C 12.78125 -4.601562 15.484375 -5.25 17.265625 -6.625 C 19.046875 -8 19.882812 -9.9375 19.78125 -12.4375 C 19.71875 -14.039062 19.582031 -15.515625 19.375 -16.859375 C 19.164062 -18.203125 18.835938 -19.363281 18.390625 -20.34375 C 17.941406 -21.320312 17.328125 -22.082031 16.546875 -22.625 C 15.765625 -23.164062 14.757812 -23.4375 13.53125 -23.4375 C 12.113281 -23.4375 10.570312 -23.3125 8.90625 -23.0625 C 8.863281 -21.644531 8.832031 -20.476562 8.8125 -19.5625 C 8.789062 -18.644531 8.78125 -17.976562 8.78125 -17.5625 C 8.78125 -13.519531 8.90625 -9.226562 9.15625 -4.6875 Z M 9.15625 -4.6875 "/></g></g></g><g fill="#000000" fill-opacity="1"><g transform="translate(145.935587, 87.373278)"><g><path d="M 6.46875 0 C 5.820312 0 5.285156 -0.0859375 4.859375 -0.265625 C 4.429688 -0.441406 4.21875 -0.6875 4.21875 -1 C 3.84375 -9.9375 3.519531 -18.257812 3.25 -25.96875 C 2.976562 -33.675781 2.757812 -40.769531 2.59375 -47.25 C 2.59375 -47.75 2.722656 -48.109375 2.984375 -48.328125 C 3.242188 -48.546875 3.78125 -48.6875 4.59375 -48.75 L 6.34375 -48.875 C 6.800781 -48.875 7.164062 -48.601562 7.4375 -48.0625 C 7.707031 -47.519531 7.882812 -46.457031 7.96875 -44.875 C 8.132812 -36.976562 8.332031 -29.441406 8.5625 -22.265625 C 8.789062 -15.085938 9.050781 -8.289062 9.34375 -1.875 C 9.34375 -1.25 9.148438 -0.78125 8.765625 -0.46875 C 8.378906 -0.15625 7.613281 0 6.46875 0 Z M 6.46875 0 "/></g></g></g><g fill="#000000" fill-opacity="1"><g transform="translate(158.559354, 87.373278)"><g><path d="M 20.09375 0.6875 C 18.28125 0.6875 16.757812 0.679688 15.53125 0.671875 C 14.300781 0.660156 13.21875 0.640625 12.28125 0.609375 C 11.34375 0.578125 10.429688 0.519531 9.546875 0.4375 C 8.660156 0.351562 7.644531 0.25 6.5 0.125 C 5.125 -0.0390625 4.171875 -0.351562 3.640625 -0.8125 C 3.109375 -1.269531 2.84375 -1.8125 2.84375 -2.4375 C 2.84375 -4.75 3.21875 -7.347656 3.96875 -10.234375 C 4.71875 -13.117188 5.757812 -16.257812 7.09375 -19.65625 C 8.425781 -23.050781 9.96875 -26.675781 11.71875 -30.53125 C 13.46875 -34.382812 15.34375 -38.4375 17.34375 -42.6875 C 16.320312 -42.6875 15.269531 -42.6875 14.1875 -42.6875 C 13.101562 -42.6875 11.90625 -42.679688 10.59375 -42.671875 C 9.28125 -42.660156 7.757812 -42.65625 6.03125 -42.65625 C 5.488281 -42.65625 5.113281 -42.894531 4.90625 -43.375 C 4.695312 -43.851562 4.59375 -44.414062 4.59375 -45.0625 C 4.59375 -46.082031 4.769531 -46.773438 5.125 -47.140625 C 5.476562 -47.503906 6.09375 -47.726562 6.96875 -47.8125 C 7.78125 -47.894531 9.125 -47.957031 11 -48 C 12.875 -48.039062 15.28125 -48.0625 18.21875 -48.0625 C 19.820312 -48.0625 21.039062 -48.019531 21.875 -47.9375 C 22.707031 -47.851562 23.273438 -47.691406 23.578125 -47.453125 C 23.878906 -47.210938 24.007812 -46.875 23.96875 -46.4375 C 23.925781 -45.789062 23.671875 -44.804688 23.203125 -43.484375 C 22.734375 -42.160156 22.125 -40.601562 21.375 -38.8125 C 20.625 -37.019531 19.78125 -35.078125 18.84375 -32.984375 C 17.90625 -30.890625 16.945312 -28.738281 15.96875 -26.53125 C 14.988281 -24.320312 14.035156 -22.132812 13.109375 -19.96875 C 12.179688 -17.800781 11.351562 -15.753906 10.625 -13.828125 C 9.894531 -11.898438 9.3125 -10.171875 8.875 -8.640625 C 8.4375 -7.109375 8.21875 -5.875 8.21875 -4.9375 C 9.863281 -4.726562 11.6875 -4.570312 13.6875 -4.46875 C 15.6875 -4.363281 17.863281 -4.3125 20.21875 -4.3125 C 20.945312 -4.3125 21.484375 -4.132812 21.828125 -3.78125 C 22.171875 -3.425781 22.34375 -2.726562 22.34375 -1.6875 C 22.34375 -1 22.238281 -0.484375 22.03125 -0.140625 C 21.820312 0.203125 21.550781 0.425781 21.21875 0.53125 C 20.882812 0.632812 20.507812 0.6875 20.09375 0.6875 Z M 20.09375 0.6875 "/></g></g></g><g fill="#000000" fill-opacity="1"><g transform="translate(185.837939, 87.373278)"><g><path d="M 6.3125 1 C 5.851562 1 5.425781 0.957031 5.03125 0.875 C 4.632812 0.789062 4.4375 0.664062 4.4375 0.5 C 4.414062 -0.664062 4.394531 -1.675781 4.375 -2.53125 C 4.351562 -3.382812 4.335938 -4.1875 4.328125 -4.9375 C 4.316406 -5.6875 4.3125 -6.457031 4.3125 -7.25 C 4.3125 -8.351562 4.335938 -9.523438 4.390625 -10.765625 C 4.441406 -12.003906 4.519531 -13.445312 4.625 -15.09375 C 4.726562 -16.738281 4.859375 -18.679688 5.015625 -20.921875 C 5.171875 -23.160156 5.351562 -25.8125 5.5625 -28.875 C 5.707031 -30.914062 5.820312 -32.691406 5.90625 -34.203125 C 5.988281 -35.710938 6.109375 -37.035156 6.265625 -38.171875 C 6.421875 -39.304688 6.644531 -40.320312 6.9375 -41.21875 C 7.6875 -43.46875 8.785156 -45.195312 10.234375 -46.40625 C 11.679688 -47.613281 13.5 -48.453125 15.6875 -48.921875 C 17.875 -49.390625 20.457031 -49.625 23.4375 -49.625 C 26.019531 -49.625 27.3125 -48.414062 27.3125 -46 C 27.226562 -41.9375 27.191406 -38.03125 27.203125 -34.28125 C 27.210938 -30.53125 27.28125 -26.847656 27.40625 -23.234375 C 27.53125 -19.617188 27.71875 -15.992188 27.96875 -12.359375 C 28.21875 -8.722656 28.539062 -4.976562 28.9375 -1.125 C 29 -0.769531 28.753906 -0.453125 28.203125 -0.171875 C 27.648438 0.109375 26.851562 0.25 25.8125 0.25 C 24.25 0.144531 23.457031 -0.101562 23.4375 -0.5 L 22.4375 -18.125 C 20.832031 -18.125 18.984375 -18.082031 16.890625 -18 C 14.796875 -17.914062 12.476562 -17.789062 9.9375 -17.625 C 9.832031 -16.125 9.757812 -14.539062 9.71875 -12.875 C 9.675781 -11.207031 9.65625 -9.5625 9.65625 -7.9375 C 9.65625 -6.3125 9.660156 -4.800781 9.671875 -3.40625 C 9.679688 -2.007812 9.6875 -0.832031 9.6875 0.125 C 9.6875 0.375 9.335938 0.582031 8.640625 0.75 C 7.941406 0.914062 7.164062 1 6.3125 1 Z M 10.1875 -22.75 C 11.269531 -22.8125 12.488281 -22.878906 13.84375 -22.953125 C 15.195312 -23.023438 16.609375 -23.097656 18.078125 -23.171875 C 19.546875 -23.242188 20.957031 -23.3125 22.3125 -23.375 C 22.226562 -25.019531 22.164062 -26.6875 22.125 -28.375 C 22.082031 -30.0625 22.0625 -31.789062 22.0625 -33.5625 C 22.0625 -35.332031 22.082031 -37.109375 22.125 -38.890625 C 22.164062 -40.671875 22.226562 -42.445312 22.3125 -44.21875 C 21.1875 -44.21875 20.054688 -44.164062 18.921875 -44.0625 C 17.785156 -43.957031 16.707031 -43.742188 15.6875 -43.421875 C 14.664062 -43.097656 13.75 -42.582031 12.9375 -41.875 C 12.394531 -41.414062 12.003906 -40.769531 11.765625 -39.9375 C 11.523438 -39.101562 11.359375 -38.09375 11.265625 -36.90625 C 11.171875 -35.71875 11.0625 -34.332031 10.9375 -32.75 C 10.894531 -32.039062 10.800781 -30.859375 10.65625 -29.203125 C 10.507812 -27.546875 10.351562 -25.394531 10.1875 -22.75 Z M 10.1875 -22.75 "/></g></g></g><g fill="#000000" fill-opacity="1"><g transform="translate(218.709727, 87.373278)"><g><path d="M 6.21875 1.53125 C 5.84375 1.53125 5.519531 1.394531 5.25 1.125 C 4.976562 0.851562 4.84375 0.488281 4.84375 0.03125 L 4.78125 -29.96875 L 4.78125 -45.21875 C 4.78125 -46.09375 4.921875 -46.753906 5.203125 -47.203125 C 5.484375 -47.648438 5.945312 -47.9375 6.59375 -48.0625 C 7.113281 -48.164062 7.765625 -48.238281 8.546875 -48.28125 C 9.328125 -48.320312 10.195312 -48.34375 11.15625 -48.34375 C 14.425781 -48.34375 17.164062 -47.675781 19.375 -46.34375 C 21.582031 -45.007812 23.132812 -42.96875 24.03125 -40.21875 C 24.320312 -39.363281 24.539062 -38.375 24.6875 -37.25 C 24.832031 -36.125 24.90625 -34.863281 24.90625 -33.46875 C 24.90625 -31.007812 24.347656 -28.851562 23.234375 -27 C 22.117188 -25.144531 20.382812 -23.34375 18.03125 -21.59375 C 18.550781 -20.40625 19.109375 -19.097656 19.703125 -17.671875 C 20.296875 -16.242188 20.894531 -14.773438 21.5 -13.265625 C 22.101562 -11.753906 22.6875 -10.269531 23.25 -8.8125 C 23.8125 -7.351562 24.320312 -5.992188 24.78125 -4.734375 C 25.238281 -3.472656 25.613281 -2.382812 25.90625 -1.46875 C 26.050781 -1.03125 25.96875 -0.613281 25.65625 -0.21875 C 25.34375 0.175781 24.929688 0.5 24.421875 0.75 C 23.910156 1 23.40625 1.148438 22.90625 1.203125 C 22.40625 1.253906 22.03125 1.15625 21.78125 0.90625 C 21.613281 0.738281 21.347656 0.265625 20.984375 -0.515625 C 20.617188 -1.296875 20.1875 -2.289062 19.6875 -3.5 C 19.1875 -4.707031 18.648438 -6.035156 18.078125 -7.484375 C 17.503906 -8.929688 16.914062 -10.410156 16.3125 -11.921875 C 15.707031 -13.429688 15.128906 -14.894531 14.578125 -16.3125 C 14.023438 -17.726562 13.519531 -18.988281 13.0625 -20.09375 L 10.125 -19.875 C 10.082031 -18.875 10.046875 -17.71875 10.015625 -16.40625 C 9.984375 -15.09375 9.953125 -13.707031 9.921875 -12.25 C 9.890625 -10.789062 9.859375 -9.320312 9.828125 -7.84375 C 9.796875 -6.363281 9.765625 -4.953125 9.734375 -3.609375 C 9.703125 -2.265625 9.664062 -1.0625 9.625 0 C 9.601562 0.644531 9.421875 1.0625 9.078125 1.25 C 8.734375 1.4375 8.320312 1.53125 7.84375 1.53125 Z M 9.90625 -25.40625 C 11.195312 -25.34375 12.429688 -25.507812 13.609375 -25.90625 C 14.785156 -26.300781 15.835938 -26.925781 16.765625 -27.78125 C 17.691406 -28.632812 18.425781 -29.703125 18.96875 -30.984375 C 19.507812 -32.265625 19.78125 -33.757812 19.78125 -35.46875 C 19.78125 -40.550781 16.53125 -43.09375 10.03125 -43.09375 C 9.945312 -41.40625 9.882812 -39.65625 9.84375 -37.84375 C 9.800781 -36.03125 9.78125 -34.15625 9.78125 -32.21875 C 9.78125 -31.570312 9.789062 -30.65625 9.8125 -29.46875 C 9.832031 -28.28125 9.863281 -26.925781 9.90625 -25.40625 Z M 9.90625 -25.40625 "/></g></g></g><g fill="#000000" fill-opacity="1"><g transform="translate(248.644302, 87.373278)"><g><path d="M 6.21875 1.53125 C 5.84375 1.53125 5.519531 1.394531 5.25 1.125 C 4.976562 0.851562 4.84375 0.488281 4.84375 0.03125 L 4.78125 -29.96875 L 4.78125 -45.21875 C 4.78125 -46.09375 4.921875 -46.753906 5.203125 -47.203125 C 5.484375 -47.648438 5.945312 -47.9375 6.59375 -48.0625 C 7.113281 -48.164062 7.765625 -48.238281 8.546875 -48.28125 C 9.328125 -48.320312 10.195312 -48.34375 11.15625 -48.34375 C 14.425781 -48.34375 17.164062 -47.675781 19.375 -46.34375 C 21.582031 -45.007812 23.132812 -42.96875 24.03125 -40.21875 C 24.320312 -39.363281 24.539062 -38.375 24.6875 -37.25 C 24.832031 -36.125 24.90625 -34.863281 24.90625 -33.46875 C 24.90625 -31.007812 24.347656 -28.851562 23.234375 -27 C 22.117188 -25.144531 20.382812 -23.34375 18.03125 -21.59375 C 18.550781 -20.40625 19.109375 -19.097656 19.703125 -17.671875 C 20.296875 -16.242188 20.894531 -14.773438 21.5 -13.265625 C 22.101562 -11.753906 22.6875 -10.269531 23.25 -8.8125 C 23.8125 -7.351562 24.320312 -5.992188 24.78125 -4.734375 C 25.238281 -3.472656 25.613281 -2.382812 25.90625 -1.46875 C 26.050781 -1.03125 25.96875 -0.613281 25.65625 -0.21875 C 25.34375 0.175781 24.929688 0.5 24.421875 0.75 C 23.910156 1 23.40625 1.148438 22.90625 1.203125 C 22.40625 1.253906 22.03125 1.15625 21.78125 0.90625 C 21.613281 0.738281 21.347656 0.265625 20.984375 -0.515625 C 20.617188 -1.296875 20.1875 -2.289062 19.6875 -3.5 C 19.1875 -4.707031 18.648438 -6.035156 18.078125 -7.484375 C 17.503906 -8.929688 16.914062 -10.410156 16.3125 -11.921875 C 15.707031 -13.429688 15.128906 -14.894531 14.578125 -16.3125 C 14.023438 -17.726562 13.519531 -18.988281 13.0625 -20.09375 L 10.125 -19.875 C 10.082031 -18.875 10.046875 -17.71875 10.015625 -16.40625 C 9.984375 -15.09375 9.953125 -13.707031 9.921875 -12.25 C 9.890625 -10.789062 9.859375 -9.320312 9.828125 -7.84375 C 9.796875 -6.363281 9.765625 -4.953125 9.734375 -3.609375 C 9.703125 -2.265625 9.664062 -1.0625 9.625 0 C 9.601562 0.644531 9.421875 1.0625 9.078125 1.25 C 8.734375 1.4375 8.320312 1.53125 7.84375 1.53125 Z M 9.90625 -25.40625 C 11.195312 -25.34375 12.429688 -25.507812 13.609375 -25.90625 C 14.785156 -26.300781 15.835938 -26.925781 16.765625 -27.78125 C 17.691406 -28.632812 18.425781 -29.703125 18.96875 -30.984375 C 19.507812 -32.265625 19.78125 -33.757812 19.78125 -35.46875 C 19.78125 -40.550781 16.53125 -43.09375 10.03125 -43.09375 C 9.945312 -41.40625 9.882812 -39.65625 9.84375 -37.84375 C 9.800781 -36.03125 9.78125 -34.15625 9.78125 -32.21875 C 9.78125 -31.570312 9.789062 -30.65625 9.8125 -29.46875 C 9.832031 -28.28125 9.863281 -26.925781 9.90625 -25.40625 Z M 9.90625 -25.40625 "/></g></g></g><g fill="#000000" fill-opacity="1"><g transform="translate(278.578878, 87.373278)"><g><path d="M 5.59375 -0.125 C 5.320312 -0.125 5.132812 -0.242188 5.03125 -0.484375 C 4.925781 -0.722656 4.867188 -1.023438 4.859375 -1.390625 C 4.847656 -1.753906 4.84375 -2.125 4.84375 -2.5 L 4.84375 -19.5 C 4.84375 -27.769531 4.34375 -36.976562 3.34375 -47.125 C 3.28125 -47.539062 3.5 -47.851562 4 -48.0625 C 4.5 -48.269531 5.113281 -48.375 5.84375 -48.375 L 20.46875 -48.375 C 20.695312 -48.375 20.835938 -48.113281 20.890625 -47.59375 C 20.941406 -47.070312 20.96875 -46.207031 20.96875 -45 C 20.96875 -44 20.507812 -43.5 19.59375 -43.5 C 18.15625 -43.5 16.835938 -43.492188 15.640625 -43.484375 C 14.441406 -43.472656 13.296875 -43.445312 12.203125 -43.40625 C 11.109375 -43.363281 9.988281 -43.3125 8.84375 -43.25 C 8.84375 -42.625 9.09375 -37.664062 9.59375 -28.375 L 18.34375 -28.625 C 19.007812 -28.625 19.34375 -27.707031 19.34375 -25.875 C 19.34375 -24.289062 18.84375 -23.5 17.84375 -23.5 L 9.71875 -23.125 C 9.800781 -18.851562 9.882812 -15.257812 9.96875 -12.34375 C 10.050781 -9.425781 10.132812 -7.15625 10.21875 -5.53125 C 10.96875 -5.570312 11.894531 -5.625 13 -5.6875 C 14.101562 -5.75 15.3125 -5.816406 16.625 -5.890625 C 17.9375 -5.960938 19.28125 -6.039062 20.65625 -6.125 C 21.21875 -6.125 21.566406 -5.890625 21.703125 -5.421875 C 21.835938 -4.953125 21.90625 -4.101562 21.90625 -2.875 C 21.90625 -2.125 21.75 -1.582031 21.4375 -1.25 C 21.125 -0.914062 20.488281 -0.707031 19.53125 -0.625 C 16.675781 -0.457031 14.039062 -0.332031 11.625 -0.25 C 9.207031 -0.164062 7.195312 -0.125 5.59375 -0.125 Z M 5.59375 -0.125 "/></g></g></g><g fill="#000000" fill-opacity="1"><g transform="translate(303.295203, 87.373278)"><g><path d="M 4.15625 0.34375 C 3.175781 0.34375 2.351562 0.0078125 1.6875 -0.65625 C 1.019531 -1.320312 0.6875 -2.09375 0.6875 -2.96875 C 0.6875 -3.820312 1.019531 -4.582031 1.6875 -5.25 C 2.351562 -5.914062 3.175781 -6.25 4.15625 -6.25 C 5.113281 -6.25 5.925781 -5.914062 6.59375 -5.25 C 7.257812 -4.582031 7.59375 -3.820312 7.59375 -2.96875 C 7.59375 -2.09375 7.257812 -1.320312 6.59375 -0.65625 C 5.925781 0.0078125 5.113281 0.34375 4.15625 0.34375 Z M 4.15625 0.34375 "/></g></g></g><g fill="#000000" fill-opacity="1"><g transform="translate(314.919068, 87.373278)"><g/></g></g><g fill="#000000" fill-opacity="1"><g transform="translate(330.792517, 87.373278)"><g><path d="M 23.4375 0.75 C 21.457031 0.75 19.726562 0.753906 18.25 0.765625 C 16.769531 0.773438 15.4375 0.695312 14.25 0.53125 C 13.0625 0.363281 11.9375 0.0390625 10.875 -0.4375 C 9.8125 -0.914062 8.707031 -1.644531 7.5625 -2.625 C 6.125 -3.851562 5.097656 -5.800781 4.484375 -8.46875 C 3.867188 -11.132812 3.5625 -14.394531 3.5625 -18.25 C 3.5625 -21.832031 3.648438 -25.03125 3.828125 -27.84375 C 4.003906 -30.65625 4.28125 -33.164062 4.65625 -35.375 C 5.03125 -37.582031 5.53125 -39.554688 6.15625 -41.296875 C 6.78125 -43.035156 7.539062 -44.601562 8.4375 -46 C 9.039062 -46.957031 9.921875 -47.675781 11.078125 -48.15625 C 12.234375 -48.632812 13.585938 -48.957031 15.140625 -49.125 C 16.691406 -49.289062 18.375 -49.375 20.1875 -49.375 C 21.851562 -49.375 23.226562 -49.316406 24.3125 -49.203125 C 25.394531 -49.085938 26.25 -48.84375 26.875 -48.46875 C 27.5 -48.09375 27.957031 -47.53125 28.25 -46.78125 C 28.539062 -46.03125 28.726562 -45.023438 28.8125 -43.765625 C 28.894531 -42.503906 28.9375 -40.914062 28.9375 -39 L 28.9375 -33.875 C 28.9375 -33.289062 28.816406 -32.863281 28.578125 -32.59375 C 28.335938 -32.320312 27.929688 -32.144531 27.359375 -32.0625 C 26.785156 -31.976562 25.976562 -31.914062 24.9375 -31.875 C 24.519531 -31.875 24.1875 -31.9375 23.9375 -32.0625 C 23.6875 -32.1875 23.5625 -32.375 23.5625 -32.625 C 23.8125 -38.976562 23.9375 -42.6875 23.9375 -43.75 C 22.789062 -43.894531 21.578125 -44 20.296875 -44.0625 C 19.015625 -44.125 17.796875 -44.101562 16.640625 -44 C 15.484375 -43.894531 14.488281 -43.6875 13.65625 -43.375 C 12.820312 -43.0625 12.289062 -42.601562 12.0625 -42 C 10.789062 -38.707031 9.890625 -35.210938 9.359375 -31.515625 C 8.828125 -27.816406 8.5625 -23.851562 8.5625 -19.625 C 8.5625 -12 9.726562 -7.332031 12.0625 -5.625 C 12.476562 -5.332031 13.28125 -5.082031 14.46875 -4.875 C 15.65625 -4.664062 17.394531 -4.5 19.6875 -4.375 C 20.164062 -4.414062 20.613281 -4.445312 21.03125 -4.46875 C 21.445312 -4.488281 21.832031 -4.5 22.1875 -4.5 L 22.4375 -16.75 C 20.851562 -16.9375 19.617188 -17.09375 18.734375 -17.21875 C 17.847656 -17.34375 17.1875 -17.457031 16.75 -17.5625 C 16.3125 -17.664062 15.976562 -17.757812 15.75 -17.84375 C 15.476562 -17.988281 15.304688 -18.191406 15.234375 -18.453125 C 15.160156 -18.710938 15.140625 -19 15.171875 -19.3125 C 15.203125 -19.625 15.207031 -19.894531 15.1875 -20.125 C 15.3125 -21.707031 15.6875 -22.5 16.3125 -22.5 C 17.9375 -22.375 19.457031 -22.253906 20.875 -22.140625 C 22.289062 -22.023438 23.507812 -21.910156 24.53125 -21.796875 C 25.550781 -21.679688 26.257812 -21.5625 26.65625 -21.4375 C 26.925781 -21.394531 27.148438 -21.070312 27.328125 -20.46875 C 27.503906 -19.863281 27.640625 -19.070312 27.734375 -18.09375 C 27.828125 -17.113281 27.894531 -16.03125 27.9375 -14.84375 C 27.976562 -13.65625 28.003906 -12.453125 28.015625 -11.234375 C 28.023438 -10.015625 28.023438 -8.863281 28.015625 -7.78125 C 28.003906 -6.695312 27.988281 -5.765625 27.96875 -4.984375 C 27.945312 -4.203125 27.9375 -3.664062 27.9375 -3.375 C 27.9375 -0.625 26.4375 0.75 23.4375 0.75 Z M 23.4375 0.75 "/></g></g></g><g fill="#000000" fill-opacity="1"><g transform="translate(363.664305, 87.373278)"><g><path d="M 5.59375 -0.125 C 5.320312 -0.125 5.132812 -0.242188 5.03125 -0.484375 C 4.925781 -0.722656 4.867188 -1.023438 4.859375 -1.390625 C 4.847656 -1.753906 4.84375 -2.125 4.84375 -2.5 L 4.84375 -19.5 C 4.84375 -27.769531 4.34375 -36.976562 3.34375 -47.125 C 3.28125 -47.539062 3.5 -47.851562 4 -48.0625 C 4.5 -48.269531 5.113281 -48.375 5.84375 -48.375 L 20.46875 -48.375 C 20.695312 -48.375 20.835938 -48.113281 20.890625 -47.59375 C 20.941406 -47.070312 20.96875 -46.207031 20.96875 -45 C 20.96875 -44 20.507812 -43.5 19.59375 -43.5 C 18.15625 -43.5 16.835938 -43.492188 15.640625 -43.484375 C 14.441406 -43.472656 13.296875 -43.445312 12.203125 -43.40625 C 11.109375 -43.363281 9.988281 -43.3125 8.84375 -43.25 C 8.84375 -42.625 9.09375 -37.664062 9.59375 -28.375 L 18.34375 -28.625 C 19.007812 -28.625 19.34375 -27.707031 19.34375 -25.875 C 19.34375 -24.289062 18.84375 -23.5 17.84375 -23.5 L 9.71875 -23.125 C 9.800781 -18.851562 9.882812 -15.257812 9.96875 -12.34375 C 10.050781 -9.425781 10.132812 -7.15625 10.21875 -5.53125 C 10.96875 -5.570312 11.894531 -5.625 13 -5.6875 C 14.101562 -5.75 15.3125 -5.816406 16.625 -5.890625 C 17.9375 -5.960938 19.28125 -6.039062 20.65625 -6.125 C 21.21875 -6.125 21.566406 -5.890625 21.703125 -5.421875 C 21.835938 -4.953125 21.90625 -4.101562 21.90625 -2.875 C 21.90625 -2.125 21.75 -1.582031 21.4375 -1.25 C 21.125 -0.914062 20.488281 -0.707031 19.53125 -0.625 C 16.675781 -0.457031 14.039062 -0.332031 11.625 -0.25 C 9.207031 -0.164062 7.195312 -0.125 5.59375 -0.125 Z M 5.59375 -0.125 "/></g></g></g><g fill="#000000" fill-opacity="1"><g transform="translate(388.38065, 87.373278)"><g><path d="M 15.09375 0.40625 C 13.945312 0.40625 13.160156 0.285156 12.734375 0.046875 C 12.304688 -0.191406 12.09375 -0.59375 12.09375 -1.15625 C 12.09375 -4.007812 12.085938 -8.921875 12.078125 -15.890625 C 12.066406 -22.859375 12.082031 -31.757812 12.125 -42.59375 L 3.15625 -42.25 C 2.59375 -42.25 2.253906 -42.421875 2.140625 -42.765625 C 2.023438 -43.109375 1.96875 -43.425781 1.96875 -43.71875 C 1.96875 -44.507812 2.039062 -45.144531 2.1875 -45.625 C 2.332031 -46.101562 2.6875 -46.46875 3.25 -46.71875 C 3.8125 -46.96875 4.71875 -47.132812 5.96875 -47.21875 C 13.070312 -47.71875 17.738281 -47.96875 19.96875 -47.96875 C 21.84375 -47.96875 23.328125 -47.929688 24.421875 -47.859375 C 25.515625 -47.785156 26.296875 -47.632812 26.765625 -47.40625 C 27.234375 -47.175781 27.46875 -46.820312 27.46875 -46.34375 C 27.46875 -45.09375 27.378906 -44.238281 27.203125 -43.78125 C 27.023438 -43.320312 26.613281 -43.09375 25.96875 -43.09375 C 24.800781 -43.09375 23.519531 -43.070312 22.125 -43.03125 C 20.726562 -42.988281 19.113281 -42.925781 17.28125 -42.84375 C 17.28125 -42.070312 17.28125 -41.226562 17.28125 -40.3125 C 17.28125 -39.394531 17.285156 -38.300781 17.296875 -37.03125 C 17.304688 -35.757812 17.316406 -34.21875 17.328125 -32.40625 C 17.335938 -30.59375 17.34375 -28.425781 17.34375 -25.90625 C 17.34375 -23.382812 17.34375 -20.40625 17.34375 -16.96875 C 17.34375 -14.09375 17.320312 -11.28125 17.28125 -8.53125 C 17.238281 -5.78125 17.175781 -3.09375 17.09375 -0.46875 C 17.09375 -0.175781 16.882812 0.0390625 16.46875 0.1875 C 16.050781 0.332031 15.59375 0.40625 15.09375 0.40625 Z M 15.09375 0.40625 "/></g></g></g><g fill="#000000" fill-opacity="1"><g transform="translate(418.033993, 87.373278)"><g/></g></g><g fill="#000000" fill-opacity="1"><g transform="translate(433.907442, 87.373278)"><g><path d="M 10.28125 0.1875 C 8.71875 0.1875 7.492188 0.175781 6.609375 0.15625 C 5.722656 0.132812 5.09375 0.0820312 4.71875 0 C 4.34375 -0.0820312 4.15625 -0.226562 4.15625 -0.4375 C 4.050781 -9.375 4.015625 -17.144531 4.046875 -23.75 C 4.078125 -30.351562 4.1875 -35.703125 4.375 -39.796875 C 4.5625 -43.890625 4.820312 -46.601562 5.15625 -47.9375 C 5.15625 -48.25 5.515625 -48.503906 6.234375 -48.703125 C 6.953125 -48.898438 7.894531 -49.050781 9.0625 -49.15625 C 10.226562 -49.257812 11.46875 -49.3125 12.78125 -49.3125 C 16.445312 -49.3125 19.195312 -48.300781 21.03125 -46.28125 C 22.863281 -44.257812 23.78125 -41.476562 23.78125 -37.9375 C 23.78125 -33.539062 22.195312 -30.039062 19.03125 -27.4375 C 21.238281 -26.164062 22.863281 -23.832031 23.90625 -20.4375 C 24.488281 -18.5 24.78125 -15.164062 24.78125 -10.4375 C 24.78125 -8.539062 24.410156 -6.914062 23.671875 -5.5625 C 22.929688 -4.207031 21.898438 -3.109375 20.578125 -2.265625 C 19.253906 -1.421875 17.71875 -0.800781 15.96875 -0.40625 C 14.21875 -0.0078125 12.320312 0.1875 10.28125 0.1875 Z M 9.15625 -29.1875 C 10.550781 -29.1875 11.835938 -29.410156 13.015625 -29.859375 C 14.191406 -30.304688 15.222656 -30.90625 16.109375 -31.65625 C 16.992188 -32.40625 17.679688 -33.25 18.171875 -34.1875 C 18.660156 -35.125 18.90625 -36.082031 18.90625 -37.0625 C 18.90625 -38.644531 18.765625 -39.894531 18.484375 -40.8125 C 18.203125 -41.726562 17.671875 -42.40625 16.890625 -42.84375 C 16.109375 -43.28125 14.945312 -43.5625 13.40625 -43.6875 C 12.78125 -43.75 12.171875 -43.765625 11.578125 -43.734375 C 10.984375 -43.703125 10.34375 -43.65625 9.65625 -43.59375 Z M 9.15625 -4.6875 C 12.78125 -4.601562 15.484375 -5.25 17.265625 -6.625 C 19.046875 -8 19.882812 -9.9375 19.78125 -12.4375 C 19.71875 -14.039062 19.582031 -15.515625 19.375 -16.859375 C 19.164062 -18.203125 18.835938 -19.363281 18.390625 -20.34375 C 17.941406 -21.320312 17.328125 -22.082031 16.546875 -22.625 C 15.765625 -23.164062 14.757812 -23.4375 13.53125 -23.4375 C 12.113281 -23.4375 10.570312 -23.3125 8.90625 -23.0625 C 8.863281 -21.644531 8.832031 -20.476562 8.8125 -19.5625 C 8.789062 -18.644531 8.78125 -17.976562 8.78125 -17.5625 C 8.78125 -13.519531 8.90625 -9.226562 9.15625 -4.6875 Z M 9.15625 -4.6875 "/></g></g></g><g fill="#000000" fill-opacity="1"><g transform="translate(463.185822, 87.373278)"><g><path d="M 6.3125 1 C 5.851562 1 5.425781 0.957031 5.03125 0.875 C 4.632812 0.789062 4.4375 0.664062 4.4375 0.5 C 4.414062 -0.664062 4.394531 -1.675781 4.375 -2.53125 C 4.351562 -3.382812 4.335938 -4.1875 4.328125 -4.9375 C 4.316406 -5.6875 4.3125 -6.457031 4.3125 -7.25 C 4.3125 -8.351562 4.335938 -9.523438 4.390625 -10.765625 C 4.441406 -12.003906 4.519531 -13.445312 4.625 -15.09375 C 4.726562 -16.738281 4.859375 -18.679688 5.015625 -20.921875 C 5.171875 -23.160156 5.351562 -25.8125 5.5625 -28.875 C 5.707031 -30.914062 5.820312 -32.691406 5.90625 -34.203125 C 5.988281 -35.710938 6.109375 -37.035156 6.265625 -38.171875 C 6.421875 -39.304688 6.644531 -40.320312 6.9375 -41.21875 C 7.6875 -43.46875 8.785156 -45.195312 10.234375 -46.40625 C 11.679688 -47.613281 13.5 -48.453125 15.6875 -48.921875 C 17.875 -49.390625 20.457031 -49.625 23.4375 -49.625 C 26.019531 -49.625 27.3125 -48.414062 27.3125 -46 C 27.226562 -41.9375 27.191406 -38.03125 27.203125 -34.28125 C 27.210938 -30.53125 27.28125 -26.847656 27.40625 -23.234375 C 27.53125 -19.617188 27.71875 -15.992188 27.96875 -12.359375 C 28.21875 -8.722656 28.539062 -4.976562 28.9375 -1.125 C 29 -0.769531 28.753906 -0.453125 28.203125 -0.171875 C 27.648438 0.109375 26.851562 0.25 25.8125 0.25 C 24.25 0.144531 23.457031 -0.101562 23.4375 -0.5 L 22.4375 -18.125 C 20.832031 -18.125 18.984375 -18.082031 16.890625 -18 C 14.796875 -17.914062 12.476562 -17.789062 9.9375 -17.625 C 9.832031 -16.125 9.757812 -14.539062 9.71875 -12.875 C 9.675781 -11.207031 9.65625 -9.5625 9.65625 -7.9375 C 9.65625 -6.3125 9.660156 -4.800781 9.671875 -3.40625 C 9.679688 -2.007812 9.6875 -0.832031 9.6875 0.125 C 9.6875 0.375 9.335938 0.582031 8.640625 0.75 C 7.941406 0.914062 7.164062 1 6.3125 1 Z M 10.1875 -22.75 C 11.269531 -22.8125 12.488281 -22.878906 13.84375 -22.953125 C 15.195312 -23.023438 16.609375 -23.097656 18.078125 -23.171875 C 19.546875 -23.242188 20.957031 -23.3125 22.3125 -23.375 C 22.226562 -25.019531 22.164062 -26.6875 22.125 -28.375 C 22.082031 -30.0625 22.0625 -31.789062 22.0625 -33.5625 C 22.0625 -35.332031 22.082031 -37.109375 22.125 -38.890625 C 22.164062 -40.671875 22.226562 -42.445312 22.3125 -44.21875 C 21.1875 -44.21875 20.054688 -44.164062 18.921875 -44.0625 C 17.785156 -43.957031 16.707031 -43.742188 15.6875 -43.421875 C 14.664062 -43.097656 13.75 -42.582031 12.9375 -41.875 C 12.394531 -41.414062 12.003906 -40.769531 11.765625 -39.9375 C 11.523438 -39.101562 11.359375 -38.09375 11.265625 -36.90625 C 11.171875 -35.71875 11.0625 -34.332031 10.9375 -32.75 C 10.894531 -32.039062 10.800781 -30.859375 10.65625 -29.203125 C 10.507812 -27.546875 10.351562 -25.394531 10.1875 -22.75 Z M 10.1875 -22.75 "/></g></g></g><g fill="#000000" fill-opacity="1"><g transform="translate(496.057647, 87.373278)"><g><path d="M 22.71875 2.03125 C 21.84375 1.988281 21.023438 1.835938 20.265625 1.578125 C 19.503906 1.316406 19.039062 0.800781 18.875 0.03125 C 18.101562 -3.070312 17.300781 -6.148438 16.46875 -9.203125 C 15.632812 -12.253906 14.789062 -15.207031 13.9375 -18.0625 C 13.082031 -20.914062 12.25 -23.582031 11.4375 -26.0625 C 10.625 -28.539062 9.851562 -30.757812 9.125 -32.71875 C 9.207031 -30.363281 9.265625 -28.21875 9.296875 -26.28125 C 9.328125 -24.34375 9.347656 -22.523438 9.359375 -20.828125 C 9.367188 -19.128906 9.367188 -17.472656 9.359375 -15.859375 C 9.347656 -14.242188 9.328125 -12.582031 9.296875 -10.875 C 9.265625 -9.164062 9.234375 -7.332031 9.203125 -5.375 C 9.171875 -3.414062 9.144531 -1.238281 9.125 1.15625 C 9.125 1.40625 8.9375 1.59375 8.5625 1.71875 C 8.1875 1.84375 7.832031 1.90625 7.5 1.90625 C 6.289062 1.90625 5.445312 1.75 4.96875 1.4375 C 4.488281 1.125 4.25 0.519531 4.25 -0.375 C 4.226562 -4.25 4.207031 -8 4.1875 -11.625 C 4.164062 -15.25 4.148438 -18.832031 4.140625 -22.375 C 4.128906 -25.914062 4.125 -29.488281 4.125 -33.09375 C 4.125 -34.050781 4.113281 -35.132812 4.09375 -36.34375 C 4.070312 -37.550781 4.050781 -38.773438 4.03125 -40.015625 C 4.007812 -41.253906 3.988281 -42.414062 3.96875 -43.5 C 3.945312 -44.582031 3.925781 -45.472656 3.90625 -46.171875 C 3.882812 -46.867188 3.875 -47.257812 3.875 -47.34375 C 3.875 -47.882812 4.125 -48.3125 4.625 -48.625 C 5.125 -48.9375 5.875 -49.09375 6.875 -49.09375 C 7.4375 -49.09375 7.890625 -48.945312 8.234375 -48.65625 C 8.578125 -48.363281 8.863281 -47.984375 9.09375 -47.515625 C 9.320312 -47.046875 9.53125 -46.539062 9.71875 -46 C 10.738281 -43.707031 11.820312 -41 12.96875 -37.875 C 14.113281 -34.75 15.273438 -31.359375 16.453125 -27.703125 C 17.628906 -24.046875 18.769531 -20.257812 19.875 -16.34375 C 20.039062 -19.925781 20.164062 -23.789062 20.25 -27.9375 C 20.332031 -32.082031 20.375 -36.507812 20.375 -41.21875 L 20.375 -47.96875 C 20.375 -48.632812 20.789062 -48.96875 21.625 -48.96875 C 22.832031 -48.96875 23.738281 -48.828125 24.34375 -48.546875 C 24.945312 -48.265625 25.25 -47.707031 25.25 -46.875 C 25.25 -39.976562 25.1875 -32.503906 25.0625 -24.453125 C 24.9375 -16.398438 24.75 -7.90625 24.5 1.03125 C 24.5 1.738281 23.90625 2.070312 22.71875 2.03125 Z M 22.71875 2.03125 "/></g></g></g><g fill="#000000" fill-opacity="1"><g transform="translate(524.992301, 87.373278)"><g><path d="M 22.875 1.25 C 22.289062 1.25 21.71875 0.765625 21.15625 -0.203125 C 20.59375 -1.171875 19.800781 -2.476562 18.78125 -4.125 C 18.507812 -4.582031 18.125 -5.25 17.625 -6.125 C 17.125 -7 16.554688 -8 15.921875 -9.125 C 15.285156 -10.25 14.628906 -11.421875 13.953125 -12.640625 C 13.273438 -13.859375 12.613281 -15.039062 11.96875 -16.1875 C 11.320312 -17.332031 10.726562 -18.367188 10.1875 -19.296875 C 9.644531 -20.222656 9.207031 -20.960938 8.875 -21.515625 C 8.539062 -22.066406 8.34375 -22.332031 8.28125 -22.3125 C 8.570312 -17.332031 8.796875 -13.15625 8.953125 -9.78125 C 9.109375 -6.40625 9.1875 -3.84375 9.1875 -2.09375 C 9.1875 -1.257812 8.835938 -0.671875 8.140625 -0.328125 C 7.441406 0.015625 6.550781 0.15625 5.46875 0.09375 C 4.363281 0.03125 3.8125 -0.394531 3.8125 -1.1875 C 3.8125 -2.1875 3.703125 -6.492188 3.484375 -14.109375 C 3.265625 -21.722656 2.945312 -32.644531 2.53125 -46.875 C 2.53125 -47.664062 2.894531 -48.1875 3.625 -48.4375 C 4.351562 -48.6875 5.226562 -48.8125 6.25 -48.8125 C 6.769531 -48.8125 7.15625 -48.742188 7.40625 -48.609375 C 7.65625 -48.472656 7.78125 -48.320312 7.78125 -48.15625 L 8.28125 -32.75 C 10.488281 -35.019531 12.535156 -37.332031 14.421875 -39.6875 C 16.304688 -42.039062 17.882812 -44.3125 19.15625 -46.5 C 19.71875 -47.476562 20.195312 -48.15625 20.59375 -48.53125 C 20.988281 -48.90625 21.375 -49.039062 21.75 -48.9375 C 23.019531 -48.5625 23.816406 -48.078125 24.140625 -47.484375 C 24.460938 -46.890625 24.5625 -46.238281 24.4375 -45.53125 C 24.3125 -44.820312 23.96875 -43.945312 23.40625 -42.90625 C 22.84375 -41.863281 22.117188 -40.710938 21.234375 -39.453125 C 20.347656 -38.191406 19.367188 -36.878906 18.296875 -35.515625 C 17.222656 -34.148438 16.101562 -32.789062 14.9375 -31.4375 C 13.769531 -30.082031 12.625 -28.789062 11.5 -27.5625 C 15.375 -20.957031 18.503906 -15.503906 20.890625 -11.203125 C 23.273438 -6.898438 25.09375 -3.644531 26.34375 -1.4375 C 26.507812 -1.144531 26.4375 -0.785156 26.125 -0.359375 C 25.8125 0.0664062 25.363281 0.441406 24.78125 0.765625 C 24.195312 1.085938 23.5625 1.25 22.875 1.25 Z M 22.875 1.25 "/></g></g></g><g fill="#000000" fill-opacity="1"><g transform="translate(553.67698, 87.373278)"><g><path d="M 4.15625 0.34375 C 3.175781 0.34375 2.351562 0.0078125 1.6875 -0.65625 C 1.019531 -1.320312 0.6875 -2.09375 0.6875 -2.96875 C 0.6875 -3.820312 1.019531 -4.582031 1.6875 -5.25 C 2.351562 -5.914062 3.175781 -6.25 4.15625 -6.25 C 5.113281 -6.25 5.925781 -5.914062 6.59375 -5.25 C 7.257812 -4.582031 7.59375 -3.820312 7.59375 -2.96875 C 7.59375 -2.09375 7.257812 -1.320312 6.59375 -0.65625 C 5.925781 0.0078125 5.113281 0.34375 4.15625 0.34375 Z M 4.15625 0.34375 "/></g></g></g></g></g><g clip-path="url(#f24d464792)"><g clip-path="url(#bddf1f5012)"><path stroke-linecap="butt" transform="matrix(0.75, 0, 0, 0.75, 0.00576133, 233.840518)" fill="none" stroke-linejoin="miter" d="M 40.799614 -0.000899031 L 759.185108 -0.000899031 C 770.008025 -0.000899031 780.383026 4.295976 788.034069 11.952227 C 795.685111 19.60327 799.987195 29.978271 799.987195 40.801189 L 799.987195 135.624115 C 799.987195 146.441825 795.685111 156.822034 788.034069 164.473077 C 780.383026 172.124119 770.008025 176.420995 759.185108 176.420995 L 40.799614 176.420995 C 29.976696 176.420995 19.601695 172.124119 11.950653 164.473077 C 4.29961 156.822034 -0.00247343 146.441825 -0.00247343 135.624115 L -0.00247343 40.801189 C -0.00247343 29.978271 4.29961 19.60327 11.950653 11.952227 C 19.601695 4.295976 29.976696 -0.000899031 40.799614 -0.000899031 Z M 40.799614 -0.000899031 " stroke="#000000" stroke-width="12" stroke-opacity="1" stroke-miterlimit="4"/></g></g></svg>