<svg xmlns="http://www.w3.org/2000/svg" xmlns:xlink="http://www.w3.org/1999/xlink" width="800" zoomAndPan="magnify" viewBox="0 0 600 599.999999" height="800" preserveAspectRatio="xMidYMid meet" version="1.0"><defs><g/><clipPath id="3eb0019b84"><path d="M 3.238281 215.601562 L 598 215.601562 L 598 383.199219 L 3.238281 383.199219 Z M 3.238281 215.601562 " clip-rule="nonzero"/></clipPath><clipPath id="056cd5ac5f"><path d="M 33.839844 215.601562 L 567.359375 215.601562 C 575.476562 215.601562 583.257812 218.824219 588.996094 224.566406 C 594.734375 230.304688 597.960938 238.085938 597.960938 246.203125 L 597.960938 352.597656 C 597.960938 360.714844 594.734375 368.496094 588.996094 374.234375 C 583.257812 379.972656 575.476562 383.199219 567.359375 383.199219 L 33.839844 383.199219 C 25.722656 383.199219 17.941406 379.972656 12.203125 374.234375 C 6.464844 368.496094 3.238281 360.714844 3.238281 352.597656 L 3.238281 246.203125 C 3.238281 238.085938 6.464844 230.304688 12.203125 224.566406 C 17.941406 218.824219 25.722656 215.601562 33.839844 215.601562 Z M 33.839844 215.601562 " clip-rule="nonzero"/></clipPath><clipPath id="7b628026ba"><path d="M 0.238281 0.601562 L 594.679688 0.601562 L 594.679688 168.199219 L 0.238281 168.199219 Z M 0.238281 0.601562 " clip-rule="nonzero"/></clipPath><clipPath id="40d2dbb166"><path d="M 30.839844 0.601562 L 564.359375 0.601562 C 572.476562 0.601562 580.257812 3.824219 585.996094 9.566406 C 591.734375 15.304688 594.960938 23.085938 594.960938 31.203125 L 594.960938 137.597656 C 594.960938 145.714844 591.734375 153.496094 585.996094 159.234375 C 580.257812 164.972656 572.476562 168.199219 564.359375 168.199219 L 30.839844 168.199219 C 22.722656 168.199219 14.941406 164.972656 9.203125 159.234375 C 3.464844 153.496094 0.238281 145.714844 0.238281 137.597656 L 0.238281 31.203125 C 0.238281 23.085938 3.464844 15.304688 9.203125 9.566406 C 14.941406 3.824219 22.722656 0.601562 30.839844 0.601562 Z M 30.839844 0.601562 " clip-rule="nonzero"/></clipPath><linearGradient x1="163.108413" gradientTransform="matrix(0.65467, 0, 0, 0.65467, 0.238322, 0.602218)" y1="-163.105577" x2="745.107664" gradientUnits="userSpaceOnUse" y2="418.894644" id="c419afdef6"><stop stop-opacity="1" stop-color="rgb(54.899597%, 32.159424%, 99.998474%)" offset="0"/><stop stop-opacity="1" stop-color="rgb(54.824829%, 32.377625%, 99.960327%)" offset="0.00390625"/><stop stop-opacity="1" stop-color="rgb(54.751587%, 32.597351%, 99.92218%)" offset="0.0078125"/><stop stop-opacity="1" stop-color="rgb(54.678345%, 32.815552%, 99.884033%)" offset="0.0117187"/><stop stop-opacity="1" stop-color="rgb(54.605103%, 33.035278%, 99.845886%)" offset="0.015625"/><stop stop-opacity="1" stop-color="rgb(54.53186%, 33.253479%, 99.807739%)" offset="0.0195312"/><stop stop-opacity="1" stop-color="rgb(54.458618%, 33.473206%, 99.769592%)" offset="0.0234375"/><stop stop-opacity="1" stop-color="rgb(54.38385%, 33.691406%, 99.731445%)" offset="0.0273437"/><stop stop-opacity="1" stop-color="rgb(54.310608%, 33.911133%, 99.693298%)" offset="0.03125"/><stop stop-opacity="1" stop-color="rgb(54.237366%, 34.129333%, 99.655151%)" offset="0.0351562"/><stop stop-opacity="1" stop-color="rgb(54.164124%, 34.34906%, 99.617004%)" offset="0.0390625"/><stop stop-opacity="1" stop-color="rgb(54.090881%, 34.567261%, 99.578857%)" offset="0.0429688"/><stop stop-opacity="1" stop-color="rgb(54.017639%, 34.786987%, 99.54071%)" offset="0.046875"/><stop stop-opacity="1" stop-color="rgb(53.942871%, 35.005188%, 99.501038%)" offset="0.0507813"/><stop stop-opacity="1" stop-color="rgb(53.869629%, 35.224915%, 99.462891%)" offset="0.0546875"/><stop stop-opacity="1" stop-color="rgb(53.796387%, 35.443115%, 99.424744%)" offset="0.0585938"/><stop stop-opacity="1" stop-color="rgb(53.723145%, 35.662842%, 99.386597%)" offset="0.0625"/><stop stop-opacity="1" stop-color="rgb(53.649902%, 35.881042%, 99.34845%)" offset="0.0664062"/><stop stop-opacity="1" stop-color="rgb(53.57666%, 36.100769%, 99.310303%)" offset="0.0703125"/><stop stop-opacity="1" stop-color="rgb(53.503418%, 36.31897%, 99.272156%)" offset="0.0742188"/><stop stop-opacity="1" stop-color="rgb(53.430176%, 36.538696%, 99.234009%)" offset="0.078125"/><stop stop-opacity="1" stop-color="rgb(53.355408%, 36.756897%, 99.195862%)" offset="0.0820312"/><stop stop-opacity="1" stop-color="rgb(53.282166%, 36.976624%, 99.157715%)" offset="0.0859375"/><stop stop-opacity="1" stop-color="rgb(53.208923%, 37.194824%, 99.119568%)" offset="0.0898437"/><stop stop-opacity="1" stop-color="rgb(53.135681%, 37.414551%, 99.081421%)" offset="0.09375"/><stop stop-opacity="1" stop-color="rgb(53.062439%, 37.632751%, 99.041748%)" offset="0.0976562"/><stop stop-opacity="1" stop-color="rgb(52.989197%, 37.852478%, 99.003601%)" offset="0.101562"/><stop stop-opacity="1" stop-color="rgb(52.914429%, 38.070679%, 98.965454%)" offset="0.105469"/><stop stop-opacity="1" stop-color="rgb(52.841187%, 38.290405%, 98.927307%)" offset="0.109375"/><stop stop-opacity="1" stop-color="rgb(52.767944%, 38.508606%, 98.88916%)" offset="0.113281"/><stop stop-opacity="1" stop-color="rgb(52.694702%, 38.728333%, 98.851013%)" offset="0.117188"/><stop stop-opacity="1" stop-color="rgb(52.62146%, 38.946533%, 98.812866%)" offset="0.121094"/><stop stop-opacity="1" stop-color="rgb(52.548218%, 39.16626%, 98.774719%)" offset="0.125"/><stop stop-opacity="1" stop-color="rgb(52.47345%, 39.38446%, 98.736572%)" offset="0.128906"/><stop stop-opacity="1" stop-color="rgb(52.400208%, 39.604187%, 98.698425%)" offset="0.132812"/><stop stop-opacity="1" stop-color="rgb(52.326965%, 39.822388%, 98.660278%)" offset="0.136719"/><stop stop-opacity="1" stop-color="rgb(52.253723%, 40.042114%, 98.622131%)" offset="0.140625"/><stop stop-opacity="1" stop-color="rgb(52.180481%, 40.260315%, 98.582458%)" offset="0.144531"/><stop stop-opacity="1" stop-color="rgb(52.107239%, 40.480042%, 98.544312%)" offset="0.148438"/><stop stop-opacity="1" stop-color="rgb(52.032471%, 40.698242%, 98.506165%)" offset="0.152344"/><stop stop-opacity="1" stop-color="rgb(51.959229%, 40.917969%, 98.468018%)" offset="0.15625"/><stop stop-opacity="1" stop-color="rgb(51.885986%, 41.136169%, 98.429871%)" offset="0.160156"/><stop stop-opacity="1" stop-color="rgb(51.812744%, 41.355896%, 98.391724%)" offset="0.164062"/><stop stop-opacity="1" stop-color="rgb(51.739502%, 41.574097%, 98.353577%)" offset="0.167969"/><stop stop-opacity="1" stop-color="rgb(51.66626%, 41.793823%, 98.31543%)" offset="0.171875"/><stop stop-opacity="1" stop-color="rgb(51.591492%, 42.01355%, 98.277283%)" offset="0.175781"/><stop stop-opacity="1" stop-color="rgb(51.51825%, 42.233276%, 98.239136%)" offset="0.179688"/><stop stop-opacity="1" stop-color="rgb(51.445007%, 42.451477%, 98.200989%)" offset="0.183594"/><stop stop-opacity="1" stop-color="rgb(51.371765%, 42.671204%, 98.162842%)" offset="0.1875"/><stop stop-opacity="1" stop-color="rgb(51.298523%, 42.889404%, 98.124695%)" offset="0.191406"/><stop stop-opacity="1" stop-color="rgb(51.225281%, 43.109131%, 98.086548%)" offset="0.195312"/><stop stop-opacity="1" stop-color="rgb(51.150513%, 43.327332%, 98.046875%)" offset="0.199219"/><stop stop-opacity="1" stop-color="rgb(51.077271%, 43.547058%, 98.008728%)" offset="0.203125"/><stop stop-opacity="1" stop-color="rgb(51.004028%, 43.765259%, 97.970581%)" offset="0.207031"/><stop stop-opacity="1" stop-color="rgb(50.930786%, 43.984985%, 97.932434%)" offset="0.210937"/><stop stop-opacity="1" stop-color="rgb(50.857544%, 44.203186%, 97.894287%)" offset="0.214844"/><stop stop-opacity="1" stop-color="rgb(50.784302%, 44.422913%, 97.85614%)" offset="0.21875"/><stop stop-opacity="1" stop-color="rgb(50.709534%, 44.641113%, 97.817993%)" offset="0.222656"/><stop stop-opacity="1" stop-color="rgb(50.636292%, 44.86084%, 97.779846%)" offset="0.226562"/><stop stop-opacity="1" stop-color="rgb(50.563049%, 45.079041%, 97.741699%)" offset="0.230469"/><stop stop-opacity="1" stop-color="rgb(50.489807%, 45.298767%, 97.703552%)" offset="0.234375"/><stop stop-opacity="1" stop-color="rgb(50.416565%, 45.516968%, 97.665405%)" offset="0.238281"/><stop stop-opacity="1" stop-color="rgb(50.343323%, 45.736694%, 97.627258%)" offset="0.242188"/><stop stop-opacity="1" stop-color="rgb(50.268555%, 45.954895%, 97.587585%)" offset="0.246094"/><stop stop-opacity="1" stop-color="rgb(50.195312%, 46.174622%, 97.549438%)" offset="0.25"/><stop stop-opacity="1" stop-color="rgb(50.12207%, 46.392822%, 97.511292%)" offset="0.253906"/><stop stop-opacity="1" stop-color="rgb(50.048828%, 46.612549%, 97.473145%)" offset="0.257812"/><stop stop-opacity="1" stop-color="rgb(49.975586%, 46.83075%, 97.434998%)" offset="0.261719"/><stop stop-opacity="1" stop-color="rgb(49.902344%, 47.050476%, 97.396851%)" offset="0.265625"/><stop stop-opacity="1" stop-color="rgb(49.827576%, 47.268677%, 97.358704%)" offset="0.269531"/><stop stop-opacity="1" stop-color="rgb(49.754333%, 47.488403%, 97.320557%)" offset="0.273437"/><stop stop-opacity="1" stop-color="rgb(49.681091%, 47.706604%, 97.28241%)" offset="0.277344"/><stop stop-opacity="1" stop-color="rgb(49.607849%, 47.926331%, 97.244263%)" offset="0.28125"/><stop stop-opacity="1" stop-color="rgb(49.534607%, 48.144531%, 97.206116%)" offset="0.285156"/><stop stop-opacity="1" stop-color="rgb(49.461365%, 48.364258%, 97.167969%)" offset="0.289062"/><stop stop-opacity="1" stop-color="rgb(49.386597%, 48.582458%, 97.128296%)" offset="0.292969"/><stop stop-opacity="1" stop-color="rgb(49.313354%, 48.802185%, 97.090149%)" offset="0.296875"/><stop stop-opacity="1" stop-color="rgb(49.240112%, 49.020386%, 97.052002%)" offset="0.300781"/><stop stop-opacity="1" stop-color="rgb(49.16687%, 49.240112%, 97.013855%)" offset="0.304688"/><stop stop-opacity="1" stop-color="rgb(49.093628%, 49.458313%, 96.975708%)" offset="0.308594"/><stop stop-opacity="1" stop-color="rgb(49.020386%, 49.67804%, 96.937561%)" offset="0.3125"/><stop stop-opacity="1" stop-color="rgb(48.945618%, 49.89624%, 96.899414%)" offset="0.316406"/><stop stop-opacity="1" stop-color="rgb(48.872375%, 50.115967%, 96.861267%)" offset="0.320312"/><stop stop-opacity="1" stop-color="rgb(48.799133%, 50.334167%, 96.82312%)" offset="0.324219"/><stop stop-opacity="1" stop-color="rgb(48.725891%, 50.553894%, 96.784973%)" offset="0.328125"/><stop stop-opacity="1" stop-color="rgb(48.652649%, 50.772095%, 96.746826%)" offset="0.332031"/><stop stop-opacity="1" stop-color="rgb(48.579407%, 50.991821%, 96.708679%)" offset="0.335937"/><stop stop-opacity="1" stop-color="rgb(48.506165%, 51.210022%, 96.670532%)" offset="0.339844"/><stop stop-opacity="1" stop-color="rgb(48.432922%, 51.429749%, 96.632385%)" offset="0.34375"/><stop stop-opacity="1" stop-color="rgb(48.358154%, 51.647949%, 96.592712%)" offset="0.347656"/><stop stop-opacity="1" stop-color="rgb(48.284912%, 51.867676%, 96.554565%)" offset="0.351562"/><stop stop-opacity="1" stop-color="rgb(48.21167%, 52.085876%, 96.516418%)" offset="0.355469"/><stop stop-opacity="1" stop-color="rgb(48.138428%, 52.305603%, 96.478271%)" offset="0.359375"/><stop stop-opacity="1" stop-color="rgb(48.065186%, 52.523804%, 96.440125%)" offset="0.363281"/><stop stop-opacity="1" stop-color="rgb(47.991943%, 52.74353%, 96.401978%)" offset="0.367187"/><stop stop-opacity="1" stop-color="rgb(47.917175%, 52.961731%, 96.363831%)" offset="0.371094"/><stop stop-opacity="1" stop-color="rgb(47.843933%, 53.181458%, 96.325684%)" offset="0.375"/><stop stop-opacity="1" stop-color="rgb(47.770691%, 53.399658%, 96.287537%)" offset="0.378906"/><stop stop-opacity="1" stop-color="rgb(47.697449%, 53.619385%, 96.24939%)" offset="0.382812"/><stop stop-opacity="1" stop-color="rgb(47.624207%, 53.837585%, 96.211243%)" offset="0.386719"/><stop stop-opacity="1" stop-color="rgb(47.550964%, 54.057312%, 96.173096%)" offset="0.390625"/><stop stop-opacity="1" stop-color="rgb(47.476196%, 54.275513%, 96.133423%)" offset="0.394531"/><stop stop-opacity="1" stop-color="rgb(47.402954%, 54.495239%, 96.095276%)" offset="0.398438"/><stop stop-opacity="1" stop-color="rgb(47.329712%, 54.71344%, 96.057129%)" offset="0.402344"/><stop stop-opacity="1" stop-color="rgb(47.25647%, 54.933167%, 96.018982%)" offset="0.40625"/><stop stop-opacity="1" stop-color="rgb(47.183228%, 55.151367%, 95.980835%)" offset="0.410156"/><stop stop-opacity="1" stop-color="rgb(47.109985%, 55.371094%, 95.942688%)" offset="0.414062"/><stop stop-opacity="1" stop-color="rgb(47.035217%, 55.589294%, 95.904541%)" offset="0.417969"/><stop stop-opacity="1" stop-color="rgb(46.961975%, 55.809021%, 95.866394%)" offset="0.421875"/><stop stop-opacity="1" stop-color="rgb(46.888733%, 56.027222%, 95.828247%)" offset="0.425781"/><stop stop-opacity="1" stop-color="rgb(46.815491%, 56.246948%, 95.7901%)" offset="0.429687"/><stop stop-opacity="1" stop-color="rgb(46.742249%, 56.465149%, 95.751953%)" offset="0.433594"/><stop stop-opacity="1" stop-color="rgb(46.669006%, 56.684875%, 95.713806%)" offset="0.4375"/><stop stop-opacity="1" stop-color="rgb(46.594238%, 56.903076%, 95.675659%)" offset="0.441406"/><stop stop-opacity="1" stop-color="rgb(46.520996%, 57.122803%, 95.637512%)" offset="0.445312"/><stop stop-opacity="1" stop-color="rgb(46.447754%, 57.341003%, 95.597839%)" offset="0.449219"/><stop stop-opacity="1" stop-color="rgb(46.374512%, 57.56073%, 95.559692%)" offset="0.453125"/><stop stop-opacity="1" stop-color="rgb(46.30127%, 57.778931%, 95.521545%)" offset="0.457031"/><stop stop-opacity="1" stop-color="rgb(46.228027%, 57.998657%, 95.483398%)" offset="0.460937"/><stop stop-opacity="1" stop-color="rgb(46.153259%, 58.216858%, 95.445251%)" offset="0.464844"/><stop stop-opacity="1" stop-color="rgb(46.080017%, 58.436584%, 95.407104%)" offset="0.46875"/><stop stop-opacity="1" stop-color="rgb(46.006775%, 58.654785%, 95.368958%)" offset="0.472656"/><stop stop-opacity="1" stop-color="rgb(45.933533%, 58.874512%, 95.330811%)" offset="0.476562"/><stop stop-opacity="1" stop-color="rgb(45.860291%, 59.092712%, 95.292664%)" offset="0.480469"/><stop stop-opacity="1" stop-color="rgb(45.787048%, 59.312439%, 95.254517%)" offset="0.484375"/><stop stop-opacity="1" stop-color="rgb(45.71228%, 59.53064%, 95.21637%)" offset="0.488281"/><stop stop-opacity="1" stop-color="rgb(45.639038%, 59.750366%, 95.178223%)" offset="0.492187"/><stop stop-opacity="1" stop-color="rgb(45.565796%, 59.970093%, 95.13855%)" offset="0.496094"/><stop stop-opacity="1" stop-color="rgb(45.492554%, 60.189819%, 95.100403%)" offset="0.5"/><stop stop-opacity="1" stop-color="rgb(45.419312%, 60.40802%, 95.062256%)" offset="0.503906"/><stop stop-opacity="1" stop-color="rgb(45.346069%, 60.627747%, 95.024109%)" offset="0.507813"/><stop stop-opacity="1" stop-color="rgb(45.271301%, 60.845947%, 94.985962%)" offset="0.511719"/><stop stop-opacity="1" stop-color="rgb(45.198059%, 61.065674%, 94.947815%)" offset="0.515625"/><stop stop-opacity="1" stop-color="rgb(45.124817%, 61.283875%, 94.909668%)" offset="0.519531"/><stop stop-opacity="1" stop-color="rgb(45.051575%, 61.503601%, 94.871521%)" offset="0.523438"/><stop stop-opacity="1" stop-color="rgb(44.978333%, 61.721802%, 94.833374%)" offset="0.527344"/><stop stop-opacity="1" stop-color="rgb(44.90509%, 61.941528%, 94.795227%)" offset="0.53125"/><stop stop-opacity="1" stop-color="rgb(44.830322%, 62.159729%, 94.75708%)" offset="0.535156"/><stop stop-opacity="1" stop-color="rgb(44.75708%, 62.379456%, 94.718933%)" offset="0.539063"/><stop stop-opacity="1" stop-color="rgb(44.683838%, 62.597656%, 94.67926%)" offset="0.542969"/><stop stop-opacity="1" stop-color="rgb(44.610596%, 62.817383%, 94.641113%)" offset="0.546875"/><stop stop-opacity="1" stop-color="rgb(44.537354%, 63.035583%, 94.602966%)" offset="0.550781"/><stop stop-opacity="1" stop-color="rgb(44.464111%, 63.25531%, 94.564819%)" offset="0.554688"/><stop stop-opacity="1" stop-color="rgb(44.389343%, 63.473511%, 94.526672%)" offset="0.558594"/><stop stop-opacity="1" stop-color="rgb(44.316101%, 63.693237%, 94.488525%)" offset="0.5625"/><stop stop-opacity="1" stop-color="rgb(44.242859%, 63.911438%, 94.450378%)" offset="0.566406"/><stop stop-opacity="1" stop-color="rgb(44.169617%, 64.131165%, 94.412231%)" offset="0.570313"/><stop stop-opacity="1" stop-color="rgb(44.096375%, 64.349365%, 94.374084%)" offset="0.574219"/><stop stop-opacity="1" stop-color="rgb(44.023132%, 64.569092%, 94.335938%)" offset="0.578125"/><stop stop-opacity="1" stop-color="rgb(43.94989%, 64.787292%, 94.297791%)" offset="0.582031"/><stop stop-opacity="1" stop-color="rgb(43.876648%, 65.007019%, 94.259644%)" offset="0.585938"/><stop stop-opacity="1" stop-color="rgb(43.80188%, 65.22522%, 94.221497%)" offset="0.589844"/><stop stop-opacity="1" stop-color="rgb(43.728638%, 65.444946%, 94.18335%)" offset="0.59375"/><stop stop-opacity="1" stop-color="rgb(43.655396%, 65.663147%, 94.143677%)" offset="0.597656"/><stop stop-opacity="1" stop-color="rgb(43.582153%, 65.882874%, 94.10553%)" offset="0.601562"/><stop stop-opacity="1" stop-color="rgb(43.508911%, 66.101074%, 94.067383%)" offset="0.605469"/><stop stop-opacity="1" stop-color="rgb(43.435669%, 66.320801%, 94.029236%)" offset="0.609375"/><stop stop-opacity="1" stop-color="rgb(43.360901%, 66.539001%, 93.991089%)" offset="0.613281"/><stop stop-opacity="1" stop-color="rgb(43.287659%, 66.758728%, 93.952942%)" offset="0.617188"/><stop stop-opacity="1" stop-color="rgb(43.214417%, 66.976929%, 93.914795%)" offset="0.621094"/><stop stop-opacity="1" stop-color="rgb(43.141174%, 67.196655%, 93.876648%)" offset="0.625"/><stop stop-opacity="1" stop-color="rgb(43.067932%, 67.414856%, 93.838501%)" offset="0.628906"/><stop stop-opacity="1" stop-color="rgb(42.99469%, 67.634583%, 93.800354%)" offset="0.632812"/><stop stop-opacity="1" stop-color="rgb(42.919922%, 67.852783%, 93.762207%)" offset="0.636719"/><stop stop-opacity="1" stop-color="rgb(42.84668%, 68.07251%, 93.72406%)" offset="0.640625"/><stop stop-opacity="1" stop-color="rgb(42.773438%, 68.29071%, 93.684387%)" offset="0.644531"/><stop stop-opacity="1" stop-color="rgb(42.700195%, 68.510437%, 93.64624%)" offset="0.648437"/><stop stop-opacity="1" stop-color="rgb(42.626953%, 68.728638%, 93.608093%)" offset="0.652344"/><stop stop-opacity="1" stop-color="rgb(42.553711%, 68.948364%, 93.569946%)" offset="0.65625"/><stop stop-opacity="1" stop-color="rgb(42.478943%, 69.166565%, 93.531799%)" offset="0.660156"/><stop stop-opacity="1" stop-color="rgb(42.405701%, 69.386292%, 93.493652%)" offset="0.664062"/><stop stop-opacity="1" stop-color="rgb(42.332458%, 69.604492%, 93.455505%)" offset="0.667969"/><stop stop-opacity="1" stop-color="rgb(42.259216%, 69.824219%, 93.417358%)" offset="0.671875"/><stop stop-opacity="1" stop-color="rgb(42.185974%, 70.042419%, 93.379211%)" offset="0.675781"/><stop stop-opacity="1" stop-color="rgb(42.112732%, 70.262146%, 93.341064%)" offset="0.679687"/><stop stop-opacity="1" stop-color="rgb(42.037964%, 70.480347%, 93.302917%)" offset="0.683594"/><stop stop-opacity="1" stop-color="rgb(41.964722%, 70.700073%, 93.264771%)" offset="0.6875"/><stop stop-opacity="1" stop-color="rgb(41.891479%, 70.918274%, 93.225098%)" offset="0.691406"/><stop stop-opacity="1" stop-color="rgb(41.818237%, 71.138%, 93.186951%)" offset="0.695312"/><stop stop-opacity="1" stop-color="rgb(41.744995%, 71.356201%, 93.148804%)" offset="0.699219"/><stop stop-opacity="1" stop-color="rgb(41.671753%, 71.575928%, 93.110657%)" offset="0.703125"/><stop stop-opacity="1" stop-color="rgb(41.596985%, 71.794128%, 93.07251%)" offset="0.707031"/><stop stop-opacity="1" stop-color="rgb(41.523743%, 72.013855%, 93.034363%)" offset="0.710937"/><stop stop-opacity="1" stop-color="rgb(41.4505%, 72.232056%, 92.996216%)" offset="0.714844"/><stop stop-opacity="1" stop-color="rgb(41.377258%, 72.451782%, 92.958069%)" offset="0.71875"/><stop stop-opacity="1" stop-color="rgb(41.304016%, 72.669983%, 92.919922%)" offset="0.722656"/><stop stop-opacity="1" stop-color="rgb(41.230774%, 72.889709%, 92.881775%)" offset="0.726562"/><stop stop-opacity="1" stop-color="rgb(41.156006%, 73.10791%, 92.843628%)" offset="0.730469"/><stop stop-opacity="1" stop-color="rgb(41.082764%, 73.327637%, 92.805481%)" offset="0.734375"/><stop stop-opacity="1" stop-color="rgb(41.009521%, 73.545837%, 92.767334%)" offset="0.738281"/><stop stop-opacity="1" stop-color="rgb(40.936279%, 73.765564%, 92.729187%)" offset="0.742187"/><stop stop-opacity="1" stop-color="rgb(40.863037%, 73.983765%, 92.689514%)" offset="0.746094"/><stop stop-opacity="1" stop-color="rgb(40.789795%, 74.203491%, 92.651367%)" offset="0.75"/><stop stop-opacity="1" stop-color="rgb(40.715027%, 74.421692%, 92.61322%)" offset="0.753906"/><stop stop-opacity="1" stop-color="rgb(40.641785%, 74.641418%, 92.575073%)" offset="0.757812"/><stop stop-opacity="1" stop-color="rgb(40.568542%, 74.859619%, 92.536926%)" offset="0.761719"/><stop stop-opacity="1" stop-color="rgb(40.4953%, 75.079346%, 92.498779%)" offset="0.765625"/><stop stop-opacity="1" stop-color="rgb(40.422058%, 75.297546%, 92.460632%)" offset="0.769531"/><stop stop-opacity="1" stop-color="rgb(40.348816%, 75.517273%, 92.422485%)" offset="0.773437"/><stop stop-opacity="1" stop-color="rgb(40.274048%, 75.735474%, 92.384338%)" offset="0.777344"/><stop stop-opacity="1" stop-color="rgb(40.200806%, 75.9552%, 92.346191%)" offset="0.78125"/><stop stop-opacity="1" stop-color="rgb(40.127563%, 76.173401%, 92.308044%)" offset="0.785156"/><stop stop-opacity="1" stop-color="rgb(40.054321%, 76.393127%, 92.269897%)" offset="0.789062"/><stop stop-opacity="1" stop-color="rgb(39.981079%, 76.611328%, 92.230225%)" offset="0.792969"/><stop stop-opacity="1" stop-color="rgb(39.907837%, 76.831055%, 92.192078%)" offset="0.796875"/><stop stop-opacity="1" stop-color="rgb(39.833069%, 77.049255%, 92.153931%)" offset="0.800781"/><stop stop-opacity="1" stop-color="rgb(39.759827%, 77.268982%, 92.115784%)" offset="0.804687"/><stop stop-opacity="1" stop-color="rgb(39.686584%, 77.487183%, 92.077637%)" offset="0.808594"/><stop stop-opacity="1" stop-color="rgb(39.613342%, 77.706909%, 92.03949%)" offset="0.8125"/><stop stop-opacity="1" stop-color="rgb(39.5401%, 77.926636%, 92.001343%)" offset="0.816406"/><stop stop-opacity="1" stop-color="rgb(39.466858%, 78.146362%, 91.963196%)" offset="0.820312"/><stop stop-opacity="1" stop-color="rgb(39.39209%, 78.364563%, 91.925049%)" offset="0.824219"/><stop stop-opacity="1" stop-color="rgb(39.318848%, 78.58429%, 91.886902%)" offset="0.828125"/><stop stop-opacity="1" stop-color="rgb(39.245605%, 78.80249%, 91.848755%)" offset="0.832031"/><stop stop-opacity="1" stop-color="rgb(39.172363%, 79.022217%, 91.810608%)" offset="0.835938"/><stop stop-opacity="1" stop-color="rgb(39.099121%, 79.240417%, 91.770935%)" offset="0.839844"/><stop stop-opacity="1" stop-color="rgb(39.025879%, 79.460144%, 91.732788%)" offset="0.84375"/><stop stop-opacity="1" stop-color="rgb(38.952637%, 79.678345%, 91.694641%)" offset="0.847656"/><stop stop-opacity="1" stop-color="rgb(38.879395%, 79.898071%, 91.656494%)" offset="0.851563"/><stop stop-opacity="1" stop-color="rgb(38.804626%, 80.116272%, 91.618347%)" offset="0.855469"/><stop stop-opacity="1" stop-color="rgb(38.731384%, 80.335999%, 91.5802%)" offset="0.859375"/><stop stop-opacity="1" stop-color="rgb(38.658142%, 80.554199%, 91.542053%)" offset="0.863281"/><stop stop-opacity="1" stop-color="rgb(38.5849%, 80.773926%, 91.503906%)" offset="0.867188"/><stop stop-opacity="1" stop-color="rgb(38.511658%, 80.992126%, 91.465759%)" offset="0.871094"/><stop stop-opacity="1" stop-color="rgb(38.438416%, 81.211853%, 91.427612%)" offset="0.875"/><stop stop-opacity="1" stop-color="rgb(38.363647%, 81.430054%, 91.389465%)" offset="0.878906"/><stop stop-opacity="1" stop-color="rgb(38.290405%, 81.64978%, 91.351318%)" offset="0.882813"/><stop stop-opacity="1" stop-color="rgb(38.217163%, 81.867981%, 91.313171%)" offset="0.886719"/><stop stop-opacity="1" stop-color="rgb(38.143921%, 82.087708%, 91.275024%)" offset="0.890625"/><stop stop-opacity="1" stop-color="rgb(38.070679%, 82.305908%, 91.235352%)" offset="0.894531"/><stop stop-opacity="1" stop-color="rgb(37.997437%, 82.525635%, 91.197205%)" offset="0.898438"/><stop stop-opacity="1" stop-color="rgb(37.922668%, 82.743835%, 91.159058%)" offset="0.902344"/><stop stop-opacity="1" stop-color="rgb(37.849426%, 82.963562%, 91.120911%)" offset="0.90625"/><stop stop-opacity="1" stop-color="rgb(37.776184%, 83.181763%, 91.082764%)" offset="0.910156"/><stop stop-opacity="1" stop-color="rgb(37.702942%, 83.401489%, 91.044617%)" offset="0.914063"/><stop stop-opacity="1" stop-color="rgb(37.6297%, 83.61969%, 91.00647%)" offset="0.917969"/><stop stop-opacity="1" stop-color="rgb(37.556458%, 83.839417%, 90.968323%)" offset="0.921875"/><stop stop-opacity="1" stop-color="rgb(37.481689%, 84.057617%, 90.930176%)" offset="0.925781"/><stop stop-opacity="1" stop-color="rgb(37.408447%, 84.277344%, 90.892029%)" offset="0.929688"/><stop stop-opacity="1" stop-color="rgb(37.335205%, 84.495544%, 90.853882%)" offset="0.933594"/><stop stop-opacity="1" stop-color="rgb(37.261963%, 84.715271%, 90.815735%)" offset="0.9375"/><stop stop-opacity="1" stop-color="rgb(37.188721%, 84.933472%, 90.776062%)" offset="0.941406"/><stop stop-opacity="1" stop-color="rgb(37.115479%, 85.153198%, 90.737915%)" offset="0.945313"/><stop stop-opacity="1" stop-color="rgb(37.04071%, 85.371399%, 90.699768%)" offset="0.949219"/><stop stop-opacity="1" stop-color="rgb(36.967468%, 85.591125%, 90.661621%)" offset="0.953125"/><stop stop-opacity="1" stop-color="rgb(36.894226%, 85.809326%, 90.623474%)" offset="0.957031"/><stop stop-opacity="1" stop-color="rgb(36.820984%, 86.029053%, 90.585327%)" offset="0.960938"/><stop stop-opacity="1" stop-color="rgb(36.747742%, 86.247253%, 90.54718%)" offset="0.964844"/><stop stop-opacity="1" stop-color="rgb(36.6745%, 86.46698%, 90.509033%)" offset="0.96875"/><stop stop-opacity="1" stop-color="rgb(36.599731%, 86.685181%, 90.470886%)" offset="0.972656"/><stop stop-opacity="1" stop-color="rgb(36.526489%, 86.904907%, 90.432739%)" offset="0.976562"/><stop stop-opacity="1" stop-color="rgb(36.453247%, 87.123108%, 90.394592%)" offset="0.980469"/><stop stop-opacity="1" stop-color="rgb(36.380005%, 87.342834%, 90.356445%)" offset="0.984375"/><stop stop-opacity="1" stop-color="rgb(36.306763%, 87.561035%, 90.316772%)" offset="0.988281"/><stop stop-opacity="1" stop-color="rgb(36.233521%, 87.780762%, 90.278625%)" offset="0.992188"/><stop stop-opacity="1" stop-color="rgb(36.158752%, 87.998962%, 90.240479%)" offset="0.996094"/><stop stop-opacity="1" stop-color="rgb(36.08551%, 88.218689%, 90.202332%)" offset="1"/></linearGradient><clipPath id="498e9c989f"><rect x="0" width="595" y="0" height="169"/></clipPath><clipPath id="1ae166b68e"><rect x="0" width="530" y="0" height="156"/></clipPath><clipPath id="903b50e24f"><rect x="0" width="531" y="0" height="156"/></clipPath><clipPath id="375e148fc9"><path d="M 0.00390625 214.523438 L 600 214.523438 L 600 385.523438 L 0.00390625 385.523438 Z M 0.00390625 214.523438 " clip-rule="nonzero"/></clipPath><clipPath id="0c22c85794"><path d="M 30.605469 214.523438 L 569.394531 214.523438 C 577.511719 214.523438 585.292969 217.746094 591.035156 223.484375 C 596.773438 229.222656 599.996094 237.007812 599.996094 245.121094 L 599.996094 354.875 C 599.996094 362.992188 596.773438 370.773438 591.035156 376.511719 C 585.292969 382.25 577.511719 385.476562 569.394531 385.476562 L 30.605469 385.476562 C 22.488281 385.476562 14.707031 382.25 8.964844 376.511719 C 3.226562 370.773438 0.00390625 362.992188 0.00390625 354.875 L 0.00390625 245.121094 C 0.00390625 237.007812 3.226562 229.222656 8.964844 223.484375 C 14.707031 217.746094 22.488281 214.523438 30.605469 214.523438 Z M 30.605469 214.523438 " clip-rule="nonzero"/></clipPath></defs><g clip-path="url(#3eb0019b84)"><g clip-path="url(#056cd5ac5f)"><g transform="matrix(1, 0, 0, 1, 3, 215)"><g clip-path="url(#498e9c989f)"><g clip-path="url(#7b628026ba)"><g clip-path="url(#40d2dbb166)"><path fill="url(#c419afdef6)" d="M 0.238281 0.601562 L 0.238281 168.199219 L 594.679688 168.199219 L 594.679688 0.601562 Z M 0.238281 0.601562 " fill-rule="nonzero"/></g></g></g></g></g></g><g transform="matrix(1, 0, 0, 1, 35, 222)"><g clip-path="url(#1ae166b68e)"><g fill="#fdfdfd" fill-opacity="1"><g transform="translate(0.586657, 127.201748)"><g><path d="M 11.828125 0.890625 C 10.960938 0.984375 10.378906 0.265625 10.078125 -1.265625 C 9.785156 -2.796875 9.640625 -4.539062 9.640625 -6.5 L 9.640625 -54.625 C 9.503906 -60.039062 9.265625 -65.65625 8.921875 -71.46875 C 8.578125 -77.28125 8.359375 -83.332031 8.265625 -89.625 C 8.222656 -92.351562 8.210938 -95.082031 8.234375 -97.8125 C 8.253906 -100.550781 8.265625 -103.289062 8.265625 -106.03125 C 8.265625 -106.664062 8.847656 -107.128906 10.015625 -107.421875 C 11.179688 -107.722656 12.695312 -107.894531 14.5625 -107.9375 C 18.019531 -107.9375 19.75 -106.9375 19.75 -104.9375 L 19.75 -90.984375 C 19.75 -86.742188 20 -80.929688 20.5 -73.546875 C 21.007812 -66.171875 21.304688 -57.21875 21.390625 -46.6875 C 21.484375 -38.394531 21.460938 -31.503906 21.328125 -26.015625 C 21.191406 -20.523438 21.125 -16.320312 21.125 -13.40625 C 24 -13.539062 26.9375 -13.640625 29.9375 -13.703125 C 32.945312 -13.773438 36.265625 -13.8125 39.890625 -13.8125 C 43.515625 -13.8125 47.648438 -13.742188 52.296875 -13.609375 C 53.066406 -13.609375 53.578125 -12.976562 53.828125 -11.71875 C 54.078125 -10.46875 54.203125 -9.179688 54.203125 -7.859375 C 54.203125 -5.941406 54.039062 -4.492188 53.71875 -3.515625 C 53.40625 -2.535156 52.78125 -1.875 51.84375 -1.53125 C 50.914062 -1.195312 49.515625 -1.03125 47.640625 -1.03125 C 40.035156 -1.03125 33.25 -0.867188 27.28125 -0.546875 C 21.3125 -0.222656 16.160156 0.253906 11.828125 0.890625 Z M 11.828125 0.890625 "/></g></g></g><g fill="#fdfdfd" fill-opacity="1"><g transform="translate(61.630218, 127.201748)"><g><path d="M 13.953125 2.875 C 11.210938 2.875 9.84375 1.78125 9.84375 -0.40625 C 9.84375 -1.59375 9.613281 -10.785156 9.15625 -27.984375 C 8.707031 -45.191406 8.300781 -70.910156 7.9375 -105.140625 C 7.9375 -107.503906 9.394531 -108.6875 12.3125 -108.6875 C 19.375 -107.875 26.226562 -107.210938 32.875 -106.703125 C 39.53125 -106.203125 45.984375 -105.863281 52.234375 -105.6875 C 52.773438 -105.6875 53.09375 -105.179688 53.1875 -104.171875 C 53.28125 -103.171875 53.328125 -102.035156 53.328125 -100.765625 C 53.234375 -99.171875 53.128906 -97.953125 53.015625 -97.109375 C 52.898438 -96.265625 52.703125 -95.679688 52.421875 -95.359375 C 52.148438 -95.046875 51.707031 -94.863281 51.09375 -94.8125 C 50.476562 -94.769531 49.582031 -94.75 48.40625 -94.75 C 47.125 -94.75 44.03125 -94.90625 39.125 -95.21875 C 34.226562 -95.539062 27.566406 -96.019531 19.140625 -96.65625 C 19.234375 -87.5 19.320312 -79.9375 19.40625 -73.96875 C 19.5 -68 19.59375 -63.625 19.6875 -60.84375 L 48.953125 -60.296875 C 49.679688 -60.296875 50.132812 -59.894531 50.3125 -59.09375 C 50.5 -58.300781 50.59375 -57.515625 50.59375 -56.734375 C 50.59375 -54.179688 50.226562 -52.265625 49.5 -50.984375 C 48.769531 -49.710938 47.859375 -49.078125 46.765625 -49.078125 C 45.078125 -49.078125 42.066406 -49.097656 37.734375 -49.140625 C 33.398438 -49.191406 27.566406 -49.265625 20.234375 -49.359375 C 20.421875 -45.484375 20.554688 -41.289062 20.640625 -36.78125 C 20.734375 -32.269531 20.800781 -27.734375 20.84375 -23.171875 C 20.894531 -18.617188 20.953125 -14.265625 21.015625 -10.109375 C 21.085938 -5.960938 21.191406 -2.273438 21.328125 0.953125 C 21.421875 1.734375 20.851562 2.25 19.625 2.5 C 18.394531 2.75 16.503906 2.875 13.953125 2.875 Z M 13.953125 2.875 "/></g></g></g><g fill="#fdfdfd" fill-opacity="1"><g transform="translate(121.101544, 127.201748)"><g><path d="M 22.484375 0.40625 C 19.066406 0.40625 16.390625 0.382812 14.453125 0.34375 C 12.515625 0.300781 11.132812 0.1875 10.3125 0 C 9.5 -0.1875 9.09375 -0.503906 9.09375 -0.953125 C 8.863281 -20.503906 8.78125 -37.503906 8.84375 -51.953125 C 8.914062 -66.398438 9.15625 -78.097656 9.5625 -87.046875 C 9.976562 -96.003906 10.550781 -101.941406 11.28125 -104.859375 C 11.28125 -105.546875 12.066406 -106.101562 13.640625 -106.53125 C 15.210938 -106.96875 17.273438 -107.300781 19.828125 -107.53125 C 22.378906 -107.757812 25.085938 -107.875 27.953125 -107.875 C 35.972656 -107.875 41.988281 -105.660156 46 -101.234375 C 50.007812 -96.816406 52.015625 -90.734375 52.015625 -82.984375 C 52.015625 -73.367188 48.550781 -65.710938 41.625 -60.015625 C 46.457031 -57.234375 50.015625 -52.128906 52.296875 -44.703125 C 53.566406 -40.460938 54.203125 -33.171875 54.203125 -22.828125 C 54.203125 -18.679688 53.394531 -15.125 51.78125 -12.15625 C 50.164062 -9.195312 47.910156 -6.796875 45.015625 -4.953125 C 42.117188 -3.109375 38.753906 -1.753906 34.921875 -0.890625 C 31.097656 -0.0234375 26.953125 0.40625 22.484375 0.40625 Z M 20.03125 -63.84375 C 23.082031 -63.84375 25.894531 -64.332031 28.46875 -65.3125 C 31.039062 -66.289062 33.296875 -67.597656 35.234375 -69.234375 C 37.171875 -70.878906 38.675781 -72.726562 39.75 -74.78125 C 40.820312 -76.832031 41.359375 -78.929688 41.359375 -81.078125 C 41.359375 -84.535156 41.050781 -87.265625 40.4375 -89.265625 C 39.820312 -91.273438 38.660156 -92.757812 36.953125 -93.71875 C 35.242188 -94.675781 32.703125 -95.289062 29.328125 -95.5625 C 27.960938 -95.695312 26.628906 -95.726562 25.328125 -95.65625 C 24.023438 -95.59375 22.625 -95.492188 21.125 -95.359375 Z M 20.03125 -10.25 C 27.957031 -10.070312 33.867188 -11.484375 37.765625 -14.484375 C 41.660156 -17.492188 43.492188 -21.734375 43.265625 -27.203125 C 43.128906 -30.710938 42.832031 -33.9375 42.375 -36.875 C 41.925781 -39.820312 41.210938 -42.363281 40.234375 -44.5 C 39.253906 -46.644531 37.910156 -48.304688 36.203125 -49.484375 C 34.492188 -50.671875 32.289062 -51.265625 29.59375 -51.265625 C 26.5 -51.265625 23.128906 -50.992188 19.484375 -50.453125 C 19.390625 -47.347656 19.316406 -44.789062 19.265625 -42.78125 C 19.222656 -40.78125 19.203125 -39.328125 19.203125 -38.421875 C 19.203125 -29.578125 19.476562 -20.1875 20.03125 -10.25 Z M 20.03125 -10.25 "/></g></g></g><g fill="#fdfdfd" fill-opacity="1"><g transform="translate(185.152859, 127.201748)"><g><path d="M 14.15625 0 C 12.738281 0 11.5625 -0.191406 10.625 -0.578125 C 9.695312 -0.960938 9.234375 -1.5 9.234375 -2.1875 C 8.410156 -21.738281 7.703125 -39.941406 7.109375 -56.796875 C 6.515625 -73.660156 6.035156 -89.179688 5.671875 -103.359375 C 5.671875 -104.453125 5.957031 -105.238281 6.53125 -105.71875 C 7.101562 -106.195312 8.273438 -106.503906 10.046875 -106.640625 L 13.875 -106.921875 C 14.875 -106.921875 15.671875 -106.328125 16.265625 -105.140625 C 16.859375 -103.953125 17.25 -101.628906 17.4375 -98.171875 C 17.800781 -80.890625 18.234375 -64.398438 18.734375 -48.703125 C 19.234375 -33.003906 19.800781 -18.140625 20.4375 -4.109375 C 20.4375 -2.734375 20.015625 -1.703125 19.171875 -1.015625 C 18.328125 -0.335938 16.65625 0 14.15625 0 Z M 14.15625 0 "/></g></g></g><g fill="#fdfdfd" fill-opacity="1"><g transform="translate(212.769411, 127.201748)"><g><path d="M 43.953125 1.5 C 39.992188 1.5 36.664062 1.488281 33.96875 1.46875 C 31.28125 1.445312 28.910156 1.398438 26.859375 1.328125 C 24.816406 1.265625 22.828125 1.140625 20.890625 0.953125 C 18.953125 0.773438 16.726562 0.550781 14.21875 0.28125 C 11.207031 -0.09375 9.117188 -0.78125 7.953125 -1.78125 C 6.796875 -2.78125 6.21875 -3.960938 6.21875 -5.328125 C 6.21875 -10.390625 7.035156 -16.078125 8.671875 -22.390625 C 10.316406 -28.703125 12.597656 -35.570312 15.515625 -43 C 18.429688 -50.425781 21.800781 -58.351562 25.625 -66.78125 C 29.457031 -75.21875 33.5625 -84.082031 37.9375 -93.375 C 35.707031 -93.375 33.40625 -93.375 31.03125 -93.375 C 28.664062 -93.375 26.046875 -93.363281 23.171875 -93.34375 C 20.304688 -93.320312 16.976562 -93.3125 13.1875 -93.3125 C 12.007812 -93.3125 11.191406 -93.832031 10.734375 -94.875 C 10.273438 -95.925781 10.046875 -97.160156 10.046875 -98.578125 C 10.046875 -100.804688 10.429688 -102.316406 11.203125 -103.109375 C 11.984375 -103.910156 13.332031 -104.40625 15.25 -104.59375 C 17.019531 -104.769531 19.957031 -104.90625 24.0625 -105 C 28.164062 -105.09375 33.429688 -105.140625 39.859375 -105.140625 C 43.367188 -105.140625 46.035156 -105.046875 47.859375 -104.859375 C 49.679688 -104.679688 50.921875 -104.328125 51.578125 -103.796875 C 52.234375 -103.273438 52.519531 -102.535156 52.4375 -101.578125 C 52.34375 -100.171875 51.78125 -98.019531 50.75 -95.125 C 49.726562 -92.226562 48.394531 -88.820312 46.75 -84.90625 C 45.113281 -80.988281 43.269531 -76.738281 41.21875 -72.15625 C 39.164062 -67.570312 37.066406 -62.863281 34.921875 -58.03125 C 32.785156 -53.207031 30.703125 -48.425781 28.671875 -43.6875 C 26.648438 -38.945312 24.835938 -34.46875 23.234375 -30.25 C 21.640625 -26.03125 20.363281 -22.242188 19.40625 -18.890625 C 18.457031 -15.546875 17.984375 -12.847656 17.984375 -10.796875 C 21.578125 -10.347656 25.5625 -10.007812 29.9375 -9.78125 C 34.3125 -9.550781 39.078125 -9.4375 44.234375 -9.4375 C 45.828125 -9.4375 47 -9.046875 47.75 -8.265625 C 48.5 -7.492188 48.875 -5.96875 48.875 -3.6875 C 48.875 -2.1875 48.644531 -1.054688 48.1875 -0.296875 C 47.738281 0.453125 47.148438 0.9375 46.421875 1.15625 C 45.691406 1.382812 44.867188 1.5 43.953125 1.5 Z M 43.953125 1.5 "/></g></g></g><g fill="#fdfdfd" fill-opacity="1"><g transform="translate(272.445824, 127.201748)"><g><path d="M 13.8125 2.1875 C 12.8125 2.1875 11.875 2.09375 11 1.90625 C 10.132812 1.726562 9.703125 1.457031 9.703125 1.09375 C 9.660156 -1.457031 9.613281 -3.664062 9.5625 -5.53125 C 9.519531 -7.40625 9.488281 -9.160156 9.46875 -10.796875 C 9.445312 -12.441406 9.4375 -14.128906 9.4375 -15.859375 C 9.4375 -18.273438 9.492188 -20.835938 9.609375 -23.546875 C 9.722656 -26.265625 9.890625 -29.421875 10.109375 -33.015625 C 10.335938 -36.617188 10.625 -40.867188 10.96875 -45.765625 C 11.3125 -50.660156 11.710938 -56.460938 12.171875 -63.171875 C 12.484375 -67.628906 12.726562 -71.507812 12.90625 -74.8125 C 13.09375 -78.125 13.359375 -81.019531 13.703125 -83.5 C 14.046875 -85.988281 14.535156 -88.210938 15.171875 -90.171875 C 16.816406 -95.085938 19.222656 -98.867188 22.390625 -101.515625 C 25.554688 -104.160156 29.53125 -105.992188 34.3125 -107.015625 C 39.101562 -108.046875 44.753906 -108.5625 51.265625 -108.5625 C 56.921875 -108.5625 59.75 -105.914062 59.75 -100.625 C 59.5625 -91.738281 59.476562 -83.191406 59.5 -74.984375 C 59.53125 -66.785156 59.679688 -58.734375 59.953125 -50.828125 C 60.222656 -42.921875 60.628906 -34.988281 61.171875 -27.03125 C 61.722656 -19.082031 62.429688 -10.894531 63.296875 -2.46875 C 63.429688 -1.6875 62.894531 -0.988281 61.6875 -0.375 C 60.488281 0.238281 58.75 0.546875 56.46875 0.546875 C 53.050781 0.316406 51.316406 -0.226562 51.265625 -1.09375 L 49.078125 -39.65625 C 45.566406 -39.65625 41.519531 -39.5625 36.9375 -39.375 C 32.363281 -39.195312 27.296875 -38.925781 21.734375 -38.5625 C 21.503906 -35.28125 21.34375 -31.816406 21.25 -28.171875 C 21.164062 -24.523438 21.125 -20.921875 21.125 -17.359375 C 21.125 -13.804688 21.132812 -10.503906 21.15625 -7.453125 C 21.175781 -4.398438 21.1875 -1.820312 21.1875 0.28125 C 21.1875 0.820312 20.421875 1.273438 18.890625 1.640625 C 17.367188 2.003906 15.675781 2.1875 13.8125 2.1875 Z M 22.28125 -49.765625 C 24.65625 -49.898438 27.320312 -50.046875 30.28125 -50.203125 C 33.25 -50.367188 36.335938 -50.53125 39.546875 -50.6875 C 42.753906 -50.84375 45.84375 -50.992188 48.8125 -51.140625 C 48.625 -54.734375 48.484375 -58.375 48.390625 -62.0625 C 48.304688 -65.757812 48.265625 -69.546875 48.265625 -73.421875 C 48.265625 -77.296875 48.304688 -81.179688 48.390625 -85.078125 C 48.484375 -88.972656 48.625 -92.859375 48.8125 -96.734375 C 46.351562 -96.734375 43.878906 -96.617188 41.390625 -96.390625 C 38.910156 -96.160156 36.550781 -95.691406 34.3125 -94.984375 C 32.082031 -94.273438 30.078125 -93.148438 28.296875 -91.609375 C 27.117188 -90.597656 26.265625 -89.179688 25.734375 -87.359375 C 25.210938 -85.535156 24.847656 -83.328125 24.640625 -80.734375 C 24.441406 -78.140625 24.203125 -75.109375 23.921875 -71.640625 C 23.835938 -70.085938 23.632812 -67.5 23.3125 -63.875 C 22.988281 -60.257812 22.644531 -55.554688 22.28125 -49.765625 Z M 22.28125 -49.765625 "/></g></g></g><g fill="#fdfdfd" fill-opacity="1"><g transform="translate(344.358297, 127.201748)"><g><path d="M 13.609375 3.34375 C 12.785156 3.34375 12.078125 3.046875 11.484375 2.453125 C 10.890625 1.867188 10.59375 1.070312 10.59375 0.0625 L 10.453125 -65.5625 L 10.453125 -98.921875 C 10.453125 -100.828125 10.757812 -102.269531 11.375 -103.25 C 12 -104.238281 13.015625 -104.867188 14.421875 -105.140625 C 15.566406 -105.367188 16.992188 -105.523438 18.703125 -105.609375 C 20.410156 -105.703125 22.3125 -105.75 24.40625 -105.75 C 31.5625 -105.75 37.550781 -104.289062 42.375 -101.375 C 47.207031 -98.457031 50.601562 -93.992188 52.5625 -87.984375 C 53.207031 -86.109375 53.6875 -83.941406 54 -81.484375 C 54.320312 -79.023438 54.484375 -76.269531 54.484375 -73.21875 C 54.484375 -67.832031 53.265625 -63.113281 50.828125 -59.0625 C 48.390625 -55.007812 44.59375 -51.066406 39.4375 -47.234375 C 40.582031 -44.640625 41.800781 -41.78125 43.09375 -38.65625 C 44.394531 -35.53125 45.707031 -32.316406 47.03125 -29.015625 C 48.351562 -25.710938 49.628906 -22.46875 50.859375 -19.28125 C 52.085938 -16.09375 53.203125 -13.117188 54.203125 -10.359375 C 55.210938 -7.597656 56.035156 -5.21875 56.671875 -3.21875 C 56.992188 -2.257812 56.8125 -1.34375 56.125 -0.46875 C 55.4375 0.394531 54.535156 1.097656 53.421875 1.640625 C 52.304688 2.191406 51.203125 2.519531 50.109375 2.625 C 49.015625 2.738281 48.191406 2.523438 47.640625 1.984375 C 47.273438 1.617188 46.691406 0.582031 45.890625 -1.125 C 45.097656 -2.832031 44.15625 -5.007812 43.0625 -7.65625 C 41.96875 -10.300781 40.796875 -13.207031 39.546875 -16.375 C 38.296875 -19.539062 37.007812 -22.773438 35.6875 -26.078125 C 34.363281 -29.378906 33.097656 -32.578125 31.890625 -35.671875 C 30.679688 -38.773438 29.578125 -41.535156 28.578125 -43.953125 L 22.15625 -43.484375 C 22.0625 -41.296875 21.976562 -38.765625 21.90625 -35.890625 C 21.84375 -33.015625 21.773438 -29.984375 21.703125 -26.796875 C 21.640625 -23.609375 21.570312 -20.394531 21.5 -17.15625 C 21.425781 -13.925781 21.351562 -10.835938 21.28125 -7.890625 C 21.21875 -4.953125 21.144531 -2.320312 21.0625 0 C 21.007812 1.414062 20.609375 2.328125 19.859375 2.734375 C 19.109375 3.140625 18.207031 3.34375 17.15625 3.34375 Z M 21.671875 -55.578125 C 24.492188 -55.441406 27.191406 -55.804688 29.765625 -56.671875 C 32.347656 -57.535156 34.648438 -58.898438 36.671875 -60.765625 C 38.703125 -62.640625 40.304688 -64.976562 41.484375 -67.78125 C 42.671875 -70.582031 43.265625 -73.851562 43.265625 -77.59375 C 43.265625 -88.707031 36.15625 -94.265625 21.9375 -94.265625 C 21.757812 -90.578125 21.625 -86.75 21.53125 -82.78125 C 21.4375 -78.820312 21.390625 -74.722656 21.390625 -70.484375 C 21.390625 -69.066406 21.410156 -67.054688 21.453125 -64.453125 C 21.503906 -61.859375 21.578125 -58.898438 21.671875 -55.578125 Z M 21.671875 -55.578125 "/></g></g></g><g fill="#fdfdfd" fill-opacity="1"><g transform="translate(409.845086, 127.201748)"><g><path d="M 13.609375 3.34375 C 12.785156 3.34375 12.078125 3.046875 11.484375 2.453125 C 10.890625 1.867188 10.59375 1.070312 10.59375 0.0625 L 10.453125 -65.5625 L 10.453125 -98.921875 C 10.453125 -100.828125 10.757812 -102.269531 11.375 -103.25 C 12 -104.238281 13.015625 -104.867188 14.421875 -105.140625 C 15.566406 -105.367188 16.992188 -105.523438 18.703125 -105.609375 C 20.410156 -105.703125 22.3125 -105.75 24.40625 -105.75 C 31.5625 -105.75 37.550781 -104.289062 42.375 -101.375 C 47.207031 -98.457031 50.601562 -93.992188 52.5625 -87.984375 C 53.207031 -86.109375 53.6875 -83.941406 54 -81.484375 C 54.320312 -79.023438 54.484375 -76.269531 54.484375 -73.21875 C 54.484375 -67.832031 53.265625 -63.113281 50.828125 -59.0625 C 48.390625 -55.007812 44.59375 -51.066406 39.4375 -47.234375 C 40.582031 -44.640625 41.800781 -41.78125 43.09375 -38.65625 C 44.394531 -35.53125 45.707031 -32.316406 47.03125 -29.015625 C 48.351562 -25.710938 49.628906 -22.46875 50.859375 -19.28125 C 52.085938 -16.09375 53.203125 -13.117188 54.203125 -10.359375 C 55.210938 -7.597656 56.035156 -5.21875 56.671875 -3.21875 C 56.992188 -2.257812 56.8125 -1.34375 56.125 -0.46875 C 55.4375 0.394531 54.535156 1.097656 53.421875 1.640625 C 52.304688 2.191406 51.203125 2.519531 50.109375 2.625 C 49.015625 2.738281 48.191406 2.523438 47.640625 1.984375 C 47.273438 1.617188 46.691406 0.582031 45.890625 -1.125 C 45.097656 -2.832031 44.15625 -5.007812 43.0625 -7.65625 C 41.96875 -10.300781 40.796875 -13.207031 39.546875 -16.375 C 38.296875 -19.539062 37.007812 -22.773438 35.6875 -26.078125 C 34.363281 -29.378906 33.097656 -32.578125 31.890625 -35.671875 C 30.679688 -38.773438 29.578125 -41.535156 28.578125 -43.953125 L 22.15625 -43.484375 C 22.0625 -41.296875 21.976562 -38.765625 21.90625 -35.890625 C 21.84375 -33.015625 21.773438 -29.984375 21.703125 -26.796875 C 21.640625 -23.609375 21.570312 -20.394531 21.5 -17.15625 C 21.425781 -13.925781 21.351562 -10.835938 21.28125 -7.890625 C 21.21875 -4.953125 21.144531 -2.320312 21.0625 0 C 21.007812 1.414062 20.609375 2.328125 19.859375 2.734375 C 19.109375 3.140625 18.207031 3.34375 17.15625 3.34375 Z M 21.671875 -55.578125 C 24.492188 -55.441406 27.191406 -55.804688 29.765625 -56.671875 C 32.347656 -57.535156 34.648438 -58.898438 36.671875 -60.765625 C 38.703125 -62.640625 40.304688 -64.976562 41.484375 -67.78125 C 42.671875 -70.582031 43.265625 -73.851562 43.265625 -77.59375 C 43.265625 -88.707031 36.15625 -94.265625 21.9375 -94.265625 C 21.757812 -90.578125 21.625 -86.75 21.53125 -82.78125 C 21.4375 -78.820312 21.390625 -74.722656 21.390625 -70.484375 C 21.390625 -69.066406 21.410156 -67.054688 21.453125 -64.453125 C 21.503906 -61.859375 21.578125 -58.898438 21.671875 -55.578125 Z M 21.671875 -55.578125 "/></g></g></g><g fill="#fdfdfd" fill-opacity="1"><g transform="translate(475.331911, 127.201748)"><g><path d="M 12.234375 -0.28125 C 11.640625 -0.28125 11.226562 -0.539062 11 -1.0625 C 10.78125 -1.582031 10.65625 -2.238281 10.625 -3.03125 C 10.601562 -3.832031 10.59375 -4.644531 10.59375 -5.46875 L 10.59375 -42.65625 C 10.59375 -60.75 9.5 -80.894531 7.3125 -103.09375 C 7.175781 -104 7.65625 -104.679688 8.75 -105.140625 C 9.84375 -105.597656 11.1875 -105.828125 12.78125 -105.828125 L 44.78125 -105.828125 C 45.28125 -105.828125 45.585938 -105.253906 45.703125 -104.109375 C 45.816406 -102.972656 45.875 -101.082031 45.875 -98.4375 C 45.875 -96.25 44.867188 -95.15625 42.859375 -95.15625 C 39.710938 -95.15625 36.828125 -95.144531 34.203125 -95.125 C 31.585938 -95.101562 29.082031 -95.046875 26.6875 -94.953125 C 24.300781 -94.859375 21.851562 -94.742188 19.34375 -94.609375 C 19.34375 -93.242188 19.890625 -82.398438 20.984375 -62.078125 L 40.125 -62.625 C 41.582031 -62.625 42.3125 -60.617188 42.3125 -56.609375 C 42.3125 -53.140625 41.21875 -51.40625 39.03125 -51.40625 L 21.265625 -50.59375 C 21.441406 -41.25 21.617188 -33.382812 21.796875 -27 C 21.984375 -20.625 22.171875 -15.65625 22.359375 -12.09375 C 23.992188 -12.1875 26.019531 -12.300781 28.4375 -12.4375 C 30.851562 -12.570312 33.492188 -12.71875 36.359375 -12.875 C 39.234375 -13.039062 42.175781 -13.21875 45.1875 -13.40625 C 46.414062 -13.40625 47.175781 -12.890625 47.46875 -11.859375 C 47.769531 -10.835938 47.921875 -8.984375 47.921875 -6.296875 C 47.921875 -4.648438 47.578125 -3.460938 46.890625 -2.734375 C 46.210938 -2.003906 44.820312 -1.550781 42.71875 -1.375 C 36.476562 -1.007812 30.710938 -0.734375 25.421875 -0.546875 C 20.140625 -0.367188 15.742188 -0.28125 12.234375 -0.28125 Z M 12.234375 -0.28125 "/></g></g></g></g></g><g transform="matrix(1, 0, 0, 1, 39, 219)"><g clip-path="url(#903b50e24f)"><g fill="#000000" fill-opacity="1"><g transform="translate(1.386656, 127.201748)"><g><path d="M 11.828125 0.890625 C 10.960938 0.984375 10.378906 0.265625 10.078125 -1.265625 C 9.785156 -2.796875 9.640625 -4.539062 9.640625 -6.5 L 9.640625 -54.625 C 9.503906 -60.039062 9.265625 -65.65625 8.921875 -71.46875 C 8.578125 -77.28125 8.359375 -83.332031 8.265625 -89.625 C 8.222656 -92.351562 8.210938 -95.082031 8.234375 -97.8125 C 8.253906 -100.550781 8.265625 -103.289062 8.265625 -106.03125 C 8.265625 -106.664062 8.847656 -107.128906 10.015625 -107.421875 C 11.179688 -107.722656 12.695312 -107.894531 14.5625 -107.9375 C 18.019531 -107.9375 19.75 -106.9375 19.75 -104.9375 L 19.75 -90.984375 C 19.75 -86.742188 20 -80.929688 20.5 -73.546875 C 21.007812 -66.171875 21.304688 -57.21875 21.390625 -46.6875 C 21.484375 -38.394531 21.460938 -31.503906 21.328125 -26.015625 C 21.191406 -20.523438 21.125 -16.320312 21.125 -13.40625 C 24 -13.539062 26.9375 -13.640625 29.9375 -13.703125 C 32.945312 -13.773438 36.265625 -13.8125 39.890625 -13.8125 C 43.515625 -13.8125 47.648438 -13.742188 52.296875 -13.609375 C 53.066406 -13.609375 53.578125 -12.976562 53.828125 -11.71875 C 54.078125 -10.46875 54.203125 -9.179688 54.203125 -7.859375 C 54.203125 -5.941406 54.039062 -4.492188 53.71875 -3.515625 C 53.40625 -2.535156 52.78125 -1.875 51.84375 -1.53125 C 50.914062 -1.195312 49.515625 -1.03125 47.640625 -1.03125 C 40.035156 -1.03125 33.25 -0.867188 27.28125 -0.546875 C 21.3125 -0.222656 16.160156 0.253906 11.828125 0.890625 Z M 11.828125 0.890625 "/></g></g></g><g fill="#000000" fill-opacity="1"><g transform="translate(62.430217, 127.201748)"><g><path d="M 13.953125 2.875 C 11.210938 2.875 9.84375 1.78125 9.84375 -0.40625 C 9.84375 -1.59375 9.613281 -10.785156 9.15625 -27.984375 C 8.707031 -45.191406 8.300781 -70.910156 7.9375 -105.140625 C 7.9375 -107.503906 9.394531 -108.6875 12.3125 -108.6875 C 19.375 -107.875 26.226562 -107.210938 32.875 -106.703125 C 39.53125 -106.203125 45.984375 -105.863281 52.234375 -105.6875 C 52.773438 -105.6875 53.09375 -105.179688 53.1875 -104.171875 C 53.28125 -103.171875 53.328125 -102.035156 53.328125 -100.765625 C 53.234375 -99.171875 53.128906 -97.953125 53.015625 -97.109375 C 52.898438 -96.265625 52.703125 -95.679688 52.421875 -95.359375 C 52.148438 -95.046875 51.707031 -94.863281 51.09375 -94.8125 C 50.476562 -94.769531 49.582031 -94.75 48.40625 -94.75 C 47.125 -94.75 44.03125 -94.90625 39.125 -95.21875 C 34.226562 -95.539062 27.566406 -96.019531 19.140625 -96.65625 C 19.234375 -87.5 19.320312 -79.9375 19.40625 -73.96875 C 19.5 -68 19.59375 -63.625 19.6875 -60.84375 L 48.953125 -60.296875 C 49.679688 -60.296875 50.132812 -59.894531 50.3125 -59.09375 C 50.5 -58.300781 50.59375 -57.515625 50.59375 -56.734375 C 50.59375 -54.179688 50.226562 -52.265625 49.5 -50.984375 C 48.769531 -49.710938 47.859375 -49.078125 46.765625 -49.078125 C 45.078125 -49.078125 42.066406 -49.097656 37.734375 -49.140625 C 33.398438 -49.191406 27.566406 -49.265625 20.234375 -49.359375 C 20.421875 -45.484375 20.554688 -41.289062 20.640625 -36.78125 C 20.734375 -32.269531 20.800781 -27.734375 20.84375 -23.171875 C 20.894531 -18.617188 20.953125 -14.265625 21.015625 -10.109375 C 21.085938 -5.960938 21.191406 -2.273438 21.328125 0.953125 C 21.421875 1.734375 20.851562 2.25 19.625 2.5 C 18.394531 2.75 16.503906 2.875 13.953125 2.875 Z M 13.953125 2.875 "/></g></g></g><g fill="#000000" fill-opacity="1"><g transform="translate(121.901544, 127.201748)"><g><path d="M 22.484375 0.40625 C 19.066406 0.40625 16.390625 0.382812 14.453125 0.34375 C 12.515625 0.300781 11.132812 0.1875 10.3125 0 C 9.5 -0.1875 9.09375 -0.503906 9.09375 -0.953125 C 8.863281 -20.503906 8.78125 -37.503906 8.84375 -51.953125 C 8.914062 -66.398438 9.15625 -78.097656 9.5625 -87.046875 C 9.976562 -96.003906 10.550781 -101.941406 11.28125 -104.859375 C 11.28125 -105.546875 12.066406 -106.101562 13.640625 -106.53125 C 15.210938 -106.96875 17.273438 -107.300781 19.828125 -107.53125 C 22.378906 -107.757812 25.085938 -107.875 27.953125 -107.875 C 35.972656 -107.875 41.988281 -105.660156 46 -101.234375 C 50.007812 -96.816406 52.015625 -90.734375 52.015625 -82.984375 C 52.015625 -73.367188 48.550781 -65.710938 41.625 -60.015625 C 46.457031 -57.234375 50.015625 -52.128906 52.296875 -44.703125 C 53.566406 -40.460938 54.203125 -33.171875 54.203125 -22.828125 C 54.203125 -18.679688 53.394531 -15.125 51.78125 -12.15625 C 50.164062 -9.195312 47.910156 -6.796875 45.015625 -4.953125 C 42.117188 -3.109375 38.753906 -1.753906 34.921875 -0.890625 C 31.097656 -0.0234375 26.953125 0.40625 22.484375 0.40625 Z M 20.03125 -63.84375 C 23.082031 -63.84375 25.894531 -64.332031 28.46875 -65.3125 C 31.039062 -66.289062 33.296875 -67.597656 35.234375 -69.234375 C 37.171875 -70.878906 38.675781 -72.726562 39.75 -74.78125 C 40.820312 -76.832031 41.359375 -78.929688 41.359375 -81.078125 C 41.359375 -84.535156 41.050781 -87.265625 40.4375 -89.265625 C 39.820312 -91.273438 38.660156 -92.757812 36.953125 -93.71875 C 35.242188 -94.675781 32.703125 -95.289062 29.328125 -95.5625 C 27.960938 -95.695312 26.628906 -95.726562 25.328125 -95.65625 C 24.023438 -95.59375 22.625 -95.492188 21.125 -95.359375 Z M 20.03125 -10.25 C 27.957031 -10.070312 33.867188 -11.484375 37.765625 -14.484375 C 41.660156 -17.492188 43.492188 -21.734375 43.265625 -27.203125 C 43.128906 -30.710938 42.832031 -33.9375 42.375 -36.875 C 41.925781 -39.820312 41.210938 -42.363281 40.234375 -44.5 C 39.253906 -46.644531 37.910156 -48.304688 36.203125 -49.484375 C 34.492188 -50.671875 32.289062 -51.265625 29.59375 -51.265625 C 26.5 -51.265625 23.128906 -50.992188 19.484375 -50.453125 C 19.390625 -47.347656 19.316406 -44.789062 19.265625 -42.78125 C 19.222656 -40.78125 19.203125 -39.328125 19.203125 -38.421875 C 19.203125 -29.578125 19.476562 -20.1875 20.03125 -10.25 Z M 20.03125 -10.25 "/></g></g></g><g fill="#000000" fill-opacity="1"><g transform="translate(185.952859, 127.201748)"><g><path d="M 14.15625 0 C 12.738281 0 11.5625 -0.191406 10.625 -0.578125 C 9.695312 -0.960938 9.234375 -1.5 9.234375 -2.1875 C 8.410156 -21.738281 7.703125 -39.941406 7.109375 -56.796875 C 6.515625 -73.660156 6.035156 -89.179688 5.671875 -103.359375 C 5.671875 -104.453125 5.957031 -105.238281 6.53125 -105.71875 C 7.101562 -106.195312 8.273438 -106.503906 10.046875 -106.640625 L 13.875 -106.921875 C 14.875 -106.921875 15.671875 -106.328125 16.265625 -105.140625 C 16.859375 -103.953125 17.25 -101.628906 17.4375 -98.171875 C 17.800781 -80.890625 18.234375 -64.398438 18.734375 -48.703125 C 19.234375 -33.003906 19.800781 -18.140625 20.4375 -4.109375 C 20.4375 -2.734375 20.015625 -1.703125 19.171875 -1.015625 C 18.328125 -0.335938 16.65625 0 14.15625 0 Z M 14.15625 0 "/></g></g></g><g fill="#000000" fill-opacity="1"><g transform="translate(213.569411, 127.201748)"><g><path d="M 43.953125 1.5 C 39.992188 1.5 36.664062 1.488281 33.96875 1.46875 C 31.28125 1.445312 28.910156 1.398438 26.859375 1.328125 C 24.816406 1.265625 22.828125 1.140625 20.890625 0.953125 C 18.953125 0.773438 16.726562 0.550781 14.21875 0.28125 C 11.207031 -0.09375 9.117188 -0.78125 7.953125 -1.78125 C 6.796875 -2.78125 6.21875 -3.960938 6.21875 -5.328125 C 6.21875 -10.390625 7.035156 -16.078125 8.671875 -22.390625 C 10.316406 -28.703125 12.597656 -35.570312 15.515625 -43 C 18.429688 -50.425781 21.800781 -58.351562 25.625 -66.78125 C 29.457031 -75.21875 33.5625 -84.082031 37.9375 -93.375 C 35.707031 -93.375 33.40625 -93.375 31.03125 -93.375 C 28.664062 -93.375 26.046875 -93.363281 23.171875 -93.34375 C 20.304688 -93.320312 16.976562 -93.3125 13.1875 -93.3125 C 12.007812 -93.3125 11.191406 -93.832031 10.734375 -94.875 C 10.273438 -95.925781 10.046875 -97.160156 10.046875 -98.578125 C 10.046875 -100.804688 10.429688 -102.316406 11.203125 -103.109375 C 11.984375 -103.910156 13.332031 -104.40625 15.25 -104.59375 C 17.019531 -104.769531 19.957031 -104.90625 24.0625 -105 C 28.164062 -105.09375 33.429688 -105.140625 39.859375 -105.140625 C 43.367188 -105.140625 46.035156 -105.046875 47.859375 -104.859375 C 49.679688 -104.679688 50.921875 -104.328125 51.578125 -103.796875 C 52.234375 -103.273438 52.519531 -102.535156 52.4375 -101.578125 C 52.34375 -100.171875 51.78125 -98.019531 50.75 -95.125 C 49.726562 -92.226562 48.394531 -88.820312 46.75 -84.90625 C 45.113281 -80.988281 43.269531 -76.738281 41.21875 -72.15625 C 39.164062 -67.570312 37.066406 -62.863281 34.921875 -58.03125 C 32.785156 -53.207031 30.703125 -48.425781 28.671875 -43.6875 C 26.648438 -38.945312 24.835938 -34.46875 23.234375 -30.25 C 21.640625 -26.03125 20.363281 -22.242188 19.40625 -18.890625 C 18.457031 -15.546875 17.984375 -12.847656 17.984375 -10.796875 C 21.578125 -10.347656 25.5625 -10.007812 29.9375 -9.78125 C 34.3125 -9.550781 39.078125 -9.4375 44.234375 -9.4375 C 45.828125 -9.4375 47 -9.046875 47.75 -8.265625 C 48.5 -7.492188 48.875 -5.96875 48.875 -3.6875 C 48.875 -2.1875 48.644531 -1.054688 48.1875 -0.296875 C 47.738281 0.453125 47.148438 0.9375 46.421875 1.15625 C 45.691406 1.382812 44.867188 1.5 43.953125 1.5 Z M 43.953125 1.5 "/></g></g></g><g fill="#000000" fill-opacity="1"><g transform="translate(273.245824, 127.201748)"><g><path d="M 13.8125 2.1875 C 12.8125 2.1875 11.875 2.09375 11 1.90625 C 10.132812 1.726562 9.703125 1.457031 9.703125 1.09375 C 9.660156 -1.457031 9.613281 -3.664062 9.5625 -5.53125 C 9.519531 -7.40625 9.488281 -9.160156 9.46875 -10.796875 C 9.445312 -12.441406 9.4375 -14.128906 9.4375 -15.859375 C 9.4375 -18.273438 9.492188 -20.835938 9.609375 -23.546875 C 9.722656 -26.265625 9.890625 -29.421875 10.109375 -33.015625 C 10.335938 -36.617188 10.625 -40.867188 10.96875 -45.765625 C 11.3125 -50.660156 11.710938 -56.460938 12.171875 -63.171875 C 12.484375 -67.628906 12.726562 -71.507812 12.90625 -74.8125 C 13.09375 -78.125 13.359375 -81.019531 13.703125 -83.5 C 14.046875 -85.988281 14.535156 -88.210938 15.171875 -90.171875 C 16.816406 -95.085938 19.222656 -98.867188 22.390625 -101.515625 C 25.554688 -104.160156 29.53125 -105.992188 34.3125 -107.015625 C 39.101562 -108.046875 44.753906 -108.5625 51.265625 -108.5625 C 56.921875 -108.5625 59.75 -105.914062 59.75 -100.625 C 59.5625 -91.738281 59.476562 -83.191406 59.5 -74.984375 C 59.53125 -66.785156 59.679688 -58.734375 59.953125 -50.828125 C 60.222656 -42.921875 60.628906 -34.988281 61.171875 -27.03125 C 61.722656 -19.082031 62.429688 -10.894531 63.296875 -2.46875 C 63.429688 -1.6875 62.894531 -0.988281 61.6875 -0.375 C 60.488281 0.238281 58.75 0.546875 56.46875 0.546875 C 53.050781 0.316406 51.316406 -0.226562 51.265625 -1.09375 L 49.078125 -39.65625 C 45.566406 -39.65625 41.519531 -39.5625 36.9375 -39.375 C 32.363281 -39.195312 27.296875 -38.925781 21.734375 -38.5625 C 21.503906 -35.28125 21.34375 -31.816406 21.25 -28.171875 C 21.164062 -24.523438 21.125 -20.921875 21.125 -17.359375 C 21.125 -13.804688 21.132812 -10.503906 21.15625 -7.453125 C 21.175781 -4.398438 21.1875 -1.820312 21.1875 0.28125 C 21.1875 0.820312 20.421875 1.273438 18.890625 1.640625 C 17.367188 2.003906 15.675781 2.1875 13.8125 2.1875 Z M 22.28125 -49.765625 C 24.65625 -49.898438 27.320312 -50.046875 30.28125 -50.203125 C 33.25 -50.367188 36.335938 -50.53125 39.546875 -50.6875 C 42.753906 -50.84375 45.84375 -50.992188 48.8125 -51.140625 C 48.625 -54.734375 48.484375 -58.375 48.390625 -62.0625 C 48.304688 -65.757812 48.265625 -69.546875 48.265625 -73.421875 C 48.265625 -77.296875 48.304688 -81.179688 48.390625 -85.078125 C 48.484375 -88.972656 48.625 -92.859375 48.8125 -96.734375 C 46.351562 -96.734375 43.878906 -96.617188 41.390625 -96.390625 C 38.910156 -96.160156 36.550781 -95.691406 34.3125 -94.984375 C 32.082031 -94.273438 30.078125 -93.148438 28.296875 -91.609375 C 27.117188 -90.597656 26.265625 -89.179688 25.734375 -87.359375 C 25.210938 -85.535156 24.847656 -83.328125 24.640625 -80.734375 C 24.441406 -78.140625 24.203125 -75.109375 23.921875 -71.640625 C 23.835938 -70.085938 23.632812 -67.5 23.3125 -63.875 C 22.988281 -60.257812 22.644531 -55.554688 22.28125 -49.765625 Z M 22.28125 -49.765625 "/></g></g></g><g fill="#000000" fill-opacity="1"><g transform="translate(345.158296, 127.201748)"><g><path d="M 13.609375 3.34375 C 12.785156 3.34375 12.078125 3.046875 11.484375 2.453125 C 10.890625 1.867188 10.59375 1.070312 10.59375 0.0625 L 10.453125 -65.5625 L 10.453125 -98.921875 C 10.453125 -100.828125 10.757812 -102.269531 11.375 -103.25 C 12 -104.238281 13.015625 -104.867188 14.421875 -105.140625 C 15.566406 -105.367188 16.992188 -105.523438 18.703125 -105.609375 C 20.410156 -105.703125 22.3125 -105.75 24.40625 -105.75 C 31.5625 -105.75 37.550781 -104.289062 42.375 -101.375 C 47.207031 -98.457031 50.601562 -93.992188 52.5625 -87.984375 C 53.207031 -86.109375 53.6875 -83.941406 54 -81.484375 C 54.320312 -79.023438 54.484375 -76.269531 54.484375 -73.21875 C 54.484375 -67.832031 53.265625 -63.113281 50.828125 -59.0625 C 48.390625 -55.007812 44.59375 -51.066406 39.4375 -47.234375 C 40.582031 -44.640625 41.800781 -41.78125 43.09375 -38.65625 C 44.394531 -35.53125 45.707031 -32.316406 47.03125 -29.015625 C 48.351562 -25.710938 49.628906 -22.46875 50.859375 -19.28125 C 52.085938 -16.09375 53.203125 -13.117188 54.203125 -10.359375 C 55.210938 -7.597656 56.035156 -5.21875 56.671875 -3.21875 C 56.992188 -2.257812 56.8125 -1.34375 56.125 -0.46875 C 55.4375 0.394531 54.535156 1.097656 53.421875 1.640625 C 52.304688 2.191406 51.203125 2.519531 50.109375 2.625 C 49.015625 2.738281 48.191406 2.523438 47.640625 1.984375 C 47.273438 1.617188 46.691406 0.582031 45.890625 -1.125 C 45.097656 -2.832031 44.15625 -5.007812 43.0625 -7.65625 C 41.96875 -10.300781 40.796875 -13.207031 39.546875 -16.375 C 38.296875 -19.539062 37.007812 -22.773438 35.6875 -26.078125 C 34.363281 -29.378906 33.097656 -32.578125 31.890625 -35.671875 C 30.679688 -38.773438 29.578125 -41.535156 28.578125 -43.953125 L 22.15625 -43.484375 C 22.0625 -41.296875 21.976562 -38.765625 21.90625 -35.890625 C 21.84375 -33.015625 21.773438 -29.984375 21.703125 -26.796875 C 21.640625 -23.609375 21.570312 -20.394531 21.5 -17.15625 C 21.425781 -13.925781 21.351562 -10.835938 21.28125 -7.890625 C 21.21875 -4.953125 21.144531 -2.320312 21.0625 0 C 21.007812 1.414062 20.609375 2.328125 19.859375 2.734375 C 19.109375 3.140625 18.207031 3.34375 17.15625 3.34375 Z M 21.671875 -55.578125 C 24.492188 -55.441406 27.191406 -55.804688 29.765625 -56.671875 C 32.347656 -57.535156 34.648438 -58.898438 36.671875 -60.765625 C 38.703125 -62.640625 40.304688 -64.976562 41.484375 -67.78125 C 42.671875 -70.582031 43.265625 -73.851562 43.265625 -77.59375 C 43.265625 -88.707031 36.15625 -94.265625 21.9375 -94.265625 C 21.757812 -90.578125 21.625 -86.75 21.53125 -82.78125 C 21.4375 -78.820312 21.390625 -74.722656 21.390625 -70.484375 C 21.390625 -69.066406 21.410156 -67.054688 21.453125 -64.453125 C 21.503906 -61.859375 21.578125 -58.898438 21.671875 -55.578125 Z M 21.671875 -55.578125 "/></g></g></g><g fill="#000000" fill-opacity="1"><g transform="translate(410.645085, 127.201748)"><g><path d="M 13.609375 3.34375 C 12.785156 3.34375 12.078125 3.046875 11.484375 2.453125 C 10.890625 1.867188 10.59375 1.070312 10.59375 0.0625 L 10.453125 -65.5625 L 10.453125 -98.921875 C 10.453125 -100.828125 10.757812 -102.269531 11.375 -103.25 C 12 -104.238281 13.015625 -104.867188 14.421875 -105.140625 C 15.566406 -105.367188 16.992188 -105.523438 18.703125 -105.609375 C 20.410156 -105.703125 22.3125 -105.75 24.40625 -105.75 C 31.5625 -105.75 37.550781 -104.289062 42.375 -101.375 C 47.207031 -98.457031 50.601562 -93.992188 52.5625 -87.984375 C 53.207031 -86.109375 53.6875 -83.941406 54 -81.484375 C 54.320312 -79.023438 54.484375 -76.269531 54.484375 -73.21875 C 54.484375 -67.832031 53.265625 -63.113281 50.828125 -59.0625 C 48.390625 -55.007812 44.59375 -51.066406 39.4375 -47.234375 C 40.582031 -44.640625 41.800781 -41.78125 43.09375 -38.65625 C 44.394531 -35.53125 45.707031 -32.316406 47.03125 -29.015625 C 48.351562 -25.710938 49.628906 -22.46875 50.859375 -19.28125 C 52.085938 -16.09375 53.203125 -13.117188 54.203125 -10.359375 C 55.210938 -7.597656 56.035156 -5.21875 56.671875 -3.21875 C 56.992188 -2.257812 56.8125 -1.34375 56.125 -0.46875 C 55.4375 0.394531 54.535156 1.097656 53.421875 1.640625 C 52.304688 2.191406 51.203125 2.519531 50.109375 2.625 C 49.015625 2.738281 48.191406 2.523438 47.640625 1.984375 C 47.273438 1.617188 46.691406 0.582031 45.890625 -1.125 C 45.097656 -2.832031 44.15625 -5.007812 43.0625 -7.65625 C 41.96875 -10.300781 40.796875 -13.207031 39.546875 -16.375 C 38.296875 -19.539062 37.007812 -22.773438 35.6875 -26.078125 C 34.363281 -29.378906 33.097656 -32.578125 31.890625 -35.671875 C 30.679688 -38.773438 29.578125 -41.535156 28.578125 -43.953125 L 22.15625 -43.484375 C 22.0625 -41.296875 21.976562 -38.765625 21.90625 -35.890625 C 21.84375 -33.015625 21.773438 -29.984375 21.703125 -26.796875 C 21.640625 -23.609375 21.570312 -20.394531 21.5 -17.15625 C 21.425781 -13.925781 21.351562 -10.835938 21.28125 -7.890625 C 21.21875 -4.953125 21.144531 -2.320312 21.0625 0 C 21.007812 1.414062 20.609375 2.328125 19.859375 2.734375 C 19.109375 3.140625 18.207031 3.34375 17.15625 3.34375 Z M 21.671875 -55.578125 C 24.492188 -55.441406 27.191406 -55.804688 29.765625 -56.671875 C 32.347656 -57.535156 34.648438 -58.898438 36.671875 -60.765625 C 38.703125 -62.640625 40.304688 -64.976562 41.484375 -67.78125 C 42.671875 -70.582031 43.265625 -73.851562 43.265625 -77.59375 C 43.265625 -88.707031 36.15625 -94.265625 21.9375 -94.265625 C 21.757812 -90.578125 21.625 -86.75 21.53125 -82.78125 C 21.4375 -78.820312 21.390625 -74.722656 21.390625 -70.484375 C 21.390625 -69.066406 21.410156 -67.054688 21.453125 -64.453125 C 21.503906 -61.859375 21.578125 -58.898438 21.671875 -55.578125 Z M 21.671875 -55.578125 "/></g></g></g><g fill="#000000" fill-opacity="1"><g transform="translate(476.131911, 127.201748)"><g><path d="M 12.234375 -0.28125 C 11.640625 -0.28125 11.226562 -0.539062 11 -1.0625 C 10.78125 -1.582031 10.65625 -2.238281 10.625 -3.03125 C 10.601562 -3.832031 10.59375 -4.644531 10.59375 -5.46875 L 10.59375 -42.65625 C 10.59375 -60.75 9.5 -80.894531 7.3125 -103.09375 C 7.175781 -104 7.65625 -104.679688 8.75 -105.140625 C 9.84375 -105.597656 11.1875 -105.828125 12.78125 -105.828125 L 44.78125 -105.828125 C 45.28125 -105.828125 45.585938 -105.253906 45.703125 -104.109375 C 45.816406 -102.972656 45.875 -101.082031 45.875 -98.4375 C 45.875 -96.25 44.867188 -95.15625 42.859375 -95.15625 C 39.710938 -95.15625 36.828125 -95.144531 34.203125 -95.125 C 31.585938 -95.101562 29.082031 -95.046875 26.6875 -94.953125 C 24.300781 -94.859375 21.851562 -94.742188 19.34375 -94.609375 C 19.34375 -93.242188 19.890625 -82.398438 20.984375 -62.078125 L 40.125 -62.625 C 41.582031 -62.625 42.3125 -60.617188 42.3125 -56.609375 C 42.3125 -53.140625 41.21875 -51.40625 39.03125 -51.40625 L 21.265625 -50.59375 C 21.441406 -41.25 21.617188 -33.382812 21.796875 -27 C 21.984375 -20.625 22.171875 -15.65625 22.359375 -12.09375 C 23.992188 -12.1875 26.019531 -12.300781 28.4375 -12.4375 C 30.851562 -12.570312 33.492188 -12.71875 36.359375 -12.875 C 39.234375 -13.039062 42.175781 -13.21875 45.1875 -13.40625 C 46.414062 -13.40625 47.175781 -12.890625 47.46875 -11.859375 C 47.769531 -10.835938 47.921875 -8.984375 47.921875 -6.296875 C 47.921875 -4.648438 47.578125 -3.460938 46.890625 -2.734375 C 46.210938 -2.003906 44.820312 -1.550781 42.71875 -1.375 C 36.476562 -1.007812 30.710938 -0.734375 25.421875 -0.546875 C 20.140625 -0.367188 15.742188 -0.28125 12.234375 -0.28125 Z M 12.234375 -0.28125 "/></g></g></g></g></g><g clip-path="url(#375e148fc9)"><g clip-path="url(#0c22c85794)"><path stroke-linecap="butt" transform="matrix(0.75, 0, 0, 0.75, 0.00422587, 214.522276)" fill="none" stroke-linejoin="miter" d="M 40.801656 0.00154914 L 759.187058 0.00154914 C 770.009974 0.00154914 780.384974 4.298424 788.041224 11.949466 C 795.692265 19.600507 799.98914 29.980715 799.98914 40.798423 L 799.98914 187.136962 C 799.98914 197.959878 795.692265 208.334878 788.041224 215.98592 C 780.384974 223.636961 770.009974 227.939044 759.187058 227.939044 L 40.801656 227.939044 C 29.97874 227.939044 19.60374 223.636961 11.94749 215.98592 C 4.296449 208.334878 -0.000426162 197.959878 -0.000426162 187.136962 L -0.000426162 40.798423 C -0.000426162 29.980715 4.296449 19.600507 11.94749 11.949466 C 19.60374 4.298424 29.97874 0.00154914 40.801656 0.00154914 Z M 40.801656 0.00154914 " stroke="#000000" stroke-width="12" stroke-opacity="1" stroke-miterlimit="4"/></g></g></svg>