<svg xmlns="http://www.w3.org/2000/svg" viewBox="0 0 800 800" width="800" height="800">
  <!-- Cosmic Vibes Background -->
  <defs>
    <radialGradient id="cosmicGrad" cx="50%" cy="50%" r="80%">
      <stop offset="0%" style="stop-color:#4B0082;stop-opacity:1" />
      <stop offset="50%" style="stop-color:#000033;stop-opacity:1" />
      <stop offset="100%" style="stop-color:#000000;stop-opacity:1" />
    </radialGradient>
    <filter id="glow">
      <feGaussianBlur stdDeviation="4" result="coloredBlur"/>
      <feMerge>
        <feMergeNode in="coloredBlur"/>
        <feMergeNode in="SourceGraphic"/>
      </feMerge>
    </filter>
  </defs>
  
  <!-- Space background -->
  <rect width="800" height="800" fill="url(#cosmicGrad)"/>
  
  <!-- Stars field -->
  <g opacity="0.8">
    <circle cx="50" cy="100" r="1" fill="#FFF"/>
    <circle cx="150" cy="50" r="1.5" fill="#FFF"/>
    <circle cx="250" cy="150" r="1" fill="#FFF"/>
    <circle cx="350" cy="80" r="2" fill="#FFF" filter="url(#glow)"/>
    <circle cx="450" cy="120" r="1" fill="#FFF"/>
    <circle cx="550" cy="200" r="1.5" fill="#FFF"/>
    <circle cx="650" cy="100" r="1" fill="#FFF"/>
    <circle cx="750" cy="180" r="2" fill="#FFF" filter="url(#glow)"/>
    <circle cx="100" cy="300" r="1" fill="#FFF"/>
    <circle cx="200" cy="350" r="1.5" fill="#FFF"/>
    <circle cx="300" cy="400" r="1" fill="#FFF"/>
    <circle cx="400" cy="380" r="2" fill="#FFF" filter="url(#glow)"/>
    <circle cx="500" cy="450" r="1" fill="#FFF"/>
    <circle cx="600" cy="500" r="1.5" fill="#FFF"/>
    <circle cx="700" cy="420" r="1" fill="#FFF"/>
    <circle cx="80" cy="600" r="1" fill="#FFF"/>
    <circle cx="180" cy="650" r="1.5" fill="#FFF"/>
    <circle cx="280" cy="700" r="1" fill="#FFF"/>
    <circle cx="380" cy="680" r="2" fill="#FFF" filter="url(#glow)"/>
    <circle cx="480" cy="750" r="1" fill="#FFF"/>
    <circle cx="580" cy="720" r="1.5" fill="#FFF"/>
    <circle cx="680" cy="680" r="1" fill="#FFF"/>
  </g>
  
  <!-- Nebula clouds -->
  <ellipse cx="200" cy="400" rx="150" ry="100" fill="#FF00FF" opacity="0.1" transform="rotate(-20 200 400)"/>
  <ellipse cx="600" cy="300" rx="200" ry="120" fill="#00FFFF" opacity="0.1" transform="rotate(30 600 300)"/>
  <ellipse cx="400" cy="600" rx="180" ry="80" fill="#FFD700" opacity="0.08" transform="rotate(-45 400 600)"/>
  
  <!-- Galaxy spiral hint -->
  <path d="M 400 400 Q 300 300, 200 350 T 100 400" stroke="#FFF" stroke-width="1" fill="none" opacity="0.1"/>
  <path d="M 400 400 Q 500 500, 600 450 T 700 400" stroke="#FFF" stroke-width="1" fill="none" opacity="0.1"/>
  
  <!-- Central glow -->
  <circle cx="400" cy="400" r="100" fill="#FFF" opacity="0.05" filter="url(#glow)"/>
  <circle cx="400" cy="400" r="60" fill="#FFD700" opacity="0.08" filter="url(#glow)"/>
</svg>